<svg viewBox="0 0 375.41 92.84" xmlns="http://www.w3.org/2000/svg" xmlns:xlink="http://www.w3.org/1999/xlink"><radialGradient id="a" cx="600.2" cy="664.88" gradientTransform="matrix(.71 -.71 -.71 -.71 66.54 946.83)" gradientUnits="userSpaceOnUse" r="68.93"><stop offset="0" stop-color="#3baec0"/><stop offset="1" stop-color="#96d6dd"/></radialGradient><radialGradient id="b" cx="25.52" cy="17.14" gradientTransform="matrix(1 0 0 -1 0 86.23)" gradientUnits="userSpaceOnUse" r="65.53"><stop offset="0" stop-color="#eb2027"/><stop offset="1" stop-color="#a11d26"/></radialGradient><path d="m214.22 50a3.51 3.51 0 0 0 -2.09-.6 3.38 3.38 0 0 0 -3.41 2.38 8.38 8.38 0 0 0 -.44 2.95 8.67 8.67 0 0 0 .44 2.94 3.37 3.37 0 0 0 3.41 2.33 3.49 3.49 0 0 0 2.09-.6 3.77 3.77 0 0 0 1.29-1.79 10.08 10.08 0 0 0 0-5.89 3.61 3.61 0 0 0 -1.29-1.72z" fill="none"/><path d="m183.48 24.49h-2.37v10.4h2.37a3.74 3.74 0 0 0 3.18-1.31 6.34 6.34 0 0 0 1-3.89 6.34 6.34 0 0 0 -1-3.89 3.74 3.74 0 0 0 -3.18-1.31z" fill="none"/><path d="m233.11 53.32a2 2 0 0 0 .65-1.66 2 2 0 0 0 -.65-1.64 3 3 0 0 0 -2-.52h-3.11v4.34h3.17a3 3 0 0 0 1.94-.52z" fill="none"/><path d="m225.91 24.57a2.65 2.65 0 0 0 -1.25-.28 2.47 2.47 0 0 0 -1.77.61 2.32 2.32 0 0 0 -.68 1.7 2.08 2.08 0 0 0 .65 1.68 2.56 2.56 0 0 0 1.79.61 2.72 2.72 0 0 0 1.26-.29 2.11 2.11 0 0 0 1.18-2 2.31 2.31 0 0 0 -.31-1.24 2.15 2.15 0 0 0 -.87-.79z" fill="none"/><path d="m135.94 49.55h-.06l-.69 2.68-1.29 4.13h4.04l-1.25-4.11z" fill="none"/><path d="m137.51 34.42a3.57 3.57 0 0 0 2.11.6 3.51 3.51 0 0 0 2.09-.6 3.77 3.77 0 0 0 1.29-1.79 8.67 8.67 0 0 0 .44-2.94 8.61 8.61 0 0 0 -.44-3 3.61 3.61 0 0 0 -1.29-1.69 3.53 3.53 0 0 0 -2.09-.6 3.38 3.38 0 0 0 -3.41 2.38 8.61 8.61 0 0 0 -.44 3 8.67 8.67 0 0 0 .44 2.94 3.57 3.57 0 0 0 1.3 1.7z" fill="none"/><path d="m117.4 37.48a9.18 9.18 0 0 0 4.5 1.05 9.82 9.82 0 0 0 3.33-.53 6.55 6.55 0 0 0 2.6-1.69 6.82 6.82 0 0 0 1.59-3l-4.08-1.14a3.53 3.53 0 0 1 -1.18 2.12 3.31 3.31 0 0 1 -2.16.71 3.91 3.91 0 0 1 -2.22-.6 3.46 3.46 0 0 1 -1.34-1.79 8.67 8.67 0 0 1 -.44-2.91 7.88 7.88 0 0 1 .48-2.95 3.57 3.57 0 0 1 3.5-2.38 3.41 3.41 0 0 1 2.07.6 3.62 3.62 0 0 1 1.18 2.21l3.93-1.59a5.84 5.84 0 0 0 -1.48-2.68 6.49 6.49 0 0 0 -2.55-1.55 10.2 10.2 0 0 0 -3.3-.51 9.09 9.09 0 0 0 -4.47 1 7.1 7.1 0 0 0 -2.91 3 10.42 10.42 0 0 0 -1 4.76 10.26 10.26 0 0 0 1 4.76 7 7 0 0 0 2.95 3.11z" fill="#424143"/><path d="m135.12 37.48a9.18 9.18 0 0 0 4.5 1.05 9.08 9.08 0 0 0 4.48-1.05 7.08 7.08 0 0 0 2.9-3 10.39 10.39 0 0 0 1-4.76 10.26 10.26 0 0 0 -1-4.76 7.08 7.08 0 0 0 -2.9-3 10.13 10.13 0 0 0 -9 0 7.1 7.1 0 0 0 -2.91 3 10.42 10.42 0 0 0 -1 4.76 10.26 10.26 0 0 0 1 4.76 7 7 0 0 0 2.93 3zm1.09-10.74a3.38 3.38 0 0 1 3.41-2.38 3.53 3.53 0 0 1 2.09.6 3.61 3.61 0 0 1 1.29 1.78 8.61 8.61 0 0 1 .44 3 8.67 8.67 0 0 1 -.44 2.94 3.77 3.77 0 0 1 -1.29 1.79 3.51 3.51 0 0 1 -2.09.6 3.37 3.37 0 0 1 -3.41-2.39 8.67 8.67 0 0 1 -.44-2.94 8.61 8.61 0 0 1 .44-3z" fill="#424143"/><path d="m160.24 38.27 6.07-17.16v-.01h-4.53l-3.19 10.43-.91 3.33-.94-3.38-3.15-10.37h-4.71l6.11 17.16z" fill="#424143"/><path d="m168.37 21.11h4.47v17.16h-4.47z" fill="#424143"/><path d="m192.24 29.69a8.8 8.8 0 0 0 -2.15-6.34 8.13 8.13 0 0 0 -6.17-2.24h-7.28v17.16h7.28a8.16 8.16 0 0 0 6.17-2.27 8.74 8.74 0 0 0 2.15-6.31zm-5.58 3.89a3.74 3.74 0 0 1 -3.18 1.31h-2.37v-10.4h2.37a3.74 3.74 0 0 1 3.18 1.31 6.34 6.34 0 0 1 1 3.89 6.34 6.34 0 0 1 -1 3.89z" fill="#424143"/><path d="m194.86 27.82h9.52v3.61h-9.52z" fill="#424143"/><path d="m208.92 26.9a10.45 10.45 0 0 0 1.9-1.37v1.47s0 .94 0 1.39v9.88h4.3v-17.16h-3.56a4.42 4.42 0 0 1 -.91.95 9.9 9.9 0 0 1 -1.35.9 10.88 10.88 0 0 1 -1.52.7 5.16 5.16 0 0 1 -1.44.34l.42 3.69a7 7 0 0 0 2.16-.79z" fill="#424143"/><path d="m228.38 37.61a6.25 6.25 0 0 0 2.54-2.89 12.08 12.08 0 0 0 .92-5.08 12.65 12.65 0 0 0 -.84-4.84 6.18 6.18 0 0 0 -2.41-2.95 7.28 7.28 0 0 0 -4-1 7.9 7.9 0 0 0 -3.43.71 5.3 5.3 0 0 0 -2.3 2 5.75 5.75 0 0 0 -.83 3.13 5.57 5.57 0 0 0 .68 2.87 4.66 4.66 0 0 0 2 1.9 6.17 6.17 0 0 0 2.9.66 6.37 6.37 0 0 0 1.3-.13 4.81 4.81 0 0 0 1.21-.42 3.66 3.66 0 0 0 1-.72 3.09 3.09 0 0 0 .65-1h.08v.41a10.63 10.63 0 0 1 -.18 2.07 4.77 4.77 0 0 1 -.56 1.52 2.62 2.62 0 0 1 -1 1 2.84 2.84 0 0 1 -1.4.33 2.35 2.35 0 0 1 -1.63-.52 2.64 2.64 0 0 1 -.79-1.43l-4 1.59a5.52 5.52 0 0 0 2.46 2.85 8 8 0 0 0 3.89.9 7.31 7.31 0 0 0 3.74-.96zm-1.6-9.8a2.22 2.22 0 0 1 -.87.79 2.72 2.72 0 0 1 -1.26.29 2.56 2.56 0 0 1 -1.79-.61 2.08 2.08 0 0 1 -.65-1.68 2.32 2.32 0 0 1 .68-1.7 2.47 2.47 0 0 1 1.77-.61 2.65 2.65 0 0 1 1.25.28 2.15 2.15 0 0 1 .87.79 2.31 2.31 0 0 1 .31 1.24 2.22 2.22 0 0 1 -.31 1.21z" fill="#424143"/><path d="m242.4 21.11h4.47v17.16h-4.47z" fill="#424143"/><path d="m270.52 21.12v-.01" fill="none"/><path d="m266.64 25.11h.05l-.13 5.28v7.88h3.95v-17.15h-6.11l-2.67 8.76-.99 3.61h-.05l-.96-3.64-2.71-8.74h-6.36v17.17h3.97v-7.88l-.13-5.28h.06l4.24 13.15h3.6z" fill="#424143"/><path d="m294.18 21.11v.01" fill="none"/><g fill="#424143"><path d="m285.38 29.88-.99 3.61h-.04l-.97-3.64-2.69-8.74h-6.38v17.17h3.99v-7.88l-.13-5.28h.04l4.24 13.15h3.61l4.25-13.16h.05l-.13 5.28v7.88h3.95v-17.15h-6.12z"/><path d="m308.5 31.35a4.11 4.11 0 0 1 -.79 2.76 3.59 3.59 0 0 1 -4.78 0 4.11 4.11 0 0 1 -.79-2.76v-10.24h-4.5v10.17a7.08 7.08 0 0 0 1.95 5.45 8.11 8.11 0 0 0 5.72 1.81q3.79 0 5.73-1.81a7.12 7.12 0 0 0 1.96-5.45v-10.17h-4.5z"/><path d="m327.95 29.77.11 3.17h-.04l-1.29-2.55-5.34-9.28h-4.96v17.16h3.95v-8.66l-.11-3.17h.04l1.3 2.55 5.33 9.28h4.96v-17.16h-3.95z"/><path d="m335.71 21.11h4.47v17.16h-4.47z"/><path d="m342.71 24.57h5.62v13.7h4.48v-13.7h5.58v-3.46h-15.68z"/><path d="m370.86 21.11-2.42 4.71-1.31 2.86-1.26-2.86-2.43-4.71h-4.63l6.07 10.89v6.27h4.47v-6.27l6.05-10.89z"/><path d="m128.63 46.11h-15.68v3.46h5.63v13.7h4.47v-13.7h5.58z"/><path d="m133.27 46.11-6 17.16h4.52l1.21-3.87h5.9l1.1 3.87h4.6l-6-17.16zm.63 10.25 1.29-4.13.7-2.68h.05l.75 2.7 1.24 4.11z"/><path d="m151.64 49.53a4.82 4.82 0 0 1 1.56-.21 7.12 7.12 0 0 1 2.93.58 7.76 7.76 0 0 1 2.4 1.75l2.16-2.89a9 9 0 0 0 -3.19-2.17 11.36 11.36 0 0 0 -4.23-.74 9.7 9.7 0 0 0 -4 .74 6 6 0 0 0 -2.55 2 4.87 4.87 0 0 0 -.88 2.87 4.15 4.15 0 0 0 .65 2.38 4.55 4.55 0 0 0 1.78 1.51 11.92 11.92 0 0 0 2.59.9l3.17.7a3.31 3.31 0 0 1 1.49.65 1.18 1.18 0 0 1 .38.94 1.21 1.21 0 0 1 -.31.84 2 2 0 0 1 -.91.53 5.2 5.2 0 0 1 -1.48.18 7.81 7.81 0 0 1 -2.3-.34 8.49 8.49 0 0 1 -2.08-.92 6.86 6.86 0 0 1 -1.6-1.34l-2.16 3a9 9 0 0 0 2.11 1.61 10.81 10.81 0 0 0 2.83 1.06 14 14 0 0 0 3.28.38 10.36 10.36 0 0 0 3.72-.64 5.7 5.7 0 0 0 2.6-1.9 5 5 0 0 0 .94-3.08 4 4 0 0 0 -1.2-3 8.08 8.08 0 0 0 -3.77-1.74l-2.89-.65a4.73 4.73 0 0 1 -1.65-.64 1.12 1.12 0 0 1 -.51-.92 1.41 1.41 0 0 1 .26-.83 1.76 1.76 0 0 1 .86-.61z"/><path d="m178.9 46.11-.01.01h.01z"/><path d="m178.89 46.12h-4.96l-6.14 7.6v-7.61h-4.47v17.16h4.47v-4.84l2.09-2.54 4.27 7.38h5.07l-6.14-10.2z"/><path d="m188.65 63.27h4.47v-6.6h7.07v-3.46h-7.07v-3.64h8.87v-3.46h-13.34z"/><path d="m216.62 46.9a10.15 10.15 0 0 0 -9 0 7.1 7.1 0 0 0 -2.91 3 10.42 10.42 0 0 0 -1 4.76 10.26 10.26 0 0 0 1 4.76 7 7 0 0 0 2.91 3 10.15 10.15 0 0 0 9 0 7.08 7.08 0 0 0 2.9-3 10.39 10.39 0 0 0 1-4.76 10.26 10.26 0 0 0 -1-4.76 7.08 7.08 0 0 0 -2.9-3zm-1.11 10.73a3.77 3.77 0 0 1 -1.29 1.79 3.49 3.49 0 0 1 -2.09.6 3.37 3.37 0 0 1 -3.41-2.39 8.67 8.67 0 0 1 -.44-2.94 8.38 8.38 0 0 1 .44-2.95 3.38 3.38 0 0 1 3.41-2.38 3.51 3.51 0 0 1 2.09.6 3.61 3.61 0 0 1 1.29 1.78 10.08 10.08 0 0 1 0 5.89z"/><path d="m236.56 55.38a4.85 4.85 0 0 0 1.69-4 4.78 4.78 0 0 0 -1.7-3.83 7.17 7.17 0 0 0 -4.77-1.44h-8.2v17.15h4.42v-6.26h2.69l3.68 6.28h4.94l-4.5-7a5.78 5.78 0 0 0 1.75-.9zm-8.56-5.88h3.17a3 3 0 0 1 2 .52 2 2 0 0 1 .65 1.64 2 2 0 0 1 -.65 1.66 3 3 0 0 1 -2 .52h-3.17z"/><path d="m251.28 59.34a3.31 3.31 0 0 1 -2.12.69 3.91 3.91 0 0 1 -2.22-.6 3.46 3.46 0 0 1 -1.34-1.79 8.67 8.67 0 0 1 -.44-2.94 7.88 7.88 0 0 1 .48-3 3.57 3.57 0 0 1 3.5-2.38 3.43 3.43 0 0 1 2.07.6 3.62 3.62 0 0 1 1.18 2.21l3.93-1.59a5.84 5.84 0 0 0 -1.48-2.68 6.49 6.49 0 0 0 -2.55-1.55 10.2 10.2 0 0 0 -3.3-.51 9.09 9.09 0 0 0 -4.47 1 7.1 7.1 0 0 0 -2.91 3 10.42 10.42 0 0 0 -1 4.76 10.26 10.26 0 0 0 1 4.76 7 7 0 0 0 2.91 3 9.18 9.18 0 0 0 4.5 1.05 9.82 9.82 0 0 0 3.33-.53 6.62 6.62 0 0 0 2.6-1.69 6.82 6.82 0 0 0 1.59-3l-4.08-1.14a3.58 3.58 0 0 1 -1.18 2.33z"/><path d="m263.5 56.3h7.06v-3.25h-7.06v-3.48h8.88v-3.46h-13.36v17.16h13.71v-3.46h-9.23z"/></g><path d="m61.69 1.47c7.11 2.14 11.55 6.33 13 9.43 1.63 3.61 1.46 8.22-1.13 11.26-2.21 2.59-5.78 3.66-9.16 3.63s-6.66-1-9.92-1.86c-12.73-3.37-18.2 0-21.06 5.28a10.09 10.09 0 0 0 2.42 12.5c2.85 2.53 6.66 2.66 10 4.84 2.39 1.55 2.67 3.61 2.77 5.48a27.38 27.38 0 0 0 .39 5.59c1 3.57 4.56 6.08 8.25 6.27a12.72 12.72 0 0 0 9.75-4.39 21.72 21.72 0 0 0 4.76-9.87 77.8 77.8 0 0 0 1.34-11 24.85 24.85 0 0 1 1.8-8.6c1.24-2.67 3.61-5 6.52-5.42 3.54-.51 9.31 1.88 10.85 10.52a.22.22 0 0 1 0 .08 42.18 42.18 0 1 1 -30.58-33.74z" fill="url(#a)"/><path d="m88.12 73.29a4.74 4.74 0 0 1 -5.28-1 2.44 2.44 0 0 1 -.69-2 42.13 42.13 0 0 0 9.66-37.45c2.43 14.7-8.51 30.33-21.34 31.26a6.58 6.58 0 0 1 -5.28-1.92 8.12 8.12 0 0 1 -1.7-5.88c.08-2.09.53-4.17.47-6.26a7 7 0 0 0 -2.44-5.55 5.77 5.77 0 0 0 -4.79-.75 9.79 9.79 0 0 0 -4.25 2.55c-2.55 2.44-4.17 5.66-6 8.69s-4 6.05-7.1 7.65c-4.73 2.42-11.1.2-10.12-5.88.62-3.87 4.74-5.9 7.9-8.21a11.25 11.25 0 0 0 3.84-4.33 5.76 5.76 0 0 0 -.36-5.63c-2.84-3.95-9.88-1.84-13.21-5.4-2.24-2.39-1.61-6.35.38-8.86a22.45 22.45 0 0 1 7.72-5.69c3.26-1.64 5.44-3.9 6.24-7 .87-3.36-3.26-5.71-.23-8.9 2.08-2.16 8.17-2.73 12.64-2.58a42.27 42.27 0 0 0 -31.65 10.58 2.42 2.42 0 0 1 -1.92-.73 4.74 4.74 0 0 1 -1-5.28c.42-.9.5-1.62.14-2-.84-.72-3.4.57-5.75 2.95s-3.68 4.94-2.91 5.71c.35.35 1.07.27 2-.14a4.74 4.74 0 0 1 5.28 1 2.41 2.41 0 0 1 .63 2 42.42 42.42 0 0 0 -4.54 6.2 41.83 41.83 0 0 0 -3.89 8.46 2.41 2.41 0 0 1 -2.13.44 4.73 4.73 0 0 1 -3.54-4.05c-.09-1-.38-1.65-.86-1.78-1.04-.28-2.59 2.12-3.46 5.37s-.72 6.12.34 6.4c.48.13 1.06-.3 1.64-1.11a4.75 4.75 0 0 1 5.1-1.74 2.41 2.41 0 0 1 1.6 1.41 42.13 42.13 0 0 0 0 16.89 2.43 2.43 0 0 1 -1.59 1.37h-.09a4.74 4.74 0 0 1 -5.1-1.74c-.48-.77-1.09-1.2-1.57-1.07-1.06.28-1.21 3.15-.34 6.4s2.43 5.66 3.49 5.37c.48-.13.77-.79.86-1.78a4.72 4.72 0 0 1 3.54-4.05h.11a2.39 2.39 0 0 1 2 .39 42.21 42.21 0 0 0 8.43 14.64 2.4 2.4 0 0 1 -.69 2l-.05.05a4.74 4.74 0 0 1 -5.28 1c-.9-.42-1.62-.5-2-.14-.77.77.53 3.33 2.91 5.71s4.94 3.68 5.71 2.91c.35-.35.27-1.07-.14-2a4.74 4.74 0 0 1 1-5.28 2.43 2.43 0 0 1 2.09-.68 41.82 41.82 0 0 0 14.47 8.37 2.43 2.43 0 0 1 .48 2.17 4.73 4.73 0 0 1 -4.05 3.54c-1 .09-1.65.38-1.78.86-.28 1.06 2.12 2.62 5.37 3.49s6.12.72 6.4-.34c.13-.48-.3-1.06-1.11-1.64a4.75 4.75 0 0 1 -1.74-5.1 2.42 2.42 0 0 1 1.44-1.62 42 42 0 0 0 16.83 0 2.46 2.46 0 0 1 1.41 1.6 4.74 4.74 0 0 1 -1.74 5.1c-.81.58-1.24 1.16-1.11 1.64.28 1.06 3.15 1.21 6.4.34s5.66-2.43 5.37-3.49c-.13-.48-.79-.77-1.78-.86a4.72 4.72 0 0 1 -4.05-3.54v-.06a2.41 2.41 0 0 1 .39-2.06 42.12 42.12 0 0 0 14.71-8.44 2.45 2.45 0 0 1 2 .69 4.74 4.74 0 0 1 1 5.28c-.42.9-.5 1.62-.14 2 .77.77 3.33-.53 5.71-2.91s3.68-4.94 2.91-5.71c-.19-.34-.94-.26-1.82.15zm-78.21-42.05c0 .06 0 .12-.05.17s.03-.11.05-.17zm0 21.83v.18s.01-.12-.01-.18zm10.89-40.69-.11.11a.57.57 0 0 1 .11-.11zm0 59.64.06.06zm18.77 10.88h.2zm21.83.1.2-.06z" fill="url(#b)"/><circle cx="50.82" cy="42.19" fill="none" r="42.03"/></svg>