<?xml version="1.0" encoding="utf-8"?>
<!-- Generator: Adobe Illustrator 24.1.2, SVG Export Plug-In . SVG Version: 6.00 Build 0)  -->
<svg version="1.1" id="Layer_1" xmlns="http://www.w3.org/2000/svg" xmlns:xlink="http://www.w3.org/1999/xlink" x="0px" y="0px"
	 viewBox="0 0 520.37 164.15" style="enable-background:new 0 0 520.37 164.15;" xml:space="preserve">
<style type="text/css">
	.st0{fill:#424143;}
	.st1{fill:url(#SVGID_1_);}
	.st2{fill:url(#SVGID_2_);}
	.st3{fill-rule:evenodd;clip-rule:evenodd;fill:none;}
	.st4{fill:url(#SVGID_3_);}
	.st5{fill:url(#SVGID_4_);}
	.st6{fill:url(#SVGID_5_);}
	.st7{fill:url(#SVGID_6_);}
	.st8{fill:none;}
</style>
<circle class="st3" cx="82.07" cy="82.32" r="42.03"/>
<g>
	<g>
		<path class="st0" d="M292.58,70.53c-1.17,0-2.22-0.26-3.13-0.78c-0.91-0.52-1.62-1.29-2.13-2.3c-0.51-1.01-0.76-2.25-0.76-3.7
			c0-1.43,0.27-2.65,0.8-3.66c0.53-1.01,1.3-1.79,2.29-2.34c0.99-0.55,2.16-0.82,3.51-0.82c1.49,0,2.7,0.27,3.62,0.81
			s1.63,1.4,2.14,2.57l-3.18,1.26c-0.17-0.68-0.48-1.17-0.92-1.48s-0.99-0.46-1.64-0.46s-1.21,0.16-1.68,0.47
			c-0.47,0.31-0.82,0.77-1.06,1.38c-0.24,0.61-0.36,1.36-0.36,2.25c0,0.93,0.12,1.71,0.37,2.34c0.25,0.63,0.61,1.09,1.1,1.39
			c0.49,0.3,1.09,0.45,1.81,0.45c0.39,0,0.74-0.05,1.06-0.14c0.32-0.09,0.6-0.23,0.84-0.41c0.24-0.18,0.43-0.41,0.56-0.68
			c0.13-0.27,0.2-0.6,0.2-0.97v-0.2H293v-2.3h5.94v7.12h-2.34l-0.26-3.1l0.56,0.48c-0.28,0.91-0.78,1.6-1.51,2.09
			C294.66,70.29,293.73,70.53,292.58,70.53z"/>
		<path class="st0" d="M307.88,57.13c1.57,0,2.8,0.37,3.67,1.11c0.87,0.74,1.31,1.72,1.31,2.95c0,1.35-0.43,2.37-1.3,3.08
			c-0.87,0.71-2.09,1.06-3.66,1.06l-0.32,0.18h-2.62v4.82h-3.38v-13.2H307.88z M307.4,63.07c0.67,0,1.17-0.13,1.5-0.4
			c0.33-0.27,0.5-0.69,0.5-1.28c0-0.57-0.17-0.99-0.5-1.26c-0.33-0.27-0.83-0.4-1.5-0.4h-2.44v3.34H307.4z M309.42,63.79l4.22,6.54
			h-3.8l-3.38-5.78L309.42,63.79z"/>
		<path class="st0" d="M321.14,56.93c1.33,0,2.48,0.27,3.45,0.81c0.97,0.54,1.71,1.32,2.23,2.33s0.78,2.23,0.78,3.66
			s-0.26,2.65-0.78,3.66c-0.52,1.01-1.26,1.79-2.23,2.33c-0.97,0.54-2.12,0.81-3.45,0.81c-1.33,0-2.49-0.27-3.46-0.81
			s-1.72-1.32-2.24-2.33c-0.52-1.01-0.78-2.23-0.78-3.66s0.26-2.65,0.78-3.66s1.27-1.79,2.24-2.33S319.81,56.93,321.14,56.93z
			 M321.14,59.63c-0.64,0-1.18,0.15-1.62,0.46c-0.44,0.31-0.77,0.76-1,1.37c-0.23,0.61-0.34,1.36-0.34,2.27
			c0,0.89,0.11,1.65,0.34,2.26s0.56,1.07,1,1.38c0.44,0.31,0.98,0.46,1.62,0.46c0.64,0,1.18-0.15,1.61-0.46
			c0.43-0.31,0.76-0.77,0.99-1.38c0.23-0.61,0.34-1.37,0.34-2.26c0-0.91-0.11-1.66-0.34-2.27c-0.23-0.61-0.56-1.06-0.99-1.37
			C322.32,59.79,321.78,59.63,321.14,59.63z"/>
		<path class="st0" d="M341.5,57.13v7.82c0,1.87-0.5,3.26-1.49,4.19c-0.99,0.93-2.46,1.39-4.41,1.39c-1.93,0-3.4-0.46-4.4-1.39
			c-1-0.93-1.5-2.32-1.5-4.19v-7.82h3.46v7.88c0,0.95,0.2,1.65,0.61,2.12s1.02,0.7,1.83,0.7c0.83,0,1.44-0.23,1.85-0.7
			c0.41-0.47,0.61-1.17,0.61-2.12v-7.88H341.5z"/>
		<path class="st0" d="M350.22,57.13c1.08,0,2,0.17,2.76,0.52c0.76,0.35,1.34,0.85,1.74,1.5s0.6,1.45,0.6,2.38s-0.2,1.73-0.6,2.38
			s-0.98,1.15-1.74,1.5c-0.76,0.35-1.68,0.52-2.76,0.52h-2.62v4.4h-3.44v-13.2H350.22z M349.68,63.35c0.72,0,1.26-0.15,1.63-0.45
			c0.37-0.3,0.55-0.76,0.55-1.37s-0.18-1.07-0.55-1.37s-0.91-0.45-1.63-0.45h-2.08v3.64H349.68z"/>
		<path class="st0" d="M357.52,70.33v-13.2h10.28v2.66h-6.84v2.68h5.44v2.5h-5.44v2.7h7.1v2.66H357.52z"/>
		<path class="st0" d="M381.46,57.13c2.07,0,3.65,0.57,4.75,1.72c1.1,1.15,1.65,2.77,1.65,4.88c0,2.11-0.55,3.73-1.65,4.88
			s-2.68,1.72-4.75,1.72h-5.6v-13.2H381.46z M381.12,67.73c1.12,0,1.94-0.34,2.45-1.01c0.51-0.67,0.77-1.67,0.77-2.99
			c0-1.32-0.26-2.32-0.77-2.99s-1.33-1.01-2.45-1.01h-1.82v8H381.12z"/>
		<path class="st0" d="M390.22,70.33v-13.2h10.28v2.66h-6.84v2.68h5.44v2.5h-5.44v2.7h7.1v2.66H390.22z"/>
		<path class="st0" d="M419.32,57.13v2.66h-4.3v10.54h-3.44V59.79h-4.32v-2.66H419.32z"/>
		<path class="st0" d="M427.58,57.13c1.57,0,2.8,0.37,3.67,1.11c0.87,0.74,1.31,1.72,1.31,2.95c0,1.35-0.43,2.37-1.3,3.08
			c-0.87,0.71-2.09,1.06-3.66,1.06l-0.32,0.18h-2.62v4.82h-3.38v-13.2H427.58z M427.1,63.07c0.67,0,1.17-0.13,1.5-0.4
			c0.33-0.27,0.5-0.69,0.5-1.28c0-0.57-0.17-0.99-0.5-1.26c-0.33-0.27-0.83-0.4-1.5-0.4h-2.44v3.34H427.1z M429.12,63.79l4.22,6.54
			h-3.8l-3.38-5.78L429.12,63.79z"/>
		<path class="st0" d="M433.68,70.33l4.64-13.2h4.12l4.62,13.2h-3.54l-2.58-8.48l-0.58-2.08h-0.04l-0.54,2.06l-2.64,8.5H433.68z
			 M436.7,67.35v-2.34h7.34v2.34H436.7z"/>
		<path class="st0" d="M459.24,57.13l-4.68,13.2h-4.04l-4.7-13.2h3.62l2.42,7.98l0.72,2.6l0.7-2.56l2.46-8.02H459.24z"/>
		<path class="st0" d="M458,70.33l4.64-13.2h4.12l4.62,13.2h-3.54l-2.58-8.48l-0.58-2.08h-0.04l-0.54,2.06l-2.64,8.5H458z
			 M461.02,67.35v-2.34h7.34v2.34H461.02z"/>
		<path class="st0" d="M476.36,57.13v13.2h-3.44v-13.2H476.36z"/>
		<path class="st0" d="M482.72,67.67h6.62v2.66h-10.06v-13.2h3.44V67.67z"/>
		<path class="st0" d="M292.28,75.93c1.23,0,2.31,0.19,3.25,0.57s1.76,0.94,2.45,1.67l-1.66,2.22c-0.57-0.6-1.19-1.05-1.85-1.35
			s-1.41-0.45-2.25-0.45c-0.49,0-0.89,0.05-1.2,0.16c-0.31,0.11-0.53,0.25-0.66,0.44c-0.13,0.19-0.2,0.4-0.2,0.64
			c0,0.28,0.13,0.52,0.39,0.71c0.26,0.19,0.68,0.36,1.27,0.49l2.22,0.5c1.32,0.31,2.29,0.75,2.9,1.34s0.92,1.37,0.92,2.34
			c0,0.93-0.24,1.72-0.72,2.37s-1.14,1.13-1.98,1.46s-1.8,0.49-2.88,0.49c-0.88,0-1.72-0.1-2.52-0.29c-0.8-0.19-1.52-0.47-2.16-0.83
			s-1.18-0.77-1.62-1.24l1.66-2.3c0.33,0.39,0.74,0.73,1.23,1.03c0.49,0.3,1.02,0.54,1.6,0.71c0.58,0.17,1.17,0.26,1.77,0.26
			c0.45,0,0.83-0.05,1.14-0.14c0.31-0.09,0.54-0.23,0.7-0.41c0.16-0.18,0.24-0.4,0.24-0.65c0.01-0.28-0.08-0.52-0.29-0.72
			c-0.21-0.2-0.59-0.37-1.15-0.5l-2.44-0.54c-0.75-0.17-1.41-0.4-1.99-0.69c-0.58-0.29-1.04-0.67-1.37-1.16
			c-0.33-0.49-0.5-1.1-0.5-1.83c0-0.83,0.23-1.56,0.68-2.21c0.45-0.65,1.11-1.16,1.96-1.53C290.07,76.12,291.09,75.93,292.28,75.93z
			"/>
		<path class="st0" d="M311.56,76.13v7.82c0,1.87-0.5,3.26-1.49,4.19c-0.99,0.93-2.46,1.39-4.41,1.39c-1.93,0-3.4-0.46-4.4-1.39
			c-1-0.93-1.5-2.32-1.5-4.19v-7.82h3.46v7.88c0,0.95,0.2,1.65,0.61,2.12s1.02,0.7,1.83,0.7c0.83,0,1.44-0.23,1.85-0.7
			c0.41-0.47,0.61-1.17,0.61-2.12v-7.88H311.56z"/>
		<path class="st0" d="M320.52,76.13c1.57,0,2.8,0.37,3.67,1.11c0.87,0.74,1.31,1.72,1.31,2.95c0,1.35-0.43,2.37-1.3,3.08
			c-0.87,0.71-2.09,1.06-3.66,1.06l-0.32,0.18h-2.62v4.82h-3.38v-13.2H320.52z M320.04,82.07c0.67,0,1.17-0.13,1.5-0.4
			c0.33-0.27,0.5-0.69,0.5-1.28c0-0.57-0.17-0.99-0.5-1.26c-0.33-0.27-0.83-0.4-1.5-0.4h-2.44v3.34H320.04z M322.06,82.79l4.22,6.54
			h-3.8l-3.38-5.78L322.06,82.79z"/>
		<path class="st0" d="M337.16,86.67h6.62v2.66h-10.06v-13.2h3.44V86.67z"/>
		<path class="st0" d="M344.36,75.53c0.49,0,0.9,0.11,1.22,0.34c0.32,0.23,0.56,0.52,0.71,0.89c0.15,0.37,0.23,0.78,0.23,1.23
			c0,0.6-0.13,1.18-0.39,1.73c-0.26,0.55-0.6,1.04-1.02,1.46s-0.88,0.74-1.37,0.95l-1.38-1.02c0.37-0.15,0.72-0.33,1.03-0.56
			c0.31-0.23,0.59-0.47,0.82-0.74c0.23-0.27,0.41-0.54,0.53-0.82l-0.1-0.06c-0.07,0.05-0.15,0.09-0.26,0.12
			c-0.11,0.03-0.25,0.04-0.42,0.04c-0.24,0-0.48-0.06-0.73-0.18c-0.25-0.12-0.45-0.3-0.62-0.54c-0.17-0.24-0.25-0.55-0.25-0.92
			c0-0.43,0.09-0.78,0.28-1.06c0.19-0.28,0.43-0.49,0.74-0.64C343.69,75.61,344.01,75.53,344.36,75.53z"/>
		<path class="st0" d="M352.14,76.13v13.2h-3.44v-13.2H352.14z"/>
		<path class="st0" d="M370.34,76.13v13.2h-3.04v-6.06l0.1-4.06h-0.04l-3.26,10.12h-2.78l-3.26-10.12h-0.04l0.1,4.06v6.06h-3.06
			v-13.2h4.9l2.08,6.72l0.74,2.8h0.04l0.76-2.78l2.06-6.74H370.34z"/>
		<path class="st0" d="M388.54,76.13v13.2h-3.04v-6.06l0.1-4.06h-0.04l-3.26,10.12h-2.78l-3.26-10.12h-0.04l0.1,4.06v6.06h-3.06
			v-13.2h4.9l2.08,6.72l0.74,2.8h0.04l0.76-2.78l2.06-6.74H388.54z"/>
		<path class="st0" d="M403,76.13v7.82c0,1.87-0.5,3.26-1.49,4.19c-0.99,0.93-2.46,1.39-4.41,1.39c-1.93,0-3.4-0.46-4.4-1.39
			c-1-0.93-1.5-2.32-1.5-4.19v-7.82h3.46v7.88c0,0.95,0.2,1.65,0.61,2.12s1.02,0.7,1.83,0.7c0.83,0,1.44-0.23,1.85-0.7
			c0.41-0.47,0.61-1.17,0.61-2.12v-7.88H403z"/>
		<path class="st0" d="M417.56,76.13v13.2h-3.82l-4.1-7.14l-1-1.96h-0.02l0.08,2.44v6.66h-3.04v-13.2h3.82l4.1,7.14l1,1.96h0.02
			l-0.08-2.44v-6.66H417.56z"/>
		<path class="st0" d="M423.92,76.13v13.2h-3.44v-13.2H423.92z"/>
		<path class="st0" d="M437.94,76.13v2.66h-4.3v10.54h-3.44V78.79h-4.32v-2.66H437.94z"/>
		<path class="st0" d="M439.9,89.33v-13.2h10.28v2.66h-6.84v2.68h5.44v2.5h-5.44v2.7h7.1v2.66H439.9z M444.7,71.61h3.04l-1.78,3.26
			h-2.48L444.7,71.61z"/>
		<path class="st0" d="M297.38,97.79h-6.82v2.8H296v2.66h-5.44v5.08h-3.44v-13.2h10.26V97.79z"/>
		<path class="st0" d="M296.7,108.33l4.64-13.2h4.12l4.62,13.2h-3.54l-2.58-8.48l-0.58-2.08h-0.04l-0.54,2.06l-2.64,8.5H296.7z
			 M299.72,105.35v-2.34h7.34v2.34H299.72z"/>
		<path class="st0" d="M322.84,104.55c-0.25,0.92-0.66,1.68-1.22,2.27c-0.56,0.59-1.23,1.03-2,1.3c-0.77,0.27-1.63,0.41-2.56,0.41
			c-1.33,0-2.49-0.27-3.46-0.81s-1.72-1.32-2.24-2.33c-0.52-1.01-0.78-2.23-0.78-3.66s0.26-2.65,0.78-3.66s1.27-1.79,2.24-2.33
			s2.12-0.81,3.44-0.81c0.92,0,1.77,0.13,2.54,0.39s1.43,0.66,1.96,1.19c0.53,0.53,0.91,1.22,1.14,2.06l-3.02,1.22
			c-0.19-0.83-0.49-1.39-0.91-1.7c-0.42-0.31-0.95-0.46-1.59-0.46c-0.63,0-1.17,0.15-1.63,0.46s-0.81,0.76-1.06,1.37
			c-0.25,0.61-0.37,1.36-0.37,2.27c0,0.89,0.11,1.65,0.34,2.26s0.57,1.07,1.03,1.38s1.03,0.46,1.71,0.46c0.64,0,1.18-0.18,1.63-0.53
			c0.45-0.35,0.75-0.9,0.91-1.63L322.84,104.55z"/>
		<path class="st0" d="M324.76,108.33v-13.2h10.28v2.66h-6.84v2.68h5.44v2.5h-5.44v2.7h7.1v2.66H324.76z"/>
		<path class="st0" d="M341.28,108.33l4.64-13.2h4.12l4.62,13.2h-3.54l-2.58-8.48l-0.58-2.08h-0.04l-0.54,2.06l-2.64,8.5H341.28z
			 M344.3,105.35v-2.34h7.34v2.34H344.3z M348.14,90.61l1.22,3.26h-2.48l-1.78-3.26H348.14z"/>
		<path class="st0" d="M364.92,105.67h6.62v2.66h-10.06v-13.2h3.44V105.67z"/>
		<path class="st0" d="M372.14,108.33l4.64-13.2h4.12l4.62,13.2h-3.54l-2.58-8.48l-0.58-2.08h-0.04l-0.54,2.06l-2.64,8.5H372.14z
			 M375.16,105.35v-2.34h7.34v2.34H375.16z"/>
		<path class="st0" d="M404.04,104.55c-0.25,0.92-0.66,1.68-1.22,2.27c-0.56,0.59-1.23,1.03-2,1.3c-0.77,0.27-1.63,0.41-2.56,0.41
			c-1.33,0-2.49-0.27-3.46-0.81s-1.72-1.32-2.24-2.33c-0.52-1.01-0.78-2.23-0.78-3.66s0.26-2.65,0.78-3.66s1.27-1.79,2.24-2.33
			s2.12-0.81,3.44-0.81c0.92,0,1.77,0.13,2.54,0.39s1.43,0.66,1.96,1.19c0.53,0.53,0.91,1.22,1.14,2.06l-3.02,1.22
			c-0.19-0.83-0.49-1.39-0.91-1.7c-0.42-0.31-0.95-0.46-1.59-0.46c-0.63,0-1.17,0.15-1.63,0.46s-0.81,0.76-1.06,1.37
			c-0.25,0.61-0.37,1.36-0.37,2.27c0,0.89,0.11,1.65,0.34,2.26s0.57,1.07,1.03,1.38s1.03,0.46,1.71,0.46c0.64,0,1.18-0.18,1.63-0.53
			c0.45-0.35,0.75-0.9,0.91-1.63L404.04,104.55z"/>
		<path class="st0" d="M411.88,94.93c1.33,0,2.48,0.27,3.45,0.81c0.97,0.54,1.71,1.32,2.23,2.33s0.78,2.23,0.78,3.66
			s-0.26,2.65-0.78,3.66c-0.52,1.01-1.26,1.79-2.23,2.33c-0.97,0.54-2.12,0.81-3.45,0.81c-1.33,0-2.49-0.27-3.46-0.81
			s-1.72-1.32-2.24-2.33c-0.52-1.01-0.78-2.23-0.78-3.66s0.26-2.65,0.78-3.66s1.27-1.79,2.24-2.33S410.55,94.93,411.88,94.93z
			 M411.88,97.63c-0.64,0-1.18,0.15-1.62,0.46c-0.44,0.31-0.77,0.76-1,1.37c-0.23,0.61-0.34,1.36-0.34,2.27
			c0,0.89,0.11,1.65,0.34,2.26s0.56,1.07,1,1.38c0.44,0.31,0.98,0.46,1.62,0.46c0.64,0,1.18-0.15,1.61-0.46
			c0.43-0.31,0.76-0.77,0.99-1.38c0.23-0.61,0.34-1.37,0.34-2.26c0-0.91-0.11-1.66-0.34-2.27c-0.23-0.61-0.56-1.06-0.99-1.37
			C413.06,97.79,412.52,97.63,411.88,97.63z"/>
		<path class="st0" d="M432.42,95.13l-4.68,13.2h-4.04l-4.7-13.2h3.62l2.42,7.98l0.72,2.6l0.7-2.56l2.46-8.02H432.42z"/>
		<path class="st0" d="M437.44,95.13v13.2H434v-13.2H437.44z"/>
		<path class="st0" d="M445.96,95.13c2.07,0,3.65,0.57,4.75,1.72c1.1,1.15,1.65,2.77,1.65,4.88c0,2.11-0.55,3.73-1.65,4.88
			s-2.68,1.72-4.75,1.72h-5.6v-13.2H445.96z M445.62,105.73c1.12,0,1.94-0.34,2.45-1.01c0.51-0.67,0.77-1.67,0.77-2.99
			c0-1.32-0.26-2.32-0.77-2.99s-1.33-1.01-2.45-1.01h-1.82v8H445.62z"/>
		<path class="st0" d="M461.7,100.29v2.78h-7.32v-2.78H461.7z"/>
		<path class="st0" d="M466.64,108.33v-7.6c0-0.35,0-0.7,0.01-1.07c0.01-0.37,0.01-0.74,0.01-1.13c-0.44,0.4-0.93,0.75-1.46,1.05
			s-1.09,0.5-1.68,0.61l-0.32-2.84c0.35-0.03,0.72-0.11,1.11-0.26c0.39-0.15,0.78-0.33,1.17-0.54c0.39-0.21,0.73-0.44,1.04-0.69
			c0.31-0.25,0.54-0.49,0.7-0.73h2.74v13.2H466.64z"/>
		<path class="st0" d="M477.3,94.93c1.21,0,2.23,0.26,3.05,0.77c0.82,0.51,1.44,1.27,1.85,2.27c0.41,1,0.62,2.24,0.62,3.72
			c0,1.6-0.24,2.9-0.71,3.91c-0.47,1.01-1.12,1.75-1.95,2.22c-0.83,0.47-1.78,0.71-2.86,0.71c-1.15,0-2.14-0.23-2.99-0.69
			c-0.85-0.46-1.48-1.19-1.89-2.19l3.08-1.22c0.11,0.47,0.31,0.83,0.61,1.1c0.3,0.27,0.72,0.4,1.25,0.4c0.41,0,0.77-0.08,1.08-0.25
			c0.31-0.17,0.56-0.41,0.75-0.73s0.34-0.71,0.43-1.17c0.09-0.46,0.14-0.99,0.14-1.59c0-0.05,0-0.1,0-0.15s0-0.1,0-0.17h-0.06
			c-0.12,0.29-0.29,0.55-0.5,0.77c-0.21,0.22-0.46,0.4-0.75,0.55s-0.6,0.25-0.93,0.32c-0.33,0.07-0.67,0.1-1,0.1
			c-0.84,0-1.58-0.17-2.23-0.51c-0.65-0.34-1.15-0.83-1.51-1.46c-0.36-0.63-0.53-1.37-0.52-2.21c0-0.93,0.21-1.74,0.64-2.41
			c0.43-0.67,1.02-1.19,1.77-1.55C475.42,95.11,476.3,94.93,477.3,94.93z M477.3,97.57c-0.57,0-1.03,0.16-1.36,0.47
			c-0.33,0.31-0.51,0.75-0.52,1.31c-0.01,0.55,0.15,0.98,0.5,1.29c0.35,0.31,0.81,0.47,1.38,0.47c0.36,0,0.68-0.07,0.97-0.22
			c0.29-0.15,0.51-0.35,0.67-0.61s0.24-0.57,0.24-0.93c0-0.37-0.08-0.69-0.24-0.95c-0.16-0.26-0.38-0.46-0.67-0.61
			C477.98,97.65,477.66,97.57,477.3,97.57z"/>
	</g>
</g>
<g>
	<g>
		<path class="st0" d="M156.95,66.46c-0.25,0.92-0.66,1.68-1.22,2.27c-0.56,0.59-1.23,1.03-2,1.3c-0.77,0.27-1.63,0.41-2.56,0.41
			c-1.33,0-2.49-0.27-3.46-0.81s-1.72-1.32-2.24-2.33c-0.52-1.01-0.78-2.23-0.78-3.66c0-1.43,0.26-2.65,0.78-3.66
			s1.27-1.79,2.24-2.33s2.12-0.81,3.44-0.81c0.92,0,1.77,0.13,2.54,0.39s1.43,0.66,1.96,1.19c0.53,0.53,0.91,1.22,1.14,2.06
			l-3.02,1.22c-0.19-0.83-0.49-1.39-0.91-1.7c-0.42-0.31-0.95-0.46-1.59-0.46c-0.63,0-1.17,0.15-1.63,0.46s-0.81,0.76-1.06,1.37
			c-0.25,0.61-0.37,1.36-0.37,2.27c0,0.89,0.11,1.65,0.34,2.26s0.57,1.07,1.03,1.38s1.03,0.46,1.71,0.46c0.64,0,1.18-0.18,1.63-0.53
			c0.45-0.35,0.75-0.9,0.91-1.63L156.95,66.46z"/>
		<path class="st0" d="M164.79,56.84c1.33,0,2.48,0.27,3.45,0.81c0.97,0.54,1.71,1.32,2.23,2.33s0.78,2.23,0.78,3.66
			c0,1.43-0.26,2.65-0.78,3.66c-0.52,1.01-1.26,1.79-2.23,2.33c-0.97,0.54-2.12,0.81-3.45,0.81c-1.33,0-2.49-0.27-3.46-0.81
			s-1.72-1.32-2.24-2.33c-0.52-1.01-0.78-2.23-0.78-3.66c0-1.43,0.26-2.65,0.78-3.66s1.27-1.79,2.24-2.33S163.46,56.84,164.79,56.84
			z M164.79,59.54c-0.64,0-1.18,0.15-1.62,0.46c-0.44,0.31-0.77,0.76-1,1.37c-0.23,0.61-0.34,1.36-0.34,2.27
			c0,0.89,0.11,1.65,0.34,2.26s0.56,1.07,1,1.38c0.44,0.31,0.98,0.46,1.62,0.46c0.64,0,1.18-0.15,1.61-0.46
			c0.43-0.31,0.76-0.77,0.99-1.38c0.23-0.61,0.34-1.37,0.34-2.26c0-0.91-0.11-1.66-0.34-2.27c-0.23-0.61-0.56-1.06-0.99-1.37
			C165.97,59.69,165.43,59.54,164.79,59.54z"/>
		<path class="st0" d="M185.33,57.04l-4.68,13.2h-4.04l-4.7-13.2h3.62l2.42,7.98l0.72,2.6l0.7-2.56l2.46-8.02H185.33z"/>
		<path class="st0" d="M190.35,57.04v13.2h-3.44v-13.2H190.35z"/>
		<path class="st0" d="M198.87,57.04c2.07,0,3.65,0.57,4.75,1.72c1.1,1.15,1.65,2.77,1.65,4.88c0,2.11-0.55,3.73-1.65,4.88
			s-2.68,1.72-4.75,1.72h-5.6v-13.2H198.87z M198.53,67.64c1.12,0,1.94-0.34,2.45-1.01c0.51-0.67,0.77-1.67,0.77-2.99
			c0-1.32-0.26-2.32-0.77-2.99s-1.33-1.01-2.45-1.01h-1.82v8H198.53z"/>
		<path class="st0" d="M215.11,62.2v2.78h-7.32V62.2H215.11z"/>
		<path class="st0" d="M219.75,70.24v-7.6c0-0.35,0-0.7,0.01-1.07c0.01-0.37,0.01-0.74,0.01-1.13c-0.44,0.4-0.93,0.75-1.46,1.05
			s-1.09,0.5-1.68,0.61l-0.32-2.84c0.35-0.03,0.72-0.11,1.11-0.26c0.39-0.15,0.78-0.33,1.17-0.54c0.39-0.21,0.73-0.44,1.04-0.69
			c0.31-0.25,0.54-0.49,0.7-0.73h2.74v13.2H219.75z"/>
		<path class="st0" d="M230.41,56.84c1.21,0,2.23,0.26,3.05,0.77c0.82,0.51,1.44,1.27,1.85,2.27c0.41,1,0.62,2.24,0.62,3.72
			c0,1.6-0.24,2.9-0.71,3.91c-0.47,1.01-1.12,1.75-1.95,2.22c-0.83,0.47-1.78,0.71-2.86,0.71c-1.15,0-2.14-0.23-2.99-0.69
			c-0.85-0.46-1.48-1.19-1.89-2.19l3.08-1.22c0.11,0.47,0.31,0.83,0.61,1.1c0.3,0.27,0.72,0.4,1.25,0.4c0.41,0,0.77-0.08,1.08-0.25
			c0.31-0.17,0.56-0.41,0.75-0.73s0.34-0.71,0.43-1.17c0.09-0.46,0.14-0.99,0.14-1.59c0-0.05,0-0.1,0-0.15s0-0.1,0-0.17h-0.06
			c-0.12,0.29-0.29,0.55-0.5,0.77c-0.21,0.22-0.46,0.4-0.75,0.55s-0.6,0.25-0.93,0.32c-0.33,0.07-0.67,0.1-1,0.1
			c-0.84,0-1.58-0.17-2.23-0.51c-0.65-0.34-1.15-0.83-1.51-1.46c-0.36-0.63-0.53-1.37-0.52-2.21c0-0.93,0.21-1.74,0.64-2.41
			c0.43-0.67,1.02-1.19,1.77-1.55C228.53,57.02,229.41,56.84,230.41,56.84z M230.41,59.48c-0.57,0-1.03,0.16-1.36,0.47
			c-0.33,0.31-0.51,0.75-0.52,1.31c-0.01,0.55,0.15,0.98,0.5,1.29c0.35,0.31,0.81,0.47,1.38,0.47c0.36,0,0.68-0.07,0.97-0.22
			c0.29-0.15,0.51-0.35,0.67-0.61s0.24-0.57,0.24-0.93c0-0.37-0.08-0.69-0.24-0.95c-0.16-0.26-0.38-0.46-0.67-0.61
			C231.09,59.55,230.77,59.48,230.41,59.48z"/>
		<path class="st0" d="M148.69,76.04v13.2h-3.44v-13.2H148.69z"/>
		<path class="st0" d="M166.89,76.04v13.2h-3.04v-6.06l0.1-4.06h-0.04l-3.26,10.12h-2.78l-3.26-10.12h-0.04l0.1,4.06v6.06h-3.06
			v-13.2h4.9l2.08,6.72l0.74,2.8h0.04l0.76-2.78l2.06-6.74H166.89z"/>
		<path class="st0" d="M185.09,76.04v13.2h-3.04v-6.06l0.1-4.06h-0.04l-3.26,10.12h-2.78l-3.26-10.12h-0.04l0.1,4.06v6.06h-3.06
			v-13.2h4.9l2.08,6.72l0.74,2.8h0.04l0.76-2.78l2.06-6.74H185.09z"/>
		<path class="st0" d="M199.55,76.04v7.82c0,1.87-0.5,3.26-1.49,4.19c-0.99,0.93-2.46,1.39-4.41,1.39c-1.93,0-3.4-0.46-4.4-1.39
			c-1-0.93-1.5-2.32-1.5-4.19v-7.82h3.46v7.88c0,0.95,0.2,1.65,0.61,2.12s1.02,0.7,1.83,0.7c0.83,0,1.44-0.23,1.85-0.7
			c0.41-0.47,0.61-1.17,0.61-2.12v-7.88H199.55z"/>
		<path class="st0" d="M214.11,76.04v13.2h-3.82l-4.1-7.14l-1-1.96h-0.02l0.08,2.44v6.66h-3.04v-13.2h3.82l4.1,7.14l1,1.96h0.02
			l-0.08-2.44v-6.66H214.11z"/>
		<path class="st0" d="M220.47,76.04v13.2h-3.44v-13.2H220.47z"/>
		<path class="st0" d="M234.49,76.04v2.66h-4.3v10.54h-3.44V78.7h-4.32v-2.66H234.49z"/>
		<path class="st0" d="M247.57,76.04l-4.66,8.38v4.82h-3.44v-4.82l-4.66-8.38h3.56l1.86,3.62l0.98,2.2l1-2.2l1.86-3.62H247.57z"/>
		<path class="st0" d="M156.35,95.04v2.66h-4.3v10.54h-3.44V97.7h-4.32v-2.66H156.35z"/>
		<path class="st0" d="M155.27,108.24l4.64-13.2h4.12l4.62,13.2h-3.54l-2.58-8.48l-0.58-2.08h-0.04l-0.54,2.06l-2.64,8.5H155.27z
			 M158.29,105.26v-2.34h7.34v2.34H158.29z"/>
		<path class="st0" d="M175.29,94.84c1.23,0,2.31,0.19,3.25,0.57s1.76,0.94,2.45,1.67l-1.66,2.22c-0.57-0.6-1.19-1.05-1.85-1.35
			s-1.41-0.45-2.25-0.45c-0.49,0-0.89,0.05-1.2,0.16c-0.31,0.11-0.53,0.25-0.66,0.44c-0.13,0.19-0.2,0.4-0.2,0.64
			c0,0.28,0.13,0.52,0.39,0.71c0.26,0.19,0.68,0.36,1.27,0.49l2.22,0.5c1.32,0.31,2.29,0.75,2.9,1.34s0.92,1.37,0.92,2.34
			c0,0.93-0.24,1.72-0.72,2.37s-1.14,1.13-1.98,1.46s-1.8,0.49-2.88,0.49c-0.88,0-1.72-0.1-2.52-0.29c-0.8-0.19-1.52-0.47-2.16-0.83
			s-1.18-0.77-1.62-1.24l1.66-2.3c0.33,0.39,0.74,0.73,1.23,1.03c0.49,0.3,1.02,0.54,1.6,0.71c0.58,0.17,1.17,0.26,1.77,0.26
			c0.45,0,0.83-0.05,1.14-0.14c0.31-0.09,0.54-0.23,0.7-0.41c0.16-0.18,0.24-0.4,0.24-0.65c0.01-0.28-0.08-0.52-0.29-0.72
			c-0.21-0.2-0.59-0.37-1.15-0.5l-2.44-0.54c-0.75-0.17-1.41-0.4-1.99-0.69c-0.58-0.29-1.04-0.67-1.37-1.16
			c-0.33-0.49-0.5-1.1-0.5-1.83c0-0.83,0.23-1.56,0.68-2.21c0.45-0.65,1.11-1.16,1.96-1.53C173.08,95.02,174.1,94.84,175.29,94.84z"
			/>
		<path class="st0" d="M186.47,95.04v13.2h-3.44v-13.2H186.47z M195.01,95.04l-6.2,7.42l-0.22-0.52l-3.14,3.82l-0.66-2.78l6.4-7.94
			H195.01z M189.93,99.4l5.32,8.84h-3.9l-4-6.92L189.93,99.4z"/>
		<path class="st0" d="M212.77,97.7h-6.82v2.8h5.44v2.66h-5.44v5.08h-3.44v-13.2h10.26V97.7z"/>
		<path class="st0" d="M220.57,94.84c1.33,0,2.48,0.27,3.45,0.81c0.97,0.54,1.71,1.32,2.23,2.33s0.78,2.23,0.78,3.66
			s-0.26,2.65-0.78,3.66c-0.52,1.01-1.26,1.79-2.23,2.33c-0.97,0.54-2.12,0.81-3.45,0.81c-1.33,0-2.49-0.27-3.46-0.81
			s-1.72-1.32-2.24-2.33c-0.52-1.01-0.78-2.23-0.78-3.66s0.26-2.65,0.78-3.66s1.27-1.79,2.24-2.33S219.24,94.84,220.57,94.84z
			 M220.57,97.54c-0.64,0-1.18,0.15-1.62,0.46c-0.44,0.31-0.77,0.76-1,1.37c-0.23,0.61-0.34,1.36-0.34,2.27
			c0,0.89,0.11,1.65,0.34,2.26s0.56,1.07,1,1.38c0.44,0.31,0.98,0.46,1.62,0.46c0.64,0,1.18-0.15,1.61-0.46
			c0.43-0.31,0.76-0.77,0.99-1.38c0.23-0.61,0.34-1.37,0.34-2.26c0-0.91-0.11-1.66-0.34-2.27c-0.23-0.61-0.56-1.06-0.99-1.37
			C221.75,97.69,221.21,97.54,220.57,97.54z"/>
		<path class="st0" d="M235.69,95.04c1.57,0,2.8,0.37,3.67,1.11c0.87,0.74,1.31,1.72,1.31,2.95c0,1.35-0.43,2.37-1.3,3.08
			c-0.87,0.71-2.09,1.06-3.66,1.06l-0.32,0.18h-2.62v4.82h-3.38v-13.2H235.69z M235.21,100.98c0.67,0,1.17-0.13,1.5-0.4
			c0.33-0.27,0.5-0.69,0.5-1.28c0-0.57-0.17-0.99-0.5-1.26c-0.33-0.27-0.83-0.4-1.5-0.4h-2.44v3.34H235.21z M237.23,101.7l4.22,6.54
			h-3.8l-3.38-5.78L237.23,101.7z"/>
		<path class="st0" d="M254.73,104.46c-0.25,0.92-0.66,1.68-1.22,2.27c-0.56,0.59-1.23,1.03-2,1.3c-0.77,0.27-1.63,0.41-2.56,0.41
			c-1.33,0-2.49-0.27-3.46-0.81s-1.72-1.32-2.24-2.33c-0.52-1.01-0.78-2.23-0.78-3.66s0.26-2.65,0.78-3.66s1.27-1.79,2.24-2.33
			s2.12-0.81,3.44-0.81c0.92,0,1.77,0.13,2.54,0.39s1.43,0.66,1.96,1.19c0.53,0.53,0.91,1.22,1.14,2.06l-3.02,1.22
			c-0.19-0.83-0.49-1.39-0.91-1.7c-0.42-0.31-0.95-0.46-1.59-0.46c-0.63,0-1.17,0.15-1.63,0.46s-0.81,0.76-1.06,1.37
			c-0.25,0.61-0.37,1.36-0.37,2.27c0,0.89,0.11,1.65,0.34,2.26s0.57,1.07,1.03,1.38s1.03,0.46,1.71,0.46c0.64,0,1.18-0.18,1.63-0.53
			c0.45-0.35,0.75-0.9,0.91-1.63L254.73,104.46z"/>
		<path class="st0" d="M256.65,108.24v-13.2h10.28v2.66h-6.84v2.68h5.44v2.5h-5.44v2.7h7.1v2.66H256.65z"/>
	</g>
</g>
<g>
	
		<radialGradient id="SVGID_1_" cx="505.0378" cy="392.9285" r="68.9276" gradientTransform="matrix(0.7071 -0.7071 0.7071 0.7071 -582.7932 171.69)" gradientUnits="userSpaceOnUse">
		<stop  offset="0" style="stop-color:#3BAEC0"/>
		<stop  offset="1" style="stop-color:#96D6DD"/>
	</radialGradient>
	<path class="st1" d="M93.04,41.59c7.11,2.14,11.55,6.33,12.95,9.43c1.63,3.61,1.46,8.22-1.13,11.26c-2.21,2.59-5.78,3.66-9.16,3.63
		c-3.38-0.02-6.66-1-9.92-1.86c-12.73-3.37-18.2-0.02-21.06,5.28c-1.86,3.45-1.89,8.67,2.42,12.5c2.85,2.53,6.66,2.66,9.99,4.84
		c2.39,1.55,2.67,3.61,2.77,5.48c0.1,1.87-0.09,3.78,0.39,5.59c0.95,3.57,4.56,6.08,8.25,6.27c3.69,0.19,7.3-1.66,9.78-4.39
		c2.48-2.73,3.94-6.27,4.76-9.87c0.82-3.6,1.04-7.31,1.34-10.99c0.24-2.94,0.55-5.93,1.8-8.6c1.24-2.67,3.61-5,6.52-5.42
		c3.54-0.51,9.31,1.88,10.85,10.52c0.01,0.03,0.01,0.05,0.01,0.08c1.62,9.59-0.06,19.78-5.47,28.77
		c-12.02,19.96-37.95,26.39-57.91,14.36c-19.96-12.03-26.39-37.95-14.36-57.91C55.82,44.03,75.3,36.78,93.04,41.59z"/>
	<radialGradient id="SVGID_2_" cx="56.8754" cy="109.2219" r="65.5258" gradientUnits="userSpaceOnUse">
		<stop  offset="0" style="stop-color:#EB2027"/>
		<stop  offset="1" style="stop-color:#A11D26"/>
	</radialGradient>
	<path class="st2" d="M119.47,113.42c-1.78,0.82-3.9,0.34-5.28-1.04l-0.02-0.02c-0.53-0.53-0.75-1.25-0.69-1.95c0,0,0,0,0,0
		c1.71-1.92,3.28-4.02,4.66-6.31c5.86-9.73,7.34-20.88,5-31.14c2.45,14.71-8.49,30.34-21.32,31.27c-1.93,0.14-3.97-0.5-5.28-1.92
		c-1.42-1.54-1.78-3.78-1.7-5.88c0.08-2.09,0.53-4.17,0.47-6.26c-0.06-2.09-0.74-4.32-2.44-5.55c-1.35-0.98-3.17-1.17-4.79-0.75
		c-1.62,0.42-3.05,1.39-4.25,2.55c-2.55,2.44-4.17,5.66-5.98,8.69c-1.8,3.03-3.96,6.05-7.1,7.65c-4.73,2.42-11.1,0.2-10.12-5.88
		c0.62-3.87,4.74-5.9,7.9-8.21c1.58-1.15,3.05-2.55,3.84-4.33c0.79-1.78,0.81-4.01-0.36-5.63c-2.84-3.95-9.88-1.84-13.21-5.4
		c-2.24-2.39-1.61-6.35,0.38-8.86c1.99-2.51,4.84-4.24,7.72-5.69c3.26-1.64,5.44-3.9,6.24-7c0.87-3.36-3.26-5.71-0.23-8.9
		c2.06-2.16,8.15-2.78,12.62-2.58c-11.45-0.96-22.96,2.81-31.65,10.58c0,0,0,0,0,0c-0.69,0.06-1.39-0.17-1.92-0.69l-0.03-0.03
		c-1.38-1.38-1.86-3.5-1.04-5.28c0.42-0.9,0.5-1.62,0.14-1.97c-0.77-0.77-3.33,0.53-5.71,2.91c-2.38,2.38-3.68,4.94-2.91,5.71
		c0.35,0.35,1.07,0.27,1.98-0.14c1.78-0.82,3.9-0.34,5.28,1.04l0.03,0.03c0.53,0.53,0.75,1.24,0.69,1.93
		c-1.67,1.89-3.19,3.96-4.54,6.2c-1.64,2.72-2.93,5.56-3.89,8.46c-0.59,0.46-1.36,0.65-2.13,0.44l-0.01,0
		c-1.89-0.51-3.36-2.1-3.54-4.05c-0.09-0.99-0.38-1.65-0.86-1.78c-1.06-0.28-2.62,2.12-3.49,5.37c-0.87,3.25-0.72,6.12,0.34,6.4
		c0.48,0.13,1.06-0.3,1.64-1.11c1.13-1.6,3.2-2.24,5.1-1.74l0.03,0.01c0.75,0.2,1.32,0.74,1.6,1.41c-1.14,5.63-1.1,11.38,0.04,16.89
		c0,0,0,0,0,0c-0.29,0.65-0.85,1.17-1.59,1.37L39,92.23c-1.89,0.51-3.96-0.14-5.1-1.74c-0.58-0.81-1.16-1.24-1.64-1.11
		c-1.06,0.28-1.21,3.15-0.34,6.4c0.87,3.25,2.43,5.66,3.49,5.37c0.48-0.13,0.77-0.79,0.86-1.78c0.18-1.95,1.65-3.55,3.54-4.05
		l0.11-0.03c0.74-0.2,1.47-0.03,2.05,0.39c0,0,0,0,0,0c1.78,5.33,4.61,10.33,8.43,14.64c0,0,0,0,0,0c0.09,0.72-0.14,1.46-0.69,2.01
		l-0.05,0.05c-1.38,1.38-3.5,1.86-5.28,1.04c-0.9-0.42-1.62-0.5-1.98-0.14c-0.77,0.77,0.53,3.33,2.91,5.71
		c2.38,2.38,4.94,3.68,5.71,2.91c0.35-0.35,0.27-1.07-0.14-1.98c-0.82-1.78-0.34-3.9,1.04-5.28l0.03-0.03
		c0.57-0.57,1.35-0.79,2.09-0.68c0,0,0,0,0,0c1.88,1.66,3.93,3.19,6.16,4.53c2.68,1.61,5.46,2.88,8.31,3.84c0,0,0,0-0.01,0
		c0.48,0.59,0.69,1.38,0.48,2.17l0,0.01c-0.51,1.89-2.1,3.36-4.05,3.54c-0.99,0.09-1.65,0.38-1.78,0.86
		c-0.28,1.06,2.12,2.62,5.37,3.49c3.25,0.87,6.12,0.72,6.4-0.34c0.13-0.48-0.3-1.06-1.11-1.64c-1.6-1.13-2.24-3.2-1.74-5.1
		l0.01-0.04c0.21-0.77,0.75-1.34,1.44-1.62c5.61,1.15,11.33,1.13,16.83,0.01c0,0,0,0,0,0c0.67,0.29,1.2,0.85,1.41,1.6l0.01,0.04
		c0.51,1.89-0.14,3.96-1.74,5.1c-0.81,0.58-1.24,1.16-1.11,1.64c0.28,1.06,3.15,1.21,6.4,0.34c3.25-0.87,5.66-2.43,5.37-3.49
		c-0.13-0.48-0.79-0.77-1.78-0.86c-1.95-0.18-3.55-1.65-4.05-3.54l-0.02-0.06c-0.2-0.74-0.03-1.48,0.39-2.06c0,0,0,0,0,0
		c5.36-1.77,10.38-4.61,14.71-8.44c0,0,0,0,0,0c0.7-0.06,1.41,0.16,1.95,0.69l0.02,0.02c1.38,1.38,1.86,3.5,1.04,5.28
		c-0.42,0.9-0.5,1.62-0.14,1.98c0.77,0.77,3.33-0.53,5.71-2.91c2.38-2.38,3.68-4.94,2.91-5.71
		C121.09,112.93,120.37,113.01,119.47,113.42z M41.26,71.37c-0.02,0.06-0.03,0.12-0.05,0.17C41.22,71.49,41.24,71.43,41.26,71.37z
		 M41.25,93.2c0.02,0.06,0.03,0.12,0.05,0.18C41.28,93.32,41.26,93.26,41.25,93.2z M52.14,52.51c-0.04,0.04-0.07,0.07-0.11,0.11
		C52.07,52.58,52.11,52.54,52.14,52.51z M52.16,112.15c0.02,0.02,0.04,0.04,0.06,0.06C52.2,112.19,52.18,112.17,52.16,112.15z
		 M70.92,123.03c0.07,0.02,0.13,0.04,0.2,0.05C71.05,123.06,70.98,123.05,70.92,123.03z M92.74,123.11c0.07-0.02,0.14-0.04,0.2-0.06
		C92.88,123.07,92.81,123.09,92.74,123.11z"/>
</g>
</svg>
