<svg viewBox="0 0 336.22 92.84" xmlns="http://www.w3.org/2000/svg" xmlns:xlink="http://www.w3.org/1999/xlink"><radialGradient id="a" cx="396.44" cy="172.47" gradientTransform="matrix(.71 -.71 -.71 -.71 -137.57 454.57)" gradientUnits="userSpaceOnUse" r="68.93"><stop offset="0" stop-color="#3baec0"/><stop offset="1" stop-color="#96d6dd"/></radialGradient><radialGradient id="b" cx="25.51" cy="16.64" gradientTransform="matrix(1 0 0 -1 0 85.73)" gradientUnits="userSpaceOnUse" r="65.53"><stop offset="0" stop-color="#eb2027"/><stop offset="1" stop-color="#a11d26"/></radialGradient><path d="m61.68 1.47c7.11 2.14 11.55 6.33 12.95 9.43 1.63 3.61 1.46 8.22-1.13 11.26-2.21 2.59-5.78 3.66-9.16 3.63s-6.66-1-9.92-1.86c-12.73-3.37-18.2 0-21.06 5.28a10.09 10.09 0 0 0 2.42 12.5c2.85 2.53 6.66 2.66 10 4.84 2.39 1.55 2.67 3.61 2.77 5.48a27.38 27.38 0 0 0 .39 5.59c1 3.57 4.56 6.08 8.25 6.27a12.72 12.72 0 0 0 9.81-4.39 21.72 21.72 0 0 0 4.76-9.87 77.8 77.8 0 0 0 1.34-11 24.85 24.85 0 0 1 1.8-8.6c1.24-2.67 3.61-5 6.52-5.42 3.54-.51 9.31 1.88 10.85 10.52a.22.22 0 0 1 0 .08 42.17 42.17 0 1 1 -30.59-33.74z" fill="url(#a)"/><path d="m88.11 73.3a4.74 4.74 0 0 1 -5.28-1 2.44 2.44 0 0 1 -.69-1.95 42.13 42.13 0 0 0 9.66-37.45c2.45 14.71-8.49 30.34-21.32 31.27a6.58 6.58 0 0 1 -5.28-1.92 8.12 8.12 0 0 1 -1.7-5.88c.08-2.09.53-4.17.47-6.26a7 7 0 0 0 -2.44-5.55 5.77 5.77 0 0 0 -4.79-.75 9.79 9.79 0 0 0 -4.25 2.55c-2.55 2.44-4.17 5.66-6 8.69s-4 6-7.1 7.65c-4.73 2.42-11.1.2-10.12-5.88.62-3.87 4.74-5.9 7.9-8.21a11.25 11.25 0 0 0 3.83-4.39 5.76 5.76 0 0 0 -.36-5.63c-2.84-4-9.88-1.84-13.21-5.4-2.24-2.39-1.61-6.35.38-8.86a22.45 22.45 0 0 1 7.72-5.69c3.26-1.64 5.44-3.9 6.24-7 .87-3.36-3.26-5.71-.23-8.9 2.07-2.16 8.16-2.74 12.63-2.58a42.21 42.21 0 0 0 -31.64 10.57 2.42 2.42 0 0 1 -1.92-.73 4.74 4.74 0 0 1 -1-5.28c.42-.9.5-1.62.14-2-.84-.72-3.4.57-5.75 2.95s-3.68 4.94-2.91 5.71c.35.35 1.07.27 2-.14a4.74 4.74 0 0 1 5.28 1 2.41 2.41 0 0 1 .63 2 42.42 42.42 0 0 0 -4.54 6.2 41.83 41.83 0 0 0 -3.89 8.46 2.41 2.41 0 0 1 -2.13.44 4.73 4.73 0 0 1 -3.54-4.05c-.09-1-.38-1.65-.86-1.78-1.04-.28-2.59 2.12-3.46 5.37s-.72 6.12.34 6.4c.48.13 1.06-.3 1.64-1.11a4.75 4.75 0 0 1 5.1-1.74 2.41 2.41 0 0 1 1.6 1.41 42.13 42.13 0 0 0 0 16.89 2.43 2.43 0 0 1 -1.59 1.37h-.09a4.74 4.74 0 0 1 -5.1-1.74c-.48-.77-1.09-1.2-1.57-1.07-1.06.28-1.21 3.15-.34 6.4s2.43 5.66 3.49 5.37c.48-.13.77-.79.86-1.78a4.72 4.72 0 0 1 3.54-4.05h.11a2.39 2.39 0 0 1 2 .39 42.21 42.21 0 0 0 8.43 14.64 2.4 2.4 0 0 1 -.69 2l-.05.05a4.74 4.74 0 0 1 -5.28 1c-.9-.42-1.62-.5-2-.14-.77.77.53 3.33 2.91 5.71s4.94 3.68 5.71 2.91c.35-.35.27-1.07-.14-2a4.74 4.74 0 0 1 1-5.28 2.43 2.43 0 0 1 2.09-.68 41.82 41.82 0 0 0 14.47 8.37 2.43 2.43 0 0 1 .48 2.17 4.73 4.73 0 0 1 -4.05 3.54c-1 .09-1.65.38-1.78.86-.28 1.06 2.12 2.62 5.37 3.49s6.12.72 6.4-.34c.13-.48-.3-1.06-1.11-1.64a4.75 4.75 0 0 1 -1.74-5.1 2.42 2.42 0 0 1 1.44-1.62 42 42 0 0 0 16.83 0 2.46 2.46 0 0 1 1.41 1.6 4.74 4.74 0 0 1 -1.74 5.1c-.81.58-1.24 1.16-1.11 1.64.28 1.06 3.15 1.21 6.4.34s5.66-2.43 5.37-3.49c-.13-.48-.79-.77-1.78-.86a4.72 4.72 0 0 1 -4.05-3.54v-.06a2.41 2.41 0 0 1 .39-2.06 42.12 42.12 0 0 0 14.71-8.44 2.45 2.45 0 0 1 2 .69 4.74 4.74 0 0 1 1 5.28c-.42.9-.5 1.62-.14 2 .77.77 3.33-.53 5.71-2.91s3.68-4.94 2.91-5.71c-.21-.34-.94-.26-1.83.16zm-78.22-42.06c0 .06 0 .12-.05.17a.84.84 0 0 0 .05-.17zm0 21.83v.18a1.21 1.21 0 0 0 -.01-.18zm10.9-40.69-.11.11zm.01 59.62.06.06a.17.17 0 0 1 -.06-.06zm18.75 10.9h.2zm21.83.1.2-.06a1.17 1.17 0 0 1 -.2.06z" fill="url(#b)"/><circle cx="50.8" cy="42.51" fill="none" r="42.03"/><circle cx="50.8" cy="42.2" fill="none" r="42.03"/><path d="m252.78 59.2a2.88 2.88 0 0 0 -1.77-.51 3 3 0 0 0 -1.78.51 3.12 3.12 0 0 0 -1.1 1.51 8.6 8.6 0 0 0 0 5 3.15 3.15 0 0 0 1.1 1.52 3 3 0 0 0 1.78.51 3 3 0 0 0 1.77-.51 3.09 3.09 0 0 0 1.09-1.52 7.18 7.18 0 0 0 .37-2.49 7.45 7.45 0 0 0 -.37-2.5 3.11 3.11 0 0 0 -1.09-1.52z" fill="none"/><path d="m131.66 58.84h-.04l-.59 2.27-1.09 3.5h3.41l-1.06-3.48z" fill="none"/><path d="m180.69 58.84h-.04l-.59 2.27-1.09 3.5h3.41l-1.06-3.48z" fill="none"/><path d="m136.09 20.47a2.64 2.64 0 0 0 1.65-.44 1.68 1.68 0 0 0 .55-1.41 1.68 1.68 0 0 0 -.55-1.39 2.64 2.64 0 0 0 -1.65-.44h-2.68v3.67h2.68z" fill="none"/><path d="m182.59 16.76h-2.29v4h2.29a2.77 2.77 0 0 0 1.79-.5 1.84 1.84 0 0 0 .6-1.51 1.84 1.84 0 0 0 -.6-1.51 2.77 2.77 0 0 0 -1.79-.48z" fill="none"/><path d="m214.63 58.84h-.04l-.59 2.27-1.08 3.5h3.42l-1.06-3.48z" fill="none"/><path d="m219.87 24.49a5.41 5.41 0 0 0 .85-3.29 5.34 5.34 0 0 0 -.85-3.29 3.17 3.17 0 0 0 -2.69-1.11h-2v8.8h2a3.16 3.16 0 0 0 2.69-1.11z" fill="none"/><path d="m284.02 22.61-1.06-3.48-.64-2.29h-.03l-.6 2.27-1.08 3.5z" fill="none"/><path d="m149.42 25.22a3 3 0 0 0 1.78.51 3 3 0 0 0 1.77-.51 3.09 3.09 0 0 0 1.09-1.52 7.18 7.18 0 0 0 .37-2.49 7.45 7.45 0 0 0 -.37-2.5 3.11 3.11 0 0 0 -1.06-1.51 2.92 2.92 0 0 0 -1.77-.51 3 3 0 0 0 -1.78.51 3.12 3.12 0 0 0 -1.1 1.51 7.2 7.2 0 0 0 -.37 2.5 7.26 7.26 0 0 0 .37 2.49 3.15 3.15 0 0 0 1.07 1.52z" fill="none"/><path d="m150 41.47a2.64 2.64 0 0 0 1.65-.44 2.06 2.06 0 0 0 0-2.8 2.64 2.64 0 0 0 -1.65-.44h-2.68v3.67h2.68z" fill="none"/><path d="m309.07 16.84h-.03l-.6 2.27-1.08 3.5h3.41l-1.06-3.48z" fill="none"/><path d="m267.75 20.47a2.64 2.64 0 0 0 1.65-.47 1.68 1.68 0 0 0 .55-1.41 1.68 1.68 0 0 0 -.55-1.39 2.64 2.64 0 0 0 -1.65-.44h-2.68v3.67h2.68z" fill="none"/><path d="m324 58.88a2.39 2.39 0 0 0 -2.57.26 1.92 1.92 0 0 0 -.57 1.44 1.78 1.78 0 0 0 .55 1.42 2.21 2.21 0 0 0 1.52.52 2.34 2.34 0 0 0 1.07-.24 1.92 1.92 0 0 0 .74-.67 1.89 1.89 0 0 0 .26-1 2 2 0 0 0 -.26-1 1.79 1.79 0 0 0 -.74-.73z" fill="none"/><path d="m288.13 58.8h-2v8.8h2a3.16 3.16 0 0 0 2.69-1.11 5.41 5.41 0 0 0 .85-3.29 5.34 5.34 0 0 0 -.85-3.29 3.17 3.17 0 0 0 -2.69-1.11z" fill="none"/><g fill="#424143"><path d="m116.34 27.82a6.83 6.83 0 0 0 3.44.86 5.58 5.58 0 0 0 3.09-.79 4 4 0 0 0 1.13-1.25l.16 1.83h2.57v-7.83h-6.53v2.53h3.32v.22a2.38 2.38 0 0 1 -.22 1.07 2.15 2.15 0 0 1 -.62.75 2.72 2.72 0 0 1 -.92.45 4.36 4.36 0 0 1 -1.17.15 3.74 3.74 0 0 1 -2-.5 3 3 0 0 1 -1.21-1.53 7.06 7.06 0 0 1 -.41-2.57 6.85 6.85 0 0 1 .4-2.48 3 3 0 0 1 3-2 3.06 3.06 0 0 1 1.8.51 2.72 2.72 0 0 1 1 1.63l3.5-1.39a5.77 5.77 0 0 0 -2.35-2.83 9 9 0 0 0 -7.84 0 6.12 6.12 0 0 0 -2.48 2.54 8.53 8.53 0 0 0 -.88 4 9 9 0 0 0 .84 4.07 5.81 5.81 0 0 0 2.38 2.56z"/><path d="m133.4 23.17h2.28l3.09 5.28h4.23l-3.79-5.87a4.74 4.74 0 0 0 1.5-.78 4.14 4.14 0 0 0 1.43-3.39 4 4 0 0 0 -1.44-3.25 6.09 6.09 0 0 0 -4-1.22h-6.93v14.53h3.72zm0-6.38h2.68a2.64 2.64 0 0 1 1.65.44 1.68 1.68 0 0 1 .55 1.39 1.68 1.68 0 0 1 -.55 1.41 2.64 2.64 0 0 1 -1.65.44h-2.68z"/><path d="m147.39 27.79a7.77 7.77 0 0 0 3.81.89 7.69 7.69 0 0 0 3.79-.89 5.94 5.94 0 0 0 2.45-2.56 8.78 8.78 0 0 0 .86-4 8.78 8.78 0 0 0 -.86-4 6 6 0 0 0 -2.44-2.62 8.56 8.56 0 0 0 -7.6 0 6 6 0 0 0 -2.46 2.56 8.78 8.78 0 0 0 -.86 4 8.75 8.75 0 0 0 .86 4 6 6 0 0 0 2.45 2.62zm.93-9.08a3.12 3.12 0 0 1 1.1-1.51 3 3 0 0 1 1.78-.51 2.92 2.92 0 0 1 1.77.51 3.11 3.11 0 0 1 1.09 1.51 7.45 7.45 0 0 1 .37 2.5 7.18 7.18 0 0 1 -.37 2.49 3.09 3.09 0 0 1 -1.06 1.52 3 3 0 0 1 -1.77.51 3 3 0 0 1 -1.78-.51 3.15 3.15 0 0 1 -1.1-1.52 7.26 7.26 0 0 1 -.37-2.49 7.2 7.2 0 0 1 .34-2.5z"/><path d="m167.11 28.68a6.87 6.87 0 0 0 4.89-1.53 6 6 0 0 0 1.64-4.61v-8.6h-3.78v8.67a3.45 3.45 0 0 1 -.67 2.33 2.58 2.58 0 0 1 -2 .77 2.54 2.54 0 0 1 -2-.77 3.45 3.45 0 0 1 -.67-2.33v-8.67h-3.81v8.6a6 6 0 0 0 1.65 4.61 6.87 6.87 0 0 0 4.75 1.53z"/><path d="m188.14 16.16a4.19 4.19 0 0 0 -1.91-1.65 7.33 7.33 0 0 0 -3-.57h-6.66v14.52h3.78v-4.84h2.88a7.33 7.33 0 0 0 3-.57 4.24 4.24 0 0 0 1.91-1.65 4.92 4.92 0 0 0 .66-2.62 4.92 4.92 0 0 0 -.66-2.62zm-3.76 4.12a2.77 2.77 0 0 1 -1.79.5h-2.29v-4h2.29a2.77 2.77 0 0 1 1.79.5 1.84 1.84 0 0 1 .6 1.51 1.84 1.84 0 0 1 -.6 1.49z"/><path d="m202.81 25.54h-7.81v-2.97h5.99v-2.75h-5.99v-2.95h7.53v-2.93h-11.31v14.52.01h11.59z"/><path d="m222.78 26.57a7.44 7.44 0 0 0 1.81-5.37 7.44 7.44 0 0 0 -1.81-5.37 6.94 6.94 0 0 0 -5.23-1.89h-6.16v14.52h6.16a6.91 6.91 0 0 0 5.23-1.89zm-7.6-1v-8.77h2a3.17 3.17 0 0 1 2.69 1.11 5.34 5.34 0 0 1 .85 3.29 5.41 5.41 0 0 1 -.85 3.29 3.16 3.16 0 0 1 -2.69 1.11z"/><path d="m238.78 25.54h-7.81v-2.97h5.99v-2.75h-5.99v-2.95h7.53v-2.93h-11.31v14.52.01h11.59z"/><path d="m250.69 28.46h3.78v-11.59h4.72v-2.93-.01h-13.26v2.93h4.76z"/><path d="m265.07 23.17h2.28l3.09 5.28h4.18l-3.79-5.87a4.74 4.74 0 0 0 1.5-.78 4.14 4.14 0 0 0 1.43-3.39 4 4 0 0 0 -1.44-3.25 6.09 6.09 0 0 0 -4-1.22h-6.93v14.53h3.72zm0-6.38h2.68a2.64 2.64 0 0 1 1.65.44 1.68 1.68 0 0 1 .55 1.39 1.68 1.68 0 0 1 -.55 1.38 2.64 2.64 0 0 1 -1.65.44h-2.68z"/><path d="m279.81 25.18h5l1 3.28h3.89l-5.08-14.52h-4.53l-5.09 14.52h3.81zm2.48-8.34.64 2.29 1 3.48h-3.41l1.09-3.5z"/><path d="m297.95 28.46 5.16-14.52h-3.86l-2.7 8.82-.78 2.82-.78-2.86-2.67-8.78h-3.97l5.16 14.52z"/><path d="m306.84 13.94-5.1 14.52h3.81l1-3.28h5l1 3.28h3.89l-5.08-14.52zm.52 8.67 1.09-3.5.59-2.27.64 2.29 1 3.48z"/><path d="m318.16 13.94h3.78v14.52h-3.78z"/><path d="m328.94 25.53h-.01v-11.59h-3.79v14.52h11.07v-2.93z"/><path d="m120.63 46.6a4.4 4.4 0 0 1 -1.25.15 6.82 6.82 0 0 1 -1.95-.29 7.36 7.36 0 0 1 -1.76-.78 5.79 5.79 0 0 1 -1.35-1.13l-1.83 2.53a7.6 7.6 0 0 0 1.78 1.36 9.49 9.49 0 0 0 2.38.91 11.88 11.88 0 0 0 2.77.32 8.67 8.67 0 0 0 3.17-.54 4.81 4.81 0 0 0 2.18-1.61 4.24 4.24 0 0 0 .79-2.61 3.41 3.41 0 0 0 -1-2.57 6.88 6.88 0 0 0 -3.19-1.47l-2.44-.55a4 4 0 0 1 -1.4-.54.93.93 0 0 1 -.43-.78 1.16 1.16 0 0 1 .22-.7 1.5 1.5 0 0 1 .73-.48 4 4 0 0 1 1.32-.18 5.94 5.94 0 0 1 2.48.5 6.59 6.59 0 0 1 2 1.49l1.83-2.44a7.55 7.55 0 0 0 -2.68-1.84 9.4 9.4 0 0 0 -3.57-.63 8.53 8.53 0 0 0 -3.4.62 5 5 0 0 0 -2.14 1.66 4.12 4.12 0 0 0 -.75 2.43 3.47 3.47 0 0 0 .55 2 3.88 3.88 0 0 0 1.51 1.28 9.87 9.87 0 0 0 2.19.76l2.68.59a2.86 2.86 0 0 1 1.27.55 1 1 0 0 1 .32.79 1 1 0 0 1 -.26.72 1.61 1.61 0 0 1 -.77.48z"/><path d="m134.17 49.68a6.87 6.87 0 0 0 4.83-1.53 6 6 0 0 0 1.64-4.61v-8.6h-3.78v8.67a3.45 3.45 0 0 1 -.67 2.33 2.58 2.58 0 0 1 -2 .77 2.54 2.54 0 0 1 -2-.77 3.45 3.45 0 0 1 -.67-2.33v-8.67h-3.81v8.6a6 6 0 0 0 1.65 4.61 6.87 6.87 0 0 0 4.81 1.53z"/><path d="m147.31 44.17h2.27l3.09 5.28h4.18l-3.79-5.86a4.71 4.71 0 0 0 1.51-.79 4.14 4.14 0 0 0 1.43-3.39 4 4 0 0 0 -1.44-3.25 6.09 6.09 0 0 0 -4-1.22h-6.93v14.53h3.72zm0-6.38h2.69a2.64 2.64 0 0 1 1.65.44 2.06 2.06 0 0 1 0 2.8 2.64 2.64 0 0 1 -1.65.44h-2.68z"/><path d="m165.03 34.94v14.52h11.06v-2.93h-7.28v-11.59z"/><path d="m175.66 39.79a4.94 4.94 0 0 1 -1.13.62l1.52 1.12a4.55 4.55 0 0 0 1.51-1 5.88 5.88 0 0 0 1.12-1.61 4.36 4.36 0 0 0 .43-1.9 3.42 3.42 0 0 0 -.25-1.35 2.14 2.14 0 0 0 -2.12-1.35 2.73 2.73 0 0 0 -1.09.23 1.93 1.93 0 0 0 -1.12 1.87 1.66 1.66 0 0 0 .95 1.6 1.85 1.85 0 0 0 .8.2 2 2 0 0 0 .46 0 .71.71 0 0 0 .26-.22l.11.07a3.2 3.2 0 0 1 -.58.9 5.45 5.45 0 0 1 -.87.82z"/><path d="m181.52 34.94h3.78v14.52h-3.78z"/><path d="m195.4 49.45h3.06l3.58-11.13h.05l-.12 4.47v6.67h3.34v-14.52h-5.16l-2.27 7.41-.85 3.06h-.03l-.81-3.08-2.29-7.39h-5.4v14.52h3.38v-6.67l-.12-4.47h.05z"/><path d="m217.9 42.35-.84 3.06h-.05l-.8-3.08-2.3-7.39h-5.38v14.52h3.37v-6.67l-.12-4.47h.04l3.59 11.13h3.06l3.59-11.13h.04l-.1 4.47v6.67h3.34v-14.52h-5.18z"/><path d="m234.75 49.68a6.87 6.87 0 0 0 4.85-1.53 6 6 0 0 0 1.64-4.61v-8.6h-3.78v8.67a3.45 3.45 0 0 1 -.67 2.33 2.58 2.58 0 0 1 -2 .77 2.54 2.54 0 0 1 -2-.77 3.45 3.45 0 0 1 -.67-2.33v-8.67h-3.81v8.6a6 6 0 0 0 1.65 4.61 6.87 6.87 0 0 0 4.79 1.53z"/><path d="m247.51 42.13-.08-2.68h.01l1.1 2.16 4.52 7.85h4.19v-14.52h-3.34v7.33l.09 2.68h-.01l-1.11-2.16-4.5-7.85h-4.2v14.52h3.33z"/><path d="m260.48 34.94h3.78v14.52h-3.78z"/><path d="m266.42 37.86h4.75v11.6h3.77v-11.59h4.74v-2.93-.01h-13.26z"/><path d="m293.43 46.54h-7.81v-2.97h5.98v-2.75h-5.98v-2.95h7.51v-2.93h-11.31v14.52.01h11.61z"/><path d="m285.75 33.55h2.74l1.95-3.59h-3.33z"/><path d="m117.56 58.86h7.5v-2.92h-11.28v14.52h3.78v-5.59h5.97v-2.93h-5.97z"/><path d="m129.42 55.94-5.1 14.52h3.81l1-3.28h5l1 3.28h3.87l-5-14.52zm.52 8.67 1.09-3.5.59-2.27.64 2.29 1 3.48z"/><path d="m148.61 67.15a2.79 2.79 0 0 1 -1.79.58 3.3 3.3 0 0 1 -1.88-.51 3.08 3.08 0 0 1 -1.13-1.52 7.26 7.26 0 0 1 -.37-2.49 6.7 6.7 0 0 1 .41-2.5 3.17 3.17 0 0 1 1.15-1.51 3.11 3.11 0 0 1 1.79-.51 2.86 2.86 0 0 1 1.75.51 3.1 3.1 0 0 1 1 1.87l3.32-1.34a4.93 4.93 0 0 0 -1.25-2.27 5.51 5.51 0 0 0 -2.16-1.31 8.59 8.59 0 0 0 -2.79-.43 7.71 7.71 0 0 0 -3.78.89 6 6 0 0 0 -2.46 2.56 9.87 9.87 0 0 0 0 8.06 6 6 0 0 0 2.46 2.56 7.77 7.77 0 0 0 3.81.89 8.43 8.43 0 0 0 2.82-.45 5.56 5.56 0 0 0 2.2-1.43 6 6 0 0 0 1.34-2.5l-3.46-.94a3 3 0 0 1 -.98 1.79z"/><path d="m158.97 64.57h5.97v-2.75h-5.97v-2.95h7.52v-2.93h-11.31v14.52.01h11.6v-2.93h-7.81z"/><path d="m178.45 55.94-5.1 14.52h3.81l1-3.28h5l1 3.28h3.89l-5.05-14.52zm.52 8.67 1.09-3.5.59-2.27.64 2.29 1 3.48z"/><path d="m177.54 50.96 1.96 3.59h2.74l-1.34-3.59z"/><path d="m199.34 67.53v-11.59h-3.78v14.52h11.07v-2.93h-7.28z"/><path d="m212.4 55.94-5.1 14.52h3.81l1-3.28h5l1 3.28h3.89l-5.08-14.52zm.52 8.67 1.09-3.5.59-2.27.64 2.29 1.05 3.48z"/><path d="m237.93 67.15a2.79 2.79 0 0 1 -1.79.58 3.3 3.3 0 0 1 -1.88-.51 3.08 3.08 0 0 1 -1.13-1.52 7.26 7.26 0 0 1 -.37-2.49 6.7 6.7 0 0 1 .41-2.5 3.17 3.17 0 0 1 1.17-1.51 3.11 3.11 0 0 1 1.79-.51 2.86 2.86 0 0 1 1.75.51 3.1 3.1 0 0 1 1 1.87l3.32-1.34a4.93 4.93 0 0 0 -1.2-2.27 5.51 5.51 0 0 0 -2.16-1.31 8.59 8.59 0 0 0 -2.79-.43 7.71 7.71 0 0 0 -3.78.89 6 6 0 0 0 -2.46 2.56 9.87 9.87 0 0 0 0 8.06 6 6 0 0 0 2.46 2.56 7.77 7.77 0 0 0 3.81.89 8.43 8.43 0 0 0 2.82-.45 5.56 5.56 0 0 0 2.2-1.43 6 6 0 0 0 1.34-2.5l-3.46-.94a3 3 0 0 1 -1.05 1.79z"/><path d="m254.8 56.61a8.56 8.56 0 0 0 -7.6 0 6 6 0 0 0 -2.46 2.56 9.87 9.87 0 0 0 0 8.06 6 6 0 0 0 2.46 2.56 7.77 7.77 0 0 0 3.81.89 7.69 7.69 0 0 0 3.79-.89 5.94 5.94 0 0 0 2.45-2.56 9.87 9.87 0 0 0 0-8.06 6 6 0 0 0 -2.45-2.56zm-.93 9.09a3.09 3.09 0 0 1 -1.09 1.52 3 3 0 0 1 -1.77.51 3 3 0 0 1 -1.78-.51 3.15 3.15 0 0 1 -1.1-1.52 8.6 8.6 0 0 1 0-5 3.12 3.12 0 0 1 1.1-1.51 3 3 0 0 1 1.78-.51 2.88 2.88 0 0 1 1.77.51 3.11 3.11 0 0 1 1.09 1.51 7.45 7.45 0 0 1 .37 2.5 7.18 7.18 0 0 1 -.37 2.5z"/><path d="m267.05 64.76-.78 2.82-.78-2.86-2.67-8.78h-3.97l5.16 14.52h4.44l5.16-14.52h-3.86z"/><path d="m275.35 55.94h3.78v14.52h-3.78z"/><path d="m288.5 55.94h-6.16v14.52h6.16a6.91 6.91 0 0 0 5.23-1.89 7.44 7.44 0 0 0 1.81-5.37 7.44 7.44 0 0 0 -1.81-5.37 6.94 6.94 0 0 0 -5.23-1.89zm2.32 10.55a3.16 3.16 0 0 1 -2.69 1.11h-2v-8.8h2a3.17 3.17 0 0 1 2.69 1.11 5.34 5.34 0 0 1 .85 3.29 5.41 5.41 0 0 1 -.85 3.29z"/><path d="m297.77 61.61h8.05v3.06h-8.05z"/><path d="m311.11 56.75a7.06 7.06 0 0 1 -1.14.76 10.55 10.55 0 0 1 -1.29.59 4.22 4.22 0 0 1 -1.22.29l.35 3.12a6 6 0 0 0 1.85-.67 8.58 8.58 0 0 0 1.61-1.16v1.24s0 .8 0 1.18v8.36h3.64v-14.46h-3a4.06 4.06 0 0 1 -.8.75z"/><path d="m326.32 56.57a6.15 6.15 0 0 0 -3.35-.85 7.06 7.06 0 0 0 -2.91.57 4.64 4.64 0 0 0 -1.95 1.71 4.83 4.83 0 0 0 -.7 2.65 4.6 4.6 0 0 0 .57 2.43 4 4 0 0 0 1.66 1.61 5.24 5.24 0 0 0 2.45.56 5.86 5.86 0 0 0 1.1-.11 4 4 0 0 0 1-.35 3 3 0 0 0 .83-.6 2.71 2.71 0 0 0 .55-.85h.07v.36a9.13 9.13 0 0 1 -.15 1.75 4 4 0 0 1 -.47 1.29 2.1 2.1 0 0 1 -.82.8 2.41 2.41 0 0 1 -1.19.28 2 2 0 0 1 -1.38-.44 2.25 2.25 0 0 1 -.67-1.21l-3.39 1.34a4.65 4.65 0 0 0 2.08 2.41 6.75 6.75 0 0 0 3.29.76 6.24 6.24 0 0 0 3.15-.78 5.28 5.28 0 0 0 2.15-2.44 10.17 10.17 0 0 0 .78-4.3 10.82 10.82 0 0 0 -.68-4.09 5.21 5.21 0 0 0 -2.02-2.5zm-1.54 5a1.92 1.92 0 0 1 -.74.67 2.34 2.34 0 0 1 -1.07.24 2.21 2.21 0 0 1 -1.52-.52 1.78 1.78 0 0 1 -.55-1.42 1.92 1.92 0 0 1 .57-1.44 2.39 2.39 0 0 1 2.57-.26 1.79 1.79 0 0 1 .74.67 2 2 0 0 1 .26 1 1.89 1.89 0 0 1 -.26 1.1z"/></g></svg>