<svg width="50" height="50" viewBox="0 0 50 50" fill="none" xmlns="http://www.w3.org/2000/svg">
<rect width="49.9999" height="50" rx="25" fill="#455A64"/>
<path d="M25.0002 6.10352e-05C11.1928 6.10352e-05 0.000244141 11.1926 0.000244141 25.0001C0.000244141 38.8075 11.1928 50 25.0002 50C38.8077 50 50.0002 38.8075 50.0002 25.0001C50.0002 11.1926 38.8077 6.10352e-05 25.0002 6.10352e-05ZM33.2956 36.0484C32.9024 36.4396 32.4901 36.8498 32.1554 37.1855C31.854 37.488 31.6413 37.8609 31.5335 38.2652C31.3813 38.8357 31.2583 39.4123 31.0526 39.9658L29.2996 44.6886C27.9125 44.991 26.477 45.1613 25.0002 45.1613V42.4013C25.1706 41.1291 24.2301 38.746 22.719 37.2349C22.1141 36.6301 21.7744 35.8095 21.7744 34.9537V31.7269C21.7744 30.5535 21.1424 29.4749 20.1151 28.9073C18.6666 28.1059 16.6061 26.9859 15.1948 26.2753C14.0375 25.6926 12.967 24.9507 12.0043 24.0827L11.9236 24.0101C11.2352 23.3887 10.6239 22.6868 10.1031 21.9194C9.15749 20.5313 7.61717 18.248 6.61616 16.7642C8.67967 12.1775 12.3984 8.49401 17.0194 6.493L19.4397 7.70369C20.5123 8.23998 21.7744 7.46074 21.7744 6.26115V5.12204C22.5799 4.992 23.3994 4.90933 24.2331 4.87808L27.0859 7.73091C27.7159 8.36095 27.7159 9.38211 27.0859 10.0122L26.6131 10.4839L25.5708 11.5263C25.2563 11.8408 25.2563 12.3519 25.5708 12.6664L26.0436 13.1392C26.3581 13.4537 26.3581 13.9648 26.0436 14.2793L25.2371 15.0857C25.0857 15.2369 24.8805 15.3217 24.6665 15.3216H23.7603C23.5506 15.3216 23.349 15.4033 23.1978 15.5505L22.1978 16.5232C22.0752 16.6426 21.9937 16.7978 21.9651 16.9665C21.9365 17.1352 21.9622 17.3086 22.0385 17.4617L23.6101 20.6059C23.8782 21.1422 23.4881 21.7732 22.8893 21.7732H22.3208C22.1262 21.7732 21.9387 21.7027 21.7926 21.5757L20.8571 20.7632C20.6454 20.5795 20.3895 20.4541 20.1147 20.3993C19.8398 20.3445 19.5555 20.3622 19.2895 20.4507L16.1474 21.498C15.9075 21.578 15.6989 21.7315 15.5511 21.9367C15.4032 22.1418 15.3237 22.3883 15.3238 22.6412C15.3238 23.0978 15.5819 23.5142 15.9901 23.7188L17.1071 24.2773C18.0557 24.7521 19.102 24.999 20.1625 24.999C21.223 24.999 22.4397 27.7501 23.3883 28.2249H30.1171C30.973 28.2249 31.7925 28.5646 32.3984 29.1694L33.7784 30.5494C34.355 31.1262 34.6788 31.9083 34.6786 32.7238C34.6784 33.3418 34.5561 33.9536 34.3188 34.5241C34.0814 35.0947 33.7337 35.6127 33.2956 36.0484V36.0484ZM42.0365 26.8398C41.4528 26.6936 40.9437 26.3357 40.6101 25.8347L38.7976 23.116C38.5324 22.7188 38.3908 22.2519 38.3908 21.7742C38.3908 21.2966 38.5324 20.8297 38.7976 20.4325L40.7724 17.4708C41.0062 17.121 41.3268 16.8368 41.7038 16.6493L43.0123 15.995C44.3752 18.7087 45.1615 21.7611 45.1615 25.0001C45.1615 25.874 45.0869 26.7299 44.978 27.5747L42.0365 26.8398Z" fill="#55A6BA"/>
<rect width="6" height="19.9564" rx="3" transform="matrix(0.483002 0.875619 0.71164 -0.702544 25 22.0203)" fill="white"/>
<rect width="6" height="16.0295" rx="3" transform="matrix(0.483002 0.875619 0.71164 -0.702544 32.9446 26.5114)" fill="white"/>
<rect width="6" height="25.6791" rx="3" transform="matrix(-1 0 0.00320196 -0.999995 31.9446 44.929)" fill="white"/>
<rect width="6" height="19.9564" rx="3" transform="matrix(-0.483002 0.875619 -0.71164 -0.702544 25 22.0203)" fill="white"/>
<rect width="6" height="16.0295" rx="3" transform="matrix(-0.483002 0.875619 -0.71164 -0.702544 17.0554 26.5114)" fill="white"/>
<rect width="6" height="25.6791" rx="3" transform="matrix(1 0 -0.00320196 -0.999995 18.0554 44.929)" fill="white"/>
</svg>
