<svg width="550" height="550" viewBox="0 0 550 550" fill="none" xmlns="http://www.w3.org/2000/svg">
<circle cx="275" cy="275" r="275" fill="#55A6BA"/>
<path d="M200.75 226.875H255.75C259.547 226.875 262.625 229.953 262.625 233.75V471.625C262.625 486.813 250.313 499.125 235.125 499.125H228.25C213.062 499.125 200.75 486.813 200.75 471.625V226.875Z" fill="white"/>
<path d="M52.5431 240.67C36.434 224.561 36.434 198.443 52.5431 182.334C60.5977 174.28 73.6567 174.28 81.7112 182.334L159.493 260.116C175.602 276.225 175.602 302.343 159.493 318.452C151.438 326.507 138.379 326.507 130.325 318.452L52.5431 240.67Z" fill="white"/>
<path d="M114.418 165.045C98.309 148.936 98.309 122.818 114.418 106.709C122.473 98.6545 135.532 98.6545 143.586 106.709L257.828 220.951C260.513 223.636 260.513 227.989 257.828 230.674L218.937 269.565L114.418 165.045Z" fill="white"/>
<path d="M468.575 182.334C476.629 174.28 489.688 174.28 497.743 182.334C513.852 198.443 513.852 224.561 497.743 240.67L419.961 318.452C411.906 326.507 398.847 326.507 390.793 318.452C374.684 302.343 374.684 276.225 390.793 260.116L468.575 182.334Z" fill="white"/>
<path d="M406.478 106.709C414.533 98.6545 427.592 98.6545 435.646 106.709C451.755 122.818 451.755 148.936 435.646 165.045L331.127 269.565L293.208 231.646C289.987 228.424 289.987 223.201 293.208 219.979L406.478 106.709Z" fill="white"/>
<path d="M287.375 231C287.375 227.203 290.453 224.125 294.25 224.125H349.25V471.625C349.25 486.813 336.938 499.125 321.75 499.125H314.875C299.687 499.125 287.375 486.813 287.375 471.625V231Z" fill="white"/>
<path d="M257.828 220.951C262.625 226.875 262.625 226.875 262.625 233.75L257.828 220.951Z" fill="white"/>
<path d="M293.208 219.979C287.375 225.5 287.375 224.125 287.375 231L293.208 219.979Z" fill="white"/>
<path d="M262.625 233.75V471.625C262.625 486.813 250.313 499.125 235.125 499.125H228.25C213.062 499.125 200.75 486.813 200.75 471.625V226.875H255.75C259.547 226.875 262.625 229.953 262.625 233.75ZM262.625 233.75C262.625 226.875 262.625 226.875 257.828 220.951M262.625 233.75L257.828 220.951M257.828 220.951L143.586 106.709C135.532 98.6545 122.473 98.6545 114.418 106.709C98.309 122.818 98.309 148.936 114.418 165.045L218.937 269.565L257.828 230.674C260.513 227.989 260.513 223.636 257.828 220.951ZM293.208 219.979L406.478 106.709C414.533 98.6545 427.592 98.6545 435.646 106.709C451.755 122.818 451.755 148.936 435.646 165.045L331.127 269.565L293.208 231.646C289.987 228.424 289.987 223.201 293.208 219.979ZM293.208 219.979C287.375 225.5 287.375 224.125 287.375 231M293.208 219.979L287.375 231M287.375 231V471.625C287.375 486.813 299.687 499.125 314.875 499.125H321.75C336.938 499.125 349.25 486.813 349.25 471.625V224.125H294.25C290.453 224.125 287.375 227.203 287.375 231ZM159.493 318.452C151.438 326.507 138.379 326.507 130.325 318.452L52.5431 240.67C36.434 224.561 36.434 198.443 52.5431 182.334C60.5977 174.28 73.6567 174.28 81.7112 182.334L159.493 260.116C175.602 276.225 175.602 302.343 159.493 318.452ZM390.793 318.452C374.684 302.343 374.684 276.225 390.793 260.116L468.575 182.334C476.629 174.28 489.688 174.28 497.743 182.334C513.852 198.443 513.852 224.561 497.743 240.67L419.961 318.452C411.907 326.507 398.847 326.507 390.793 318.452Z" stroke="white"/>
</svg>
