<?xml version="1.0" encoding="UTF-8"?>
<svg width="191px" height="54px" viewBox="0 0 191 54" version="1.1" xmlns="http://www.w3.org/2000/svg" xmlns:xlink="http://www.w3.org/1999/xlink">
    <!-- Generator: Sketch 46.1 (44463) - http://www.bohemiancoding.com/sketch -->
    <title>cision_logo</title>
    <desc>Created with Sketch.</desc>
    <defs></defs>
    <g id="Page-1" stroke="none" stroke-width="1" fill="none" fill-rule="evenodd">
        <g id="cision_logo">
            <g id="cisionlogo">
                <polyline id="Fill-1" fill="#007A71" points="43.8250984 0.735300518 36.3553161 0.735300518 36.3553161 21.9620311 43.8250984 21.1069845 43.8250984 0.735300518"></polyline>
                <polyline id="Fill-2" fill="#007A71" points="36.3553161 52.8773109 43.8250984 52.8773109 43.8250984 32.4967202 36.3553161 31.6411788 36.3553161 52.8773109"></polyline>
                <polyline id="Fill-3" fill="#E26540" points="36.3553161 21.9620311 36.3553161 31.6411788 43.8250984 32.497215 43.8250984 21.1064896 36.3553161 21.9620311"></polyline>
                <path d="M64.8791373,17.1029119 C64.8059041,16.3958161 64.7692876,15.528399 64.7692876,14.5031347 C64.7692876,13.6243368 64.8425207,12.7821554 64.988987,11.9765907 C65.1354534,11.1710259 65.3917694,10.4639301 65.7579352,9.85282902 C66.124101,9.24271762 66.6367332,8.74245596 67.2958316,8.35154922 C67.9549301,7.96113731 68.7971114,7.76568394 69.8223756,7.76568394 C71.7264378,7.76568394 73.0812513,8.3881658 73.8868161,9.63312953 C74.6923808,10.8780933 75.0951632,12.3551269 75.0951632,14.0637358 L75.0951632,15.7480984 L82.5649456,15.7480984 L82.5649456,12.0864404 C82.5649456,10.6217772 82.272013,9.19373057 81.6861477,7.80230052 C81.1002824,6.41087047 80.258101,5.15452591 79.1596036,4.03079275 C78.0611062,2.90804922 76.7429093,2.0055 75.205013,1.3211658 C73.6671166,0.637821244 71.9703834,0.295901554 70.1153083,0.295901554 C67.9663109,0.295901554 66.0874845,0.674437824 64.4763549,1.43101554 C62.8652254,2.1885829 61.5341632,3.20098187 60.4851477,4.47019171 C59.4346477,5.74039119 58.6419482,7.25305181 58.1050699,9.01064767 C57.5672021,10.7682435 57.2995052,12.6243083 57.2995052,14.5763679 C57.2995052,16.3903731 57.474671,18.0292124 57.8121373,19.5052565 L65.2873627,18.6492202 C65.0785492,18.1989352 64.9395052,17.6863031 64.8791373,17.1029119" id="Fill-4" fill="#007A71"></path>
                <path d="M75.0951632,38.0842124 C75.0951632,39.255943 75.0456813,40.3306891 74.9486969,41.3064715 C74.850228,42.2832435 74.6191477,43.1006839 74.2529819,43.7602772 C73.8868161,44.4193756 73.3489482,44.9320078 72.6418523,45.2976788 C71.933272,45.6633497 70.9446244,45.8464326 69.6759093,45.8464326 C67.7718472,45.8464326 66.4170337,45.2976788 65.6114689,44.1986865 C64.8059041,43.1006839 64.4031218,41.8675959 64.4031218,40.5014016 L64.4031218,38.1569508 L56.9333394,38.1569508 L56.9333394,40.9398109 C56.9333394,42.6974067 57.2628886,44.3347617 57.921987,45.8464326 C58.5810855,47.3610725 59.4712642,48.666899 60.5949974,49.7644067 C61.7172461,50.8629041 63.0596891,51.7308161 64.6228212,52.3641839 C66.1844689,52.9985415 67.8688316,53.316215 69.6759093,53.316215 C72.0673679,53.316215 74.0941451,52.9253083 75.7542617,52.1449793 C77.4133886,51.3651451 78.7444508,50.3022746 79.7454689,48.9593368 C80.7454974,47.6168938 81.4664482,46.0062591 81.9058472,44.126443 C82.3452461,42.2471218 82.5649456,40.2084689 82.5649456,38.0109793 C82.5649456,37.6403601 82.5580181,37.2855751 82.550101,36.931285 L75.0501347,36.071785 C75.0788342,36.6724948 75.0951632,37.3390155 75.0951632,38.0842124" id="Fill-5" fill="#007A71"></path>
                <path d="M81.136899,28.9666839 C80.574785,27.8206839 79.7820855,26.8186762 78.7568212,25.9641244 C77.731557,25.1105622 76.3881244,24.3653653 74.7289974,23.730513 L69.0168109,21.460285 C68.039544,21.0698731 67.2705959,20.6794611 66.7099663,20.2885544 C66.1478523,19.8981425 65.7213187,19.4463731 65.428386,18.9337409 C65.3764301,18.8431891 65.3323912,18.7457098 65.2873627,18.6492202 L57.8121373,19.5052565 C58.0837927,20.690842 58.4578756,21.774 58.9472513,22.7418653 C60.0457487,24.914614 62.2061269,26.6598394 65.428386,27.9780363 L70.7744067,30.1750311 C71.7012021,30.5664326 72.446399,30.9330933 73.0080181,31.2735285 C73.5686477,31.615943 74.0080466,32.0548472 74.326215,32.5917254 C74.642899,33.1295933 74.850228,33.8361943 74.9486969,34.715487 C74.9927358,35.1148057 75.0253938,35.572513 75.0501347,36.071785 L82.550101,36.9307902 C82.5194223,35.4621684 82.4283756,34.1212098 82.272013,32.9212746 C82.0760648,31.4323653 81.6975285,30.1141684 81.136899,28.9666839" id="Fill-6" fill="#E26540"></path>
                <polyline id="Fill-7" fill="#007A71" points="95.6731865 52.8773109 103.142969 52.8773109 103.142969 39.2890959 95.6731865 38.4335544 95.6731865 52.8773109"></polyline>
                <polyline id="Fill-8" fill="#007A71" points="103.142969 0.735300518 95.6731865 0.735300518 95.6731865 15.1696554 103.142969 14.3146088 103.142969 0.735300518"></polyline>
                <polyline id="Fill-9" fill="#E26540" points="95.6731865 15.1696554 95.6731865 38.4340492 103.142969 39.288601 103.142969 14.314114 95.6731865 15.1696554"></polyline>
                <path d="M126.248031,9.04726425 C127.247565,8.19370207 128.432161,7.76568394 129.799345,7.76568394 C131.165044,7.76568394 132.350135,8.19370207 133.350658,9.04726425 C133.860321,9.48270466 134.238858,10.0433342 134.489236,10.7251943 L142.000583,9.86519948 C141.81849,9.01658549 141.562174,8.21745337 141.223718,7.4727513 C140.491386,5.86162176 139.526984,4.53204404 138.331503,3.48154404 C137.134536,2.43203368 135.792093,1.6393342 134.303184,1.10146632 C132.813285,0.564588083 131.312005,0.295901554 129.799345,0.295901554 C128.285694,0.295901554 126.784415,0.564588083 125.295505,1.10146632 C123.805111,1.6393342 122.463658,2.43203368 121.267681,3.48154404 C120.070715,4.53204404 119.107303,5.86162176 118.374972,7.4727513 C117.683215,8.99530829 117.322492,10.7380596 117.283896,12.6955622 L124.833345,11.8306192 C125.014943,10.627715 125.485021,9.6984456 126.248031,9.04726425" id="Fill-10" fill="#007A71"></path>
                <path d="M133.351153,44.565842 C132.350135,45.4203938 131.165539,45.8469275 129.799345,45.8469275 C128.432161,45.8469275 127.247565,45.4203938 126.248031,44.565842 C125.483041,43.9131762 125.012469,42.980443 124.832355,41.7725907 L117.283402,40.9081425 C117.320018,42.9161166 117.681236,44.6742073 118.374972,46.1764767 C119.107303,47.7633601 120.070715,49.081557 121.267681,50.1315622 C122.463658,51.1820622 123.805606,51.9747617 125.295505,52.5111451 C126.784415,53.0480233 128.285694,53.3167098 129.799345,53.3167098 C131.312005,53.3167098 132.813285,53.0480233 134.303184,52.5111451 C135.792093,51.9747617 137.134536,51.1820622 138.331008,50.1315622 C139.52649,49.081557 140.491386,47.7633601 141.223718,46.1764767 C141.569596,45.4278161 141.830365,44.6138394 142.012953,43.7399896 L134.492205,42.8785104 C134.241826,43.5653187 133.862795,44.1284223 133.351153,44.565842" id="Fill-11" fill="#007A71"></path>
                <path d="M142.322215,13.0384715 C142.322215,11.9097902 142.212365,10.8533523 142.000583,9.86519948 L134.489236,10.7251943 C134.730212,11.3823135 134.852433,12.1527461 134.852433,13.0384715 L134.852433,40.5741399 C134.852433,41.4564016 134.730707,42.2233705 134.492205,42.8790052 L142.012953,43.7399896 C142.216819,42.762228 142.322215,41.7087591 142.322215,40.5741399 L142.322215,13.0384715" id="Fill-12" fill="#E26540"></path>
                <path d="M124.746256,40.5741399 L124.746256,13.0384715 C124.746256,12.6079793 124.77743,12.2071762 124.833345,11.831114 L117.283896,12.6955622 C117.281917,12.8098653 117.276474,12.9226839 117.276474,13.0384715 L117.276474,40.5741399 C117.276474,40.6874534 117.281917,40.7963135 117.283402,40.9081425 L124.832355,41.7725907 C124.77644,41.3990026 124.746256,41.0006736 124.746256,40.5741399" id="Fill-13" fill="#E26540"></path>
                <polyline id="Fill-14" fill="#007A71" points="174.984205 52.8773109 182.014588 52.8773109 182.014588 48.3205259 172.944562 47.2814067 174.984205 52.8773109"></polyline>
                <polyline id="Fill-15" fill="#007A71" points="155.943088 52.8773109 163.41287 52.8773109 163.41287 46.1903316 155.943088 45.3347902 155.943088 52.8773109"></polyline>
                <polyline id="Fill-16" fill="#007A71" points="182.014588 0.735300518 174.544311 0.735300518 174.544311 6.13872021 182.014588 5.28317876 182.014588 0.735300518"></polyline>
                <polyline id="Fill-17" fill="#007A71" points="163.119938 0.735300518 155.943088 0.735300518 155.943088 8.26891451 165.434205 7.18179793 163.119938 0.735300518"></polyline>
                <polyline id="Fill-18" fill="#E26540" points="174.544311 6.13872021 174.544311 32.1523264 174.397845 32.1523264 165.434205 7.18179793 155.943088 8.26891451 155.943088 45.3347902 163.41287 46.1903316 163.41287 21.5335181 163.559337 21.5335181 172.944562 47.2814067 182.014588 48.3205259 182.014588 5.28317876 174.544311 6.13872021"></polyline>
                <path d="M20.865513,3.91203627 C19.7912617,2.81304404 18.5334326,1.93474093 17.0940052,1.27564249 C15.6530933,0.616544041 14.1028264,0.286994819 12.4436995,0.286994819 C11.0270337,0.286994819 9.58760622,0.482448187 8.12294301,0.872365285 C6.65827979,1.2627772 5.3400829,1.93474093 4.16835233,2.88677202 C2.99662176,3.83880311 2.03172539,5.09514767 1.27564249,6.65827979 C0.51807513,8.21992746 0.140528497,10.1972228 0.140528497,12.589671 L0.140528497,41.0135389 C0.140528497,43.405987 0.51807513,45.3837772 1.27564249,46.9454249 C2.03172539,48.508557 2.99662176,49.7649016 4.16835233,50.7169326 C5.3400829,51.6689637 6.65827979,52.3404326 8.12294301,52.7303497 C9.58760622,53.1207617 11.0270337,53.3167098 12.4436995,53.3167098 C14.1028264,53.3167098 15.6530933,52.9871606 17.0940052,52.3280622 C18.5334326,51.6689637 19.7912617,50.7901658 20.865513,49.6916684 C21.9387746,48.593171 22.780956,47.3115907 23.392057,45.8469275 C24.0016736,44.3822642 24.3074715,42.8443679 24.3074715,41.2332383 L24.3074715,36.0722798 L16.7570337,35.2365311 L16.7570337,37.5230881 C16.7570337,39.0560363 16.7793005,42.5489611 15.9069352,43.9265363 C15.6911943,44.2674663 15.4427953,44.5683161 15.1548109,44.8310648 C14.7188756,45.1774378 14.2438497,45.4332591 13.7252798,45.5906114 C13.3121062,45.7167902 12.9192202,45.7954663 12.5466218,45.8281244 C12.4347927,45.8360415 12.3214793,45.8424741 12.2032176,45.8449482 C12.185899,45.8449482 12.1675907,45.8469275 12.1507668,45.8469275 C10.4411684,45.8469275 9.25805699,45.3342953 8.59895855,44.3090311 C7.9398601,43.2837668 7.61031088,42.0150518 7.61031088,40.5009067 L7.61031088,13.1023031 C7.61031088,11.5886528 7.9398601,10.319443 8.59895855,9.29467358 C9.25805699,8.26940933 10.4411684,7.7567772 12.1507668,7.7567772 C12.1675907,7.7567772 12.185899,7.75875648 12.2032176,7.75875648 C12.3214793,7.76123057 12.4347927,7.76766321 12.5466218,7.77558031 C12.9192202,7.80873316 13.3121062,7.88641969 13.7252798,8.01259845 C14.2438497,8.1704456 14.7188756,8.42626684 15.1548109,8.7726399 C15.4427953,9.0353886 15.6911943,9.33623834 15.9069352,9.67617876 C16.7793005,11.0547435 16.7570337,14.5471736 16.7570337,16.0806166 L16.7570337,18.3671736 L24.2965855,17.4240492 L24.3074715,12.3704663 C24.3074715,10.7593368 24.0016736,9.2209456 23.392057,7.7567772 C22.780956,6.29211399 21.9387746,5.01053368 20.865513,3.91203627" id="Fill-19" fill="#007A71"></path>
                <path d="M187.849984,3.11735751 L188.391316,3.11735751 C188.626355,3.11735751 188.8035,3.08222539 188.921762,3.01245596 C189.039528,2.94268653 189.097917,2.82640415 189.097917,2.66261917 C189.097917,2.52308031 189.046456,2.42065285 188.943039,2.35583161 C188.839622,2.29101036 188.705526,2.25835233 188.542236,2.25835233 L187.849984,2.25835233 L187.849984,3.11735751 Z M187.373474,1.82538601 L188.528381,1.82538601 C189.22558,1.82538601 189.574427,2.11139119 189.574427,2.68439119 C189.574427,2.82887824 189.553645,2.95159326 189.51307,3.05204145 C189.472,3.15298446 189.416085,3.23759845 189.343842,3.30489378 C189.271598,3.37268394 189.187974,3.42414508 189.094453,3.46026684 C189.000933,3.4963886 188.900484,3.52162435 188.795088,3.53597409 L189.668443,4.8705 L189.09099,4.8705 L188.217635,3.55032383 L187.849984,3.55032383 L187.849984,4.8705 L187.373474,4.8705 L187.373474,1.82538601 Z M190.455205,3.34794301 C190.455205,3.05451554 190.399785,2.77791192 190.288946,2.51813212 C190.178601,2.25835233 190.029166,2.03222021 189.84163,1.83973575 C189.653598,1.6472513 189.432909,1.49435233 189.177583,1.38153368 C188.922751,1.26871503 188.651096,1.21181088 188.362122,1.21181088 C188.073148,1.21181088 187.801987,1.26871503 187.546661,1.38153368 C187.291829,1.49435233 187.070645,1.6472513 186.883109,1.83973575 C186.695573,2.03222021 186.545642,2.25835233 186.434803,2.51813212 C186.324459,2.77791192 186.268544,3.05451554 186.268544,3.34794301 C186.268544,3.64186528 186.324459,3.91846891 186.434803,4.1782487 C186.545642,4.4380285 186.695573,4.66416062 186.883109,4.85615026 C187.070645,5.04912953 187.291829,5.20153368 187.546661,5.31484715 C187.801987,5.4276658 188.073148,5.48456995 188.362122,5.48456995 C188.651096,5.48456995 188.922751,5.4276658 189.177583,5.31484715 C189.432909,5.20153368 189.653598,5.04912953 189.84163,4.85615026 C190.029166,4.66416062 190.178601,4.4380285 190.288946,4.1782487 C190.399785,3.91846891 190.455205,3.64186528 190.455205,3.34794301 L190.455205,3.34794301 Z M185.749479,3.34794301 C185.749479,2.98722021 185.817764,2.64826943 185.955324,2.33059585 C186.092883,2.01292228 186.278935,1.73631865 186.514964,1.50029016 C186.750003,1.26475648 187.027596,1.07820984 187.34428,0.941145078 C187.662448,0.804080311 188.000904,0.735300518 188.362122,0.735300518 C188.722845,0.735300518 189.061795,0.804080311 189.379964,0.941145078 C189.697142,1.07820984 189.974241,1.26475648 190.20928,1.50029016 C190.445803,1.73631865 190.631855,2.01292228 190.76892,2.33059585 C190.906479,2.64826943 190.974764,2.98722021 190.974764,3.34794301 C190.974764,3.7086658 190.906479,4.0481114 190.76892,4.36578497 C190.631855,4.68345855 190.445803,4.96006218 190.20928,5.19559585 C189.974241,5.43162435 189.697142,5.61767617 189.379964,5.75523575 C189.061795,5.8918057 188.722845,5.96108031 188.362122,5.96108031 C188.000904,5.96108031 187.662448,5.8918057 187.34428,5.75523575 C187.027596,5.61767617 186.750003,5.43162435 186.514964,5.19559585 C186.278935,4.96006218 186.092883,4.68345855 185.955324,4.36578497 C185.817764,4.0481114 185.749479,3.7086658 185.749479,3.34794301 L185.749479,3.34794301 Z" id="Fill-20" fill="#007A71"></path>
            </g>
        </g>
    </g>
</svg>