<svg width="230" height="34" xmlns="http://www.w3.org/2000/svg" clip-rule="evenodd" xml:space="preserve" version="1.1">

 <g>
  <title>Layer 1</title>
  <g id="svg_1" transform="matrix(1.10024, 0, 0, 1.10024, -87.2004, -1638.85)">
   <g id="svg_2" transform="matrix(2, 0, 0, 2, 0, 1422.9)">
    <rect id="svg_3" fill="rgb(239,63,54)" height="13.685" width="6.7" y="33.32973" x="39.67782"/>
   </g>
   <g id="svg_4" transform="matrix(2, 0, 0, 2, 106.875, 1491.91)">
    <path id="svg_5" fill="rgb(239,63,54)" d="m0.04982,11.46073c0,0 -0.059,-2.291 -0.059,-2.462c0,-0.229 0.115,-0.284 0.344,-0.229c0.229,0 2.29,0.4 2.29,0.4c0,0 -0.056,-0.4 -0.228,-0.744c-0.057,-0.399 0,-0.457 0.172,-0.514c0.056,-0.059 2.347,-2.061 2.347,-2.061l-0.458,-0.23c-0.115,-0.057 -0.115,-0.286 -0.115,-0.458c0,-0.059 0.401,-1.488 0.401,-1.488c0,0 -0.974,0.286 -1.201,0.286c-0.23,0 -0.287,0 -0.345,-0.115c0,-0.229 -0.286,-0.744 -0.286,-0.744c0,0 -1.146,1.374 -1.201,1.374c-0.23,0.229 -0.459,0 -0.459,-0.228c0.057,-0.231 0.629,-2.921 0.629,-2.921c0,0 -0.629,0.344 -0.859,0.516c-0.172,0.113 -0.343,0.057 -0.4,-0.172c-0.172,-0.113 -0.858,-1.774 -0.858,-1.774c0,0 -0.803,1.661 -0.86,1.774c-0.173,0.229 -0.229,0.285 -0.515,0.172c-0.229,-0.172 -0.859,-0.516 -0.859,-0.516c0,0 0.573,2.69 0.63,2.921c0,0.228 -0.115,0.457 -0.401,0.228l-1.202,-1.374c0,0 -0.23,0.515 -0.287,0.744c-0.115,0.115 -0.229,0.115 -0.401,0.115c-0.171,0 -1.26,-0.286 -1.26,-0.286c0,0 0.401,1.429 0.516,1.488c0.057,0.172 0.057,0.401 -0.23,0.458l-0.286,0.23c0,0 2.291,2.002 2.291,2.061c0.115,0.057 0.286,0.115 0.115,0.514c-0.115,0.344 -0.287,0.744 -0.287,0.744c0,0 2.233,-0.4 2.463,-0.4c0.227,-0.055 0.343,0 0.343,0.229c0,0.171 -0.057,2.462 -0.057,2.462l0.573,0z"/>
   </g>
   <g id="svg_6" transform="matrix(-2, 0, 0, 2, 253.03, 1422.9)">
    <rect id="svg_7" fill="rgb(239,63,54)" height="13.686" width="6.815" y="33.32973" x="59.80017"/>
   </g>
   <g id="svg_8" transform="matrix(2, 0, 0, 2, 156.428, 1489.8)">
    <path id="svg_9" fill="rgb(35,31,32)" fill-rule="nonzero" d="m0.04983,5.51373l0.982,0l0,-2.145l1.496,0c1.604,0.007 1.912,-1.033 1.912,-1.728c0,-0.704 -0.308,-1.744 -1.912,-1.744l-2.478,0l0,5.617zm0.982,-4.812l1.457,0c0.519,0 0.967,0.186 0.967,0.931c0,0.711 -0.544,0.93 -0.984,0.93l-1.44,0l0,-1.861z"/>
   </g>
   <g id="svg_10" transform="matrix(2, 0, 0, 2, 173.375, 1501.26)">
    <path id="svg_11" fill="rgb(35,31,32)" fill-rule="nonzero" d="m0.04983,-4.28027l-0.896,0l0,2.359c0,0.629 -0.252,1.108 -1.001,1.108c-0.488,0 -0.778,-0.258 -0.778,-0.974l0,-2.493l-0.897,0l0,2.58c0,1.062 0.457,1.597 1.519,1.597c0.447,0 0.936,-0.269 1.157,-0.677l0.015,0l0,0.565l0.881,0l0,-4.065z"/>
   </g>
   <g id="svg_12" transform="matrix(2, 0, 0, 2, 174.873, 1490.03)">
    <path id="svg_13" fill="rgb(35,31,32)" fill-rule="nonzero" d="m0.04983,5.40173l0.85,0l0,-0.558l0.015,0c0.268,0.534 0.858,0.67 1.408,0.67c1.204,0 1.755,-1.032 1.755,-2.124c0,-1.189 -0.622,-2.164 -1.903,-2.164c-0.458,0 -0.968,0.244 -1.212,0.638l-0.016,0l0,-2.079l-0.897,0l0,5.617zm3.132,-2.028c0,0.708 -0.307,1.43 -1.126,1.43c-0.724,0 -1.141,-0.61 -1.141,-1.43c0,-0.866 0.386,-1.441 1.141,-1.441c0.741,0 1.126,0.7 1.126,1.441"/>
   </g>
   <g id="svg_14" transform="matrix(2, 0, 0, 2, 0, 1406.84)">
    <rect id="svg_15" fill="rgb(35,31,32)" height="5.617" width="0.894" y="41.37773" x="92.07582"/>
   </g>
   <g id="svg_16" transform="matrix(2, 0, 0, 2, 0, 1406.84)">
    <path id="svg_17" fill="rgb(35,31,32)" fill-rule="nonzero" d="m93.75182,42.22773l0.897,0l0,-0.85l-0.897,0l0,0.85zm0,4.767l0.897,0l0,-4.065l-0.897,0l0,4.065z"/>
   </g>
   <g id="svg_18" transform="matrix(2, 0, 0, 2, 197.997, 1498.32)">
    <path id="svg_19" fill="rgb(35,31,32)" fill-rule="nonzero" d="m0.04983,-1.44927c-0.088,-0.999 -0.888,-1.471 -1.834,-1.471c-1.336,0 -2.005,0.96 -2.005,2.187c0,1.195 0.7,2.101 1.974,2.101c1.046,0 1.7,-0.583 1.865,-1.638l-0.898,0c-0.087,0.583 -0.448,0.928 -0.967,0.928c-0.779,0 -1.077,-0.717 -1.077,-1.391c0,-1.234 0.652,-1.48 1.117,-1.48c0.495,0 0.857,0.268 0.927,0.764l0.898,0z"/>
   </g>
   <g id="svg_20" transform="matrix(2, 0, 0, 2, 204.036, 1489.8)">
    <path id="svg_21" fill="rgb(35,31,32)" fill-rule="nonzero" d="m0.04983,5.51373l0.984,0l0,-2.532l2.556,0l0,2.532l0.983,0l0,-5.617l-0.983,0l0,2.236l-2.556,0l0,-2.236l-0.984,0l0,5.617z"/>
   </g>
   <g id="svg_22" transform="matrix(2, 0, 0, 2, 216.157, 1497.69)">
    <path id="svg_23" fill="rgb(35,31,32)" fill-rule="nonzero" d="m0.04983,-0.82227c0.022,-0.606 0.448,-1.077 1.069,-1.077c0.607,0 0.991,0.511 1.023,1.077l-2.092,0zm2.989,0.591c0.15,-1.218 -0.637,-2.375 -1.92,-2.375c-1.211,0 -1.967,0.991 -1.967,2.148c0,1.249 0.716,2.139 1.991,2.139c0.889,0 1.645,-0.495 1.841,-1.383l-0.848,0c-0.16,0.445 -0.474,0.673 -0.993,0.673c-0.747,0 -1.093,-0.564 -1.093,-1.202l2.989,0z"/>
   </g>
   <g id="svg_24" transform="matrix(2, 0, 0, 2, 229.877, 1498.91)">
    <path id="svg_25" fill="rgb(35,31,32)" fill-rule="nonzero" d="m0.04983,-2.03427c0,-0.857 -0.834,-1.178 -1.627,-1.178c-0.896,0 -1.786,0.306 -1.85,1.352l0.897,0c0.04,-0.439 0.394,-0.646 0.897,-0.646c0.364,0 0.842,0.088 0.842,0.552c0,0.526 -0.575,0.456 -1.22,0.572c-0.754,0.087 -1.566,0.253 -1.566,1.268c0,0.796 0.662,1.189 1.393,1.189c0.48,0 1.056,-0.151 1.41,-0.495c0.07,0.369 0.33,0.495 0.692,0.495c0.148,0 0.432,-0.053 0.566,-0.102l0,-0.622c-0.095,0.014 -0.165,0.014 -0.221,0.014c-0.164,0 -0.213,-0.084 -0.213,-0.305l0,-2.094zm-0.896,1.629c0,0.566 -0.614,0.77 -1.007,0.77c-0.315,0 -0.826,-0.117 -0.826,-0.519c0,-0.471 0.346,-0.612 0.732,-0.678c0.394,-0.067 0.826,-0.061 1.101,-0.242l0,0.669z"/>
   </g>
   <g id="svg_26" transform="matrix(2, 0, 0, 2, 0, 1406.84)">
    <rect id="svg_27" fill="rgb(35,31,32)" height="5.617" width="0.896" y="41.37773" x="115.76182"/>
   </g>
   <g id="svg_28" transform="matrix(2, 0, 0, 2, 233.914, 1497.35)">
    <path id="svg_29" fill="rgb(35,31,32)" fill-rule="nonzero" d="m0.04983,-1.65327l0.676,0l0,2.399c0.016,0.677 0.19,1.039 1.124,1.039c0.197,0 0.386,-0.032 0.583,-0.048l0,-0.693c-0.125,0.032 -0.252,0.032 -0.376,0.032c-0.403,0 -0.434,-0.189 -0.434,-0.558l0,-2.171l0.81,0l0,-0.669l-0.81,0l0,-1.219l-0.897,0l0,1.219l-0.676,0l0,0.669z"/>
   </g>
   <g id="svg_30" transform="matrix(2, 0, 0, 2, 239.534, 1489.8)">
    <path id="svg_31" fill="rgb(35,31,32)" fill-rule="nonzero" d="m0.04983,5.51373l0.896,0l0,-2.398c0,-0.599 0.387,-1.071 0.984,-1.071c0.527,0 0.779,0.276 0.794,0.913l0,2.556l0.897,0l0,-2.792c0,-0.912 -0.557,-1.384 -1.44,-1.384c-0.535,0 -0.999,0.275 -1.218,0.645l-0.017,0l0,-2.086l-0.896,0l0,5.617z"/>
   </g>
   <g id="svg_32" transform="matrix(2, 0, 0, 2, 155.118, 1506.05)">
    <path id="svg_33" fill="rgb(35,31,32)" fill-rule="nonzero" d="m0.04983,5.51473l1.016,0l0.527,-1.488l2.242,0l0.527,1.488l1.054,0l-2.163,-5.618l-1.046,0l-2.157,5.618zm2.659,-4.65l0.025,0l0.841,2.415l-1.715,0l0.849,-2.415z"/>
   </g>
   <g id="svg_34" transform="matrix(2, 0, 0, 2, 173.751, 1520.29)">
    <path id="svg_35" fill="rgb(35,31,32)" fill-rule="nonzero" d="m0.04983,-5.67127l-0.897,0l0,0.557l-0.014,0c-0.23,-0.455 -0.694,-0.669 -1.204,-0.669c-1.157,0 -1.84,0.944 -1.84,2.037c0,1.166 0.535,2.142 1.823,2.142c0.505,0 0.967,-0.267 1.221,-0.716l0.014,0l0,0.62c0,0.671 -0.322,1.042 -1.046,1.042c-0.456,0 -0.864,-0.09 -0.975,-0.598l-0.897,0c0.078,0.952 1,1.265 1.818,1.265c1.281,0 1.997,-0.607 1.997,-1.827l0,-3.853zm-1.989,3.357c-0.748,0 -1.07,-0.677 -1.07,-1.344c0,-0.676 0.275,-1.418 1.07,-1.418c0.778,0 1.092,0.648 1.092,1.346c0,0.694 -0.299,1.416 -1.092,1.416"/>
   </g>
   <g id="svg_36" transform="matrix(2, 0, 0, 2, 176.526, 1513.93)">
    <path id="svg_37" fill="rgb(35,31,32)" fill-rule="nonzero" d="m0.04983,-0.81927c0.023,-0.606 0.448,-1.079 1.07,-1.079c0.606,0 0.991,0.514 1.021,1.079l-2.091,0zm2.988,0.589c0.15,-1.218 -0.636,-2.375 -1.918,-2.375c-1.212,0 -1.967,0.99 -1.967,2.147c0,1.252 0.716,2.141 1.99,2.141c0.889,0 1.644,-0.495 1.841,-1.387l-0.85,0c-0.157,0.451 -0.472,0.677 -0.991,0.677c-0.747,0 -1.093,-0.565 -1.093,-1.203l2.988,0z"/>
   </g>
   <g id="svg_38" transform="matrix(2, 0, 0, 2, 183.436, 1508.93)">
    <path id="svg_39" fill="rgb(35,31,32)" fill-rule="nonzero" d="m0.04983,4.07473l0.897,0l0,-2.402c0,-0.596 0.385,-1.07 0.983,-1.07c0.526,0 0.779,0.277 0.794,0.916l0,2.556l0.896,0l0,-2.793c0,-0.914 -0.556,-1.385 -1.438,-1.385c-0.536,0 -1,0.274 -1.268,0.724l-0.014,-0.018l0,-0.595l-0.85,0l0,4.067z"/>
   </g>
   <g id="svg_40" transform="matrix(2, 0, 0, 2, 199.314, 1514.56)">
    <path id="svg_41" fill="rgb(35,31,32)" fill-rule="nonzero" d="m0.04983,-1.45227c-0.087,-0.998 -0.89,-1.47 -1.833,-1.47c-1.338,0 -2.005,0.961 -2.005,2.188c0,1.195 0.698,2.101 1.974,2.101c1.046,0 1.698,-0.584 1.864,-1.636l-0.897,0c-0.087,0.582 -0.448,0.925 -0.967,0.925c-0.779,0 -1.077,-0.716 -1.077,-1.39c0,-1.235 0.652,-1.481 1.116,-1.481c0.496,0 0.858,0.268 0.928,0.763l0.897,0z"/>
   </g>
   <g id="svg_42" transform="matrix(2, 0, 0, 2, 202.525, 1512.41)">
    <path id="svg_43" fill="rgb(35,31,32)" fill-rule="nonzero" d="m0.04983,2.31673l-0.101,0.314c-0.111,0.35 -0.213,0.569 -0.629,0.569c-0.143,0 -0.284,-0.032 -0.426,-0.057l0,0.756c0.205,0.033 0.409,0.048 0.622,0.048c0.936,0 1.149,-0.661 1.44,-1.392l1.58,-4.288l-0.937,0l-1.029,3.033l-0.015,0l-1.062,-3.033l-0.984,0l1.541,4.05z"/>
   </g>
   <g id="svg_44" transform="matrix(2, 0, 0, 2, 216.61, 1508.93)">
    <path id="svg_45" fill="rgb(35,31,32)" fill-rule="nonzero" d="m0.04983,4.18473c1.305,0 2.053,-0.899 2.053,-2.148c0,-1.244 -0.748,-2.14 -2.053,-2.14c-1.307,0 -2.054,0.896 -2.054,2.14c0,1.249 0.747,2.148 2.054,2.148m0,-0.711c-0.803,0 -1.157,-0.729 -1.157,-1.437c0,-0.7 0.354,-1.434 1.157,-1.434c0.803,0 1.156,0.734 1.156,1.434c0,0.708 -0.353,1.437 -1.156,1.437"/>
   </g>
   <g id="svg_46" transform="matrix(2, 0, 0, 2, 220.97, 1512.85)">
    <path id="svg_47" fill="rgb(35,31,32)" fill-rule="nonzero" d="m0.04983,-1.28427l0.669,0l0,3.399l0.896,0l0,-3.399l0.764,0l0,-0.668l-0.764,0l0,-0.419c0,-0.338 0.197,-0.425 0.442,-0.425c0.181,0 0.298,0.018 0.415,0.047l0,-0.699c-0.14,-0.037 -0.345,-0.054 -0.628,-0.054c-0.583,0 -1.125,0.173 -1.125,1.212l0,0.338l-0.669,0l0,0.668z"/>
   </g>
   <g id="svg_48" transform="matrix(2, 0, 0, 2, 240.905, 1513.72)">
    <path id="svg_49" fill="rgb(35,31,32)" fill-rule="nonzero" d="m0.04983,-2.15327c-0.117,-1.209 -1.118,-1.908 -2.383,-1.918c-1.685,0 -2.691,1.338 -2.691,2.941c0,1.606 1.006,2.945 2.691,2.945c1.36,0 2.312,-0.93 2.39,-2.276l-0.959,0c-0.078,0.819 -0.558,1.47 -1.431,1.47c-1.204,0 -1.709,-1.061 -1.709,-2.139c0,-1.077 0.505,-2.138 1.709,-2.138c0.817,0 1.235,0.472 1.399,1.115l0.984,0z"/>
   </g>
   <g id="svg_50" transform="matrix(2, 0, 0, 2, 248.838, 1515.14)">
    <path id="svg_51" fill="rgb(35,31,32)" fill-rule="nonzero" d="m0.04983,-2.03027c0,-0.857 -0.834,-1.181 -1.628,-1.181c-0.898,0 -1.787,0.308 -1.85,1.355l0.897,0c0.041,-0.442 0.394,-0.648 0.897,-0.648c0.362,0 0.842,0.088 0.842,0.554c0,0.526 -0.573,0.454 -1.219,0.573c-0.756,0.086 -1.565,0.251 -1.565,1.268c0,0.793 0.659,1.187 1.391,1.187c0.481,0 1.054,-0.148 1.409,-0.495c0.07,0.368 0.331,0.495 0.692,0.495c0.151,0 0.433,-0.054 0.566,-0.102l0,-0.623c-0.094,0.014 -0.164,0.014 -0.22,0.014c-0.165,0 -0.212,-0.085 -0.212,-0.306l0,-2.091zm-0.898,1.629c0,0.565 -0.612,0.768 -1.006,0.768c-0.314,0 -0.826,-0.115 -0.826,-0.514c0,-0.474 0.347,-0.618 0.732,-0.678c0.392,-0.073 0.827,-0.064 1.1,-0.246l0,0.67z"/>
   </g>
   <g id="svg_52" transform="matrix(2, 0, 0, 2, 250.336, 1508.93)">
    <path id="svg_53" fill="rgb(35,31,32)" fill-rule="nonzero" d="m0.04983,4.07473l0.897,0l0,-2.402c0,-0.596 0.385,-1.07 0.983,-1.07c0.526,0 0.779,0.277 0.794,0.916l0,2.556l0.898,0l0,-2.793c0,-0.914 -0.56,-1.385 -1.44,-1.385c-0.536,0 -0.999,0.274 -1.267,0.724l-0.015,-0.018l0,-0.595l-0.85,0l0,4.067z"/>
   </g>
   <g id="svg_54" transform="matrix(2, 0, 0, 2, 265.745, 1515.14)">
    <path id="svg_55" fill="rgb(35,31,32)" fill-rule="nonzero" d="m0.04982,-2.03027c0,-0.857 -0.835,-1.181 -1.629,-1.181c-0.898,0 -1.786,0.308 -1.85,1.355l0.897,0c0.04,-0.442 0.393,-0.648 0.896,-0.648c0.363,0 0.843,0.088 0.843,0.554c0,0.526 -0.575,0.454 -1.219,0.573c-0.755,0.086 -1.566,0.251 -1.566,1.268c0,0.793 0.661,1.187 1.393,1.187c0.479,0 1.054,-0.148 1.409,-0.495c0.07,0.368 0.33,0.495 0.692,0.495c0.149,0 0.432,-0.054 0.566,-0.102l0,-0.623c-0.095,0.014 -0.166,0.014 -0.221,0.014c-0.165,0 -0.211,-0.085 -0.211,-0.306l0,-2.091zm-0.897,1.629c0,0.565 -0.615,0.768 -1.008,0.768c-0.315,0 -0.827,-0.115 -0.827,-0.514c0,-0.474 0.347,-0.618 0.733,-0.678c0.393,-0.073 0.825,-0.064 1.102,-0.246l0,0.67z"/>
   </g>
   <g id="svg_56" transform="matrix(2, 0, 0, 2, 274.901, 1517.5)">
    <path id="svg_57" fill="rgb(35,31,32)" fill-rule="nonzero" d="m0.04982,-5.83127l-0.895,0l0,2.075l-0.017,0c-0.275,-0.446 -0.842,-0.636 -1.353,-0.636c-0.889,0 -1.762,0.646 -1.762,2.116c0,1.22 0.622,2.173 1.904,2.173c0.512,0 1.022,-0.197 1.258,-0.662l0.016,0l0,0.552l0.849,0l0,-5.618zm-3.13,3.627c0,-0.733 0.298,-1.482 1.141,-1.482c0.692,0 1.124,0.538 1.124,1.434c0,0.709 -0.338,1.437 -1.141,1.437c-0.778,0 -1.124,-0.69 -1.124,-1.389"/>
   </g>
   <g id="svg_58" transform="matrix(2, 0, 0, 2, 283.23, 1515.14)">
    <path id="svg_59" fill="rgb(35,31,32)" fill-rule="nonzero" d="m0.04982,-2.03027c0,-0.857 -0.833,-1.181 -1.628,-1.181c-0.897,0 -1.787,0.308 -1.85,1.355l0.897,0c0.039,-0.442 0.395,-0.648 0.897,-0.648c0.362,0 0.843,0.088 0.843,0.554c0,0.526 -0.576,0.454 -1.221,0.573c-0.755,0.086 -1.566,0.251 -1.566,1.268c0,0.793 0.662,1.187 1.394,1.187c0.479,0 1.053,-0.148 1.407,-0.495c0.071,0.368 0.331,0.495 0.694,0.495c0.148,0 0.432,-0.054 0.566,-0.102l0,-0.623c-0.095,0.014 -0.166,0.014 -0.221,0.014c-0.164,0 -0.212,-0.085 -0.212,-0.306l0,-2.091zm-0.898,1.629c0,0.565 -0.613,0.768 -1.007,0.768c-0.314,0 -0.826,-0.115 -0.826,-0.514c0,-0.474 0.348,-0.618 0.732,-0.678c0.393,-0.073 0.827,-0.064 1.101,-0.246l0,0.67z"/>
   </g>
   <g id="svg_60" transform="matrix(2, 0, 0, 2, 305.272, 1489.8)"/>
   <g id="svg_62" transform="matrix(2, 0, 0, 2, 323.907, 1504.05)"/>
   <g id="svg_64" transform="matrix(2, 0, 0, 2, 326.68, 1497.69)"/>
   <g id="svg_66" transform="matrix(2, 0, 0, 2, 333.588, 1492.69)"/>
   <g id="svg_70" transform="matrix(2, 0, 0, 2, 351.893, 1497.69)"/>
   <g id="svg_72" transform="matrix(2, 0, 0, 2, 371.279, 1501.26)"/>
  </g>
 </g>
</svg>