<?xml version="1.0" encoding="utf-8"?>
<!-- Generator: Adobe Illustrator 16.0.4, SVG Export Plug-In . SVG Version: 6.00 Build 0)  -->
<!DOCTYPE svg PUBLIC "-//W3C//DTD SVG 1.1//EN" "http://www.w3.org/Graphics/SVG/1.1/DTD/svg11.dtd">
<svg version="1.1" id="Layer_1" xmlns="http://www.w3.org/2000/svg" xmlns:xlink="http://www.w3.org/1999/xlink" x="0px" y="0px"
	 width="300px" height="30px" viewBox="0 0 300 30" enable-background="new 0 0 300 30" xml:space="preserve">
<g>
	<path d="M0,25.785"/>
	<path d="M163.174,10.06c-0.297,1.954-1.845,3.484-3.692,3.484c-1.418,0-2.045-0.685-2.737-1.53l-0.13,0.065v6.999
		c0,2.247,1.22,3.386,4.054,3.94l1.88-1.856l0.396,0.391l-4.385,4.233c-4.121-0.62-5.969-3.028-5.969-6.023V14.78
		c0-0.55-0.031-0.879-0.263-1.172c2.275-0.976,5.507-2.93,7.419-4.524c0.36,0.488,1.088,1.106,1.912,1.106
		c0.418,0,0.877-0.124,1.219-0.326C163.067,9.753,163.205,9.853,163.174,10.06z"/>
	<polygon points="135.973,4.526 133.599,6.902 131.128,4.656 133.533,2.182 	"/>
	<path d="M139.27,22.366l-3.494,3.419c-1.781-0.62-3.133-1.848-3.133-3.875v-7.975c0-0.927-0.368-1.583-1.22-2.019l-1.188,1.172
		l-0.362-0.358l3.726-3.679c2.406,1.274,3.066,2.711,3.066,4.362v7.879c0,0.839,0.364,1.367,1.222,1.693l0.988-1.01L139.27,22.366z"
		/>
	<path d="M130.367,10.06c-0.295,1.954-1.845,3.484-3.693,3.484c-1.417,0-2.044-0.685-2.736-1.53l-0.13,0.065v6.999
		c0,2.247,1.22,3.386,4.053,3.94l1.882-1.856l0.396,0.391l-4.386,4.233c-4.121-0.62-5.968-3.028-5.968-6.023V14.78
		c0-0.55-0.032-0.879-0.264-1.172c2.275-0.976,5.507-2.93,7.418-4.524c0.363,0.488,1.089,1.106,1.913,1.106
		c0.417,0,0.878-0.124,1.221-0.326C130.262,9.753,130.399,9.853,130.367,10.06z"/>
	<path d="M119.224,22.496l-3.363,3.289c-1.846-0.684-3.23-1.902-3.23-3.842v-6.739c0-2.051-0.298-2.832-2.011-3.548l-1.649,1.595
		v8.205c0,1.004,0.463,1.431,1.387,1.79l-2.574,2.54c-2.076-0.814-2.835-1.986-2.835-4.037v-7.977c0-1.205-0.33-1.595-1.221-1.92
		l-0.89,0.879l-0.395-0.358l3.33-3.321c2.142,0.521,3.099,1.92,3.165,3.483l3.561-3.483c2.735,0.619,4.154,2.051,4.154,4.85v7.781
		c0,0.812,0.429,1.238,1.153,1.434l0.99-1.01L119.224,22.496z"/>
	<path d="M91.265,10.028c-0.495,2.018-1.781,3.353-3.726,3.353c-1.145,0-1.946-0.521-2.508-1.107l-0.098,0.066v8.398
		c0,1.172,0.165,1.758,1.879,2.247l1.022-1.042l0.396,0.392l-3.528,3.451c-2.836-0.782-3.792-2.265-3.792-4.526V14.26
		c0-1.238-0.297-1.954-1.154-2.181l-1.056,1.041l-0.395-0.39l3.726-3.679c1.617,0.293,2.671,1.693,2.735,2.93l3.067-2.93
		c0.396,0.585,1.155,1.205,1.847,1.205c0.43,0,0.89-0.13,1.219-0.392C91.086,9.72,91.308,9.857,91.265,10.028z"/>
	<path d="M70.954,1.238c-0.843,1.747-2.287,3.027-4.813,3.027c-1.385,0-3.918-0.945-4.913-0.945c-1.583,0-2.275,0.481-2.275,1.4
		c0,0.316,0.231,0.569,0.562,0.652c0.293,0.073,0.527,0.248,0.527,0.456c0,0.26-0.165,0.423-0.461,0.423
		c-0.726,0-1.418-0.813-1.418-2.215C58.161,1.692,60.208,0,62.646,0c1.89,0,4.42,1.661,5.703,1.661c0.989,0,1.681-0.261,2.407-0.782
		C71.002,0.703,71.097,0.941,70.954,1.238z"/>
	<path d="M53.314,22.496l-3.362,3.289c-1.847-0.684-3.232-1.902-3.232-3.842v-6.739c0-2.051-0.297-2.832-2.011-3.548L43.06,13.25
		v8.205c0,1.004,0.462,1.431,1.385,1.79l-2.572,2.54c-2.077-0.814-2.834-1.986-2.834-4.037v-7.977c0-1.205-0.33-1.595-1.221-1.92
		l-0.89,0.879l-0.396-0.358l3.33-3.321c2.143,0.521,3.099,1.92,3.165,3.483l3.561-3.483c2.737,0.619,4.155,2.051,4.155,4.85v7.781
		c0,0.812,0.429,1.238,1.155,1.434l0.988-1.01L53.314,22.496z"/>
	<path d="M176,21.422c-2.079,0.938-5.383,2.807-7.75,4.363c-2.701-0.62-4.481-2.279-4.481-5.015v-6.023
		c0-0.594-0.067-0.943-0.264-1.203c2.176-0.945,6.002-3.106,7.813-4.363c2.606,0.585,4.45,2.344,4.45,4.883v5.892
		C175.769,20.706,175.863,21.131,176,21.422z M171.747,23.343v-8.237c0-2.116-1.451-3.255-3.793-3.549l-0.162,0.067v8.105
		c0,2.506,1.451,3.32,3.758,3.71L171.747,23.343z"/>
	<path d="M150.876,9.897c0,0-1.661,2.588-3.89,5.599c1.976,0.489,3.329,1.501,3.329,3.354v2.377c0,0.235,0.102,0.814,0.297,1.107
		c-1.615,0.597-4.6,2.12-6.494,3.451c-0.659-0.62-1.22-0.88-2.143-0.88c-1.617,0-2.969,0.88-2.969,2.183
		c0,0.242,0.204,0.455,0.429,0.552c0.242,0.107,0.427,0.291,0.427,0.49c0,0.324-0.296,0.52-0.525,0.52
		c-0.692,0-0.924-0.749-0.924-1.627c0-1.465,1.261-2.722,2.571-4.46c0,0,1.956-2.626,2.408-3.191
		c-2.604-0.879-4.022-1.831-4.022-3.744v-1.336c0-0.567-0.033-1.041-0.264-1.464c1.715-0.553,5.012-2.604,6.658-3.743
		c0.471,0.666,1.519,1.205,2.243,1.205c1.022,0,1.847-0.294,2.638-0.716C150.885,9.444,151.104,9.569,150.876,9.897z M148.8,11.948
		l-0.066-0.065c-0.792,0.637-1.695,1.139-2.605,1.139c-1.379,0-1.979-0.618-2.638-1.465l-0.132,0.033v2.833
		c0,1.158,0.562,1.496,2.177,2.018C146.767,14.848,148.8,11.948,148.8,11.948z M146.292,23.181v-2.833
		c0-1.335-0.361-1.66-1.416-1.986c-1.12,1.498-3.363,4.525-3.363,4.525l0.065,0.034c0.824-0.554,1.715-0.717,2.342-0.717
		c0.889,0,1.779,0.424,2.274,1.042L146.292,23.181z"/>
	<path d="M103.332,22.627l-3.199,3.158c-1.285-0.391-2.835-1.368-3.132-3.062h-0.066l-4.12,3.062c-1.88-0.554-3.1-2.345-3.1-4.2
		c0-3.093,3.264-4.786,7.188-5.374v-1.073c0-1.824-0.694-3.091-4.022-3.158l-1.089,1.041l-0.395-0.358l3.659-3.613
		c3.198,0,5.869,2.051,5.869,5.176v7.292c0,1.129,0.526,1.466,1.055,1.662l0.955-0.913L103.332,22.627z M96.902,22.203v-5.469
		c-2.045,0.619-3.33,1.756-3.33,3.711c0,1.66,0.626,2.409,1.747,2.865L96.902,22.203z"/>
	<path d="M82.197,2.409c-0.462,1.66-1.869,3.452-4.154,3.452c-0.702,0-1.308-0.134-1.946-0.424v4.655h2.638l-1.517,3.222h-1.121
		v12.47c0,0.144-0.165,0.227-0.297,0.227c-0.132,0-0.297-0.07-0.297-0.227v-12.47h-1.978v4.461c0,4.615-2.066,5.67-7.155,8.953
		c-1.489-1.23-2.682-2.214-5.209-2.214c-3.767,0-5.078,1.262-5.078,2.93c0,1.113,0.511,1.38,0.924,1.562
		c0.231,0.102,0.461,0.256,0.461,0.521c0,0.293-0.198,0.457-0.494,0.457c-0.857,0-1.583-1.003-1.583-3.19
		c0-3.226,2.626-5.959,7.221-5.959c3.154,0,4.93,1.121,6.528,2.767V5.73l-1.285,0.585v8.074c0,2.666-0.819,4.579-5.341,5.99
		c-0.208,0.064-0.396-0.099-0.165-0.261c1.296-0.914,1.681-1.384,1.681-3.451v-3.354h-0.726c-1.634,0-1.825,0.574-1.944,1.303
		c-0.013,0.082-0.133,0.159-0.297,0c-0.307-0.296-0.66-0.915-0.66-1.758c0-1.989,1.176-2.767,3.1-2.767h0.527V9.506
		c0-0.977-0.112-1.596-0.362-2.083c4.327-1.539,9.292-3.76,13.55-6.837c0.612,0.687,1.51,1.725,3.462,1.725
		c0.429,0,0.857-0.064,1.187-0.227C82.144,1.947,82.288,2.082,82.197,2.409z M75.503,10.092V5.208
		c-0.837-0.472-1.449-1.144-1.78-1.888l-0.198,0.131v6.641H75.503z"/>
	<path d="M37.422,22.627l-3.198,3.158c-1.287-0.391-2.836-1.368-3.133-3.062h-0.066l-4.121,3.062
		c-1.879-0.554-3.099-2.345-3.099-4.2c0-3.093,3.264-4.786,7.187-5.374v-1.073c0-1.824-0.692-3.091-4.021-3.158l-1.088,1.041
		l-0.396-0.358l3.66-3.613c3.199,0,5.869,2.051,5.869,5.176v7.292c0,1.129,0.527,1.466,1.055,1.662l0.957-0.913L37.422,22.627z
		 M30.992,22.203v-5.469c-2.043,0.619-3.329,1.756-3.329,3.711c0,1.66,0.627,2.409,1.748,2.865L30.992,22.203z"/>
	<path d="M24.135,15.009c0,2.877-2.256,5.183-4.583,7.748c-1.182,1.303-2.412,2.634-3.561,3.907
		c-1.587-1.564-3.912-2.604-6.562-2.604c-4.25,0-6.495,1.435-6.495,3.321c0,0.912,0.296,1.35,0.659,1.498
		c0.402,0.163,0.725,0.313,0.725,0.683c0,0.312-0.263,0.424-0.528,0.424c-0.856,0-1.549-1.266-1.549-3.061
		c0-3.335,2.621-6.738,8.507-6.738c3.51,0,5.813,1.119,7.715,2.766c0.923-1.064,2.803-3.372,2.803-5.535
		c0-3.37-2.279-4.579-5.606-5.208l-1.549-0.293l-0.495,0.683l1.616,0.327c3.128,0.629,5.078,1.719,5.078,4.395
		c0,1.692-0.693,2.896-1.385,3.711c0.022-0.238,0.033-0.46,0.033-0.685c0-1.938-1.342-3.437-5.638-4.33l-1.879-0.391
		c-1.78,2.278-2.727,3.027-3.99,3.027c-0.729,0-1.055-0.26-1.055-0.585c0-0.358,0.296-0.555,0.692-0.555
		c0.363,0,0.562,0.458,0.924,0.458c0.659,0,1.483-0.814,2.835-2.476l-1.32-0.292c-3.275-0.728-4.846-1.985-4.846-4.003
		c0-1.269,0.527-1.971,0.99-2.214c0.728,1.651,2.422,2.457,5.736,3.125l1.616,0.327l0.494-0.684l-1.582-0.326
		c-4.697-0.966-6.1-2.349-6.1-5.209c0-3.224,2.77-5.925,7.253-5.925c2.837,0,4.985,0.842,6.957,2.181l0.89-1.107
		c0.092-0.114,0.2-0.129,0.297-0.129c0.132,0,0.255,0.071,0.264,0.194c0.004,0.051,0.012,0.106-0.033,0.163
		c-1.665,2.123-3.809,4.93-4.913,6.74C21.267,9.149,24.135,10.744,24.135,15.009z M17.771,5.502
		c-1.417-1.642-3.977-3.907-7.155-3.907c-1.9,0-3.032,0.899-3.032,2.573c0,1.312,1.285,2.591,4.748,3.288l3.561,0.716
		C16.447,7.412,17.771,5.502,17.771,5.502z"/>
	<path d="M177.944,25.785"/>
	<path d="M177.183,25.785"/>
	<path d="M287.471,22.301l-3.528,3.484c-1.812-0.62-3.166-1.782-3.166-3.875V5.762c0-0.926-0.367-1.583-1.219-2.019l-1.188,1.14
		l-0.362-0.357l3.727-3.647c2.538,0.976,3.065,2.712,3.065,4.363v16.05c0,0.839,0.33,1.367,1.187,1.693l1.088-1.042L287.471,22.301z
		"/>
	<polygon points="265.38,4.526 263.006,6.902 260.532,4.655 262.94,2.182 	"/>
	<path d="M279.59,10.06c-0.297,1.954-1.846,3.483-3.692,3.483c-1.418,0-2.044-0.684-2.737-1.529l-0.132,0.065v6.999
		c0,2.247,1.221,3.386,4.056,3.94l1.881-1.856l0.394,0.391l-4.384,4.233c-4.122-0.62-5.968-3.028-5.968-6.023V14.78
		c0-0.55-0.032-0.879-0.265-1.172c2.275-0.976,5.507-2.93,7.419-4.524c0.363,0.488,1.088,1.106,1.913,1.106
		c0.417,0,0.878-0.124,1.219-0.326C279.483,9.753,279.621,9.853,279.59,10.06z"/>
	<path d="M268.644,22.366l-3.495,3.419c-1.78-0.62-3.133-1.847-3.133-3.875v-7.975c0-0.927-0.366-1.583-1.219-2.019l-1.187,1.172
		l-0.362-0.358l3.725-3.679c2.406,1.274,3.067,2.711,3.067,4.362v7.879c0,0.839,0.361,1.367,1.22,1.693l0.991-1.01L268.644,22.366z"
		/>
	<path d="M260.93,22.496l-3.363,3.289c-1.847-0.684-3.231-1.902-3.231-3.842v-6.739c0-2.051-0.298-2.832-2.011-3.548l-1.649,1.595
		v8.205c0,1.004,0.463,1.431,1.384,1.79l-2.571,2.54c-2.077-0.814-2.835-1.986-2.835-4.037v-7.977c0-1.205-0.329-1.595-1.221-1.92
		l-0.889,0.879l-0.397-0.358l3.331-3.321c2.143,0.521,3.099,1.92,3.165,3.483l3.562-3.483c2.735,0.619,4.152,2.051,4.152,4.85v7.781
		c0,0.812,0.429,1.238,1.154,1.434l0.989-1.01L260.93,22.496z"/>
	<path d="M231.782,10.028c-0.495,2.017-1.78,3.353-3.728,3.353c-1.144,0-1.942-0.521-2.504-1.107l-0.099,0.066v8.398
		c0,1.172,0.164,1.758,1.88,2.247l1.021-1.042l0.397,0.392l-3.529,3.451c-2.835-0.782-3.792-2.265-3.792-4.526V14.26
		c0-1.238-0.297-1.954-1.153-2.181l-1.057,1.041l-0.394-0.39l3.725-3.679c1.616,0.293,2.671,1.693,2.737,2.93l3.065-2.93
		c0.397,0.585,1.154,1.205,1.847,1.205c0.431,0,0.891-0.13,1.221-0.392C231.604,9.72,231.823,9.857,231.782,10.028z"/>
	<path d="M218,20.38c0,5.145-2.605,7.488-6.198,9.54c-0.332,0.19-0.661,0.029-0.297-0.326c1.813-1.757,2.472-3.158,2.472-7.26
		v-7.358c0-1.856-0.46-2.767-2.043-3.288l-1.615,1.562v7.878c0,1.465,0.528,1.823,1.385,2.084l-2.571,2.572
		c-2.044-0.782-2.836-2.02-2.836-3.745V5.762c0-0.926-0.302-1.551-1.154-1.985l-0.956,0.944L203.79,4.33l3.529-3.45
		c2.372,0.976,2.967,2.712,2.967,4.363v7.292l3.56-3.483C216.483,9.54,218,11.265,218,13.543V20.38z"/>
	<path d="M298.482,14.65l-6.626,4.199v0.521c0,1.854,1.187,2.93,4.088,3.647l1.913-1.889l0.396,0.358l-4.386,4.298
		c-3.76-1.042-6.034-2.342-6.034-5.925v-4.884c0-0.652-0.066-1.075-0.229-1.368c2.044-0.976,5.593-3.078,7.385-4.524
		C295.847,10.558,297.329,13.12,298.482,14.65z M294.791,16.408c-0.759-1.106-2.105-3.395-2.77-4.655l-0.165,0.097v6.381
		L294.791,16.408z"/>
	<path d="M243.553,21.422c-2.08,0.938-5.381,2.807-7.748,4.363c-2.702-0.62-4.483-2.279-4.483-5.015v-6.023
		c0-0.594-0.067-0.943-0.264-1.204c2.176-0.944,6.001-3.105,7.812-4.362c2.605,0.585,4.451,2.344,4.451,4.883v5.892
		C243.321,20.706,243.417,21.131,243.553,21.422z M239.3,23.343v-8.237c0-2.116-1.45-3.255-3.792-3.549l-0.165,0.067v8.105
		c0,2.506,1.452,3.32,3.759,3.71L239.3,23.343z"/>
	<path d="M205.142,20.672c-1.632,3.282-4.835,5.925-9.727,5.925c-6.895,0-12.661-3.937-12.661-12.24
		c0-6.334,4.008-10.304,8.999-12.013c0.346-0.117,0.543,0.121,0.232,0.358c-3.231,2.474-4.979,5.833-4.979,9.57
		c0,3.637,0.943,6.534,2.837,8.433c0.816-0.652,1.152-1.262,1.152-2.149V8.14c0-0.882-0.039-1.329-0.461-1.759
		c2.662-1.263,6.237-4.012,8.407-5.697c1.123,1.077,1.754,1.848,4.386,1.531c0.374-0.046,0.414-0.042,0.297,0.293
		c-0.779,2.211-2.166,3.254-4.188,3.254c-0.732,0-1.386-0.224-2.043-0.618v18.101c2.812-0.093,5.605-1.56,7.417-2.865
		C205.075,20.191,205.259,20.44,205.142,20.672z M196.801,23.245V4.819c-0.406-0.307-0.757-0.684-1.023-1.107l-0.923,0.717v11.199
		c0,2.44-1.474,3.238-4.649,5.437C191.8,22.459,194.004,23.222,196.801,23.245z"/>
	<path d="M300,25.785"/>
</g>
</svg>
