<?xml version="1.0" encoding="utf-8"?>
<!-- Generator: Adobe Illustrator 21.0.0, SVG Export Plug-In . SVG Version: 6.00 Build 0)  -->
<svg version="1.1" id="svg-cbc-radiocan-white" xmlns="http://www.w3.org/2000/svg" xmlns:xlink="http://www.w3.org/1999/xlink" x="0px" y="0px"
	 viewBox="0 0 175.7 24.3" style="enable-background:new 0 0 175.7 24.3;" xml:space="preserve">
<style type="text/css">
	.svg-cbc-radiocan-white-st0{fill-rule:evenodd;clip-rule:evenodd;fill:#FFFFFF;}
</style>
<g>
	<path class="svg-cbc-radiocan-white-st0" d="M71.9,8.6h0.8c1.2,0,2.5,0.1,2.5,1.5c0,1.5-1.3,1.6-2.5,1.6h-0.8V8.6L71.9,8.6L71.9,8.6L71.9,8.6z M69.6,18.4
		h2.3v-4.8h0.7c1,0,1.3,0.3,1.6,1.2l1.4,3.6h2.6l-1.9-4.6c-0.2-0.5-0.6-1.1-1.2-1.2v0c1.5-0.2,2.4-1.3,2.4-2.7c0-3.2-3-3.1-5.5-3.1
		h-2.5V18.4L69.6,18.4L69.6,18.4z"/>
	<path class="svg-cbc-radiocan-white-st0" d="M80.2,12.2c0.8-0.6,1.7-0.9,2.7-0.9c1.3,0,1.9,0.5,1.9,1.9h-1.2c-0.9,0-2,0.1-2.9,0.5
		c-0.8,0.4-1.5,1.2-1.5,2.4c0,1.6,1.5,2.6,3,2.6c1,0,2.1-0.6,2.7-1.5h0c0,0.3,0,0.8,0.1,1.3h2c-0.1-0.7-0.1-1.3-0.1-1.9
		c0-0.6,0-1.3,0-2.1v-1.1c0-2.5-1.1-3.6-3.7-3.6c-1,0-2.1,0.3-3,0.7L80.2,12.2L80.2,12.2L80.2,12.2L80.2,12.2z M81.3,15.9
		c0-1.3,1.5-1.5,2.5-1.5h1c0,0.7-0.1,1.3-0.5,1.8c-0.4,0.5-0.9,0.8-1.6,0.8C81.9,17,81.3,16.6,81.3,15.9L81.3,15.9L81.3,15.9z"/>
	<path class="svg-cbc-radiocan-white-st0" d="M90.8,14.1c0-1.1,0.4-2.7,1.9-2.7c1.4,0,2,1.5,2,2.7c0,1.2-0.5,2.8-2,2.8C91.2,16.9,90.8,15.3,90.8,14.1
		L90.8,14.1L90.8,14.1L90.8,14.1z M94.7,18.4h2.2V5.9h-2.2v4.9h0C93.9,10,93.1,9.6,92,9.6c-2.6,0-3.6,2.1-3.6,4.5
		c0,2.4,1,4.6,3.6,4.6c1.1,0,2-0.4,2.6-1.2h0V18.4L94.7,18.4L94.7,18.4z"/>
	<path class="svg-cbc-radiocan-white-st0" d="M99.2,18.4h2.2V9.8h-2.2V18.4L99.2,18.4L99.2,18.4L99.2,18.4z M99.2,8.2h2.2V6.1h-2.2V8.2L99.2,8.2L99.2,8.2z"
		/>
	<path class="svg-cbc-radiocan-white-st0" d="M103.2,14.2c0,2.5,1.7,4.5,4.5,4.5c2.8,0,4.5-2,4.5-4.5c0-2.8-2-4.6-4.5-4.6C105.2,9.6,103.2,11.3,103.2,14.2
		L103.2,14.2L103.2,14.2L103.2,14.2z M105.6,13.9c0-1.3,0.7-2.6,2.2-2.6c1.5,0,2.2,1.2,2.2,2.6c0,1.4-0.5,3-2.2,3
		C106,16.9,105.6,15.3,105.6,13.9L105.6,13.9L105.6,13.9z"/>
	<polygon class="svg-cbc-radiocan-white-st0" points="117.8,14.8 117.8,13 113.4,13 113.4,14.8 117.8,14.8 117.8,14.8 	"/>
	<path class="svg-cbc-radiocan-white-st0" d="M128.1,16.3c-0.6,0.3-1.6,0.5-2.6,0.5c-2.5,0-3.9-1.8-3.9-4.2c0-2.4,1.5-4.2,3.9-4.2c0.8,0,1.6,0.1,2.5,0.6
		l0.2-2c-0.8-0.3-1.9-0.5-2.6-0.5c-3.9,0-6.4,2.2-6.4,6.2c0,3.9,2.6,5.9,6.4,5.9c0.9,0,1.8-0.2,2.7-0.4L128.1,16.3L128.1,16.3
		L128.1,16.3z"/>
	<path class="svg-cbc-radiocan-white-st0" d="M130.1,12.2c0.8-0.6,1.7-0.9,2.7-0.9c1.3,0,1.9,0.5,1.9,1.9h-1.2c-0.9,0-2,0.1-2.9,0.5
		c-0.8,0.4-1.5,1.2-1.5,2.4c0,1.6,1.5,2.6,3,2.6c1,0,2.1-0.6,2.7-1.5h0c0,0.3,0,0.8,0.1,1.3h2c-0.1-0.7-0.1-1.3-0.1-1.9
		c0-0.6,0-1.3,0-2.1v-1.1c0-2.5-1.1-3.6-3.7-3.6c-1,0-2.1,0.3-3,0.7L130.1,12.2L130.1,12.2L130.1,12.2L130.1,12.2z M131.3,15.9
		c0-1.3,1.5-1.5,2.5-1.5h1c0,0.7-0.1,1.3-0.5,1.8c-0.4,0.5-0.9,0.8-1.6,0.8C131.9,17,131.3,16.6,131.3,15.9L131.3,15.9L131.3,15.9z"
		/>
	<path class="svg-cbc-radiocan-white-st0" d="M139,18.4h2.2v-4.2c0-1.1,0.3-2.9,2-2.9c1.4,0,1.4,1.4,1.4,2.5v4.6h2.2V13c0-1.9-0.9-3.4-2.9-3.4
		c-1.2,0-2.1,0.4-2.8,1.4h0V9.8H139V18.4L139,18.4L139,18.4z"/>
	<path class="svg-cbc-radiocan-white-st0" d="M149.6,12.2c0.8-0.6,1.7-0.9,2.7-0.9c1.3,0,1.9,0.5,1.9,1.9h-1.2c-0.9,0-2,0.1-2.9,0.5
		c-0.8,0.4-1.5,1.2-1.5,2.4c0,1.6,1.5,2.6,3,2.6c1,0,2.1-0.6,2.7-1.5h0c0,0.3,0,0.8,0.1,1.3h2c-0.1-0.7-0.1-1.3-0.1-1.9
		c0-0.6,0-1.3,0-2.1v-1.1c0-2.5-1.1-3.6-3.7-3.6c-1,0-2.1,0.3-3,0.7L149.6,12.2L149.6,12.2L149.6,12.2L149.6,12.2z M150.7,15.9
		c0-1.3,1.5-1.5,2.5-1.5h1c0,0.7-0.1,1.3-0.5,1.8c-0.4,0.5-0.9,0.8-1.6,0.8C151.3,17,150.7,16.6,150.7,15.9L150.7,15.9L150.7,15.9z"
		/>
	<path class="svg-cbc-radiocan-white-st0" d="M160.1,14.1c0-1.1,0.4-2.7,1.9-2.7c1.4,0,2,1.5,2,2.7c0,1.2-0.5,2.8-2,2.8C160.6,16.9,160.1,15.3,160.1,14.1
		L160.1,14.1L160.1,14.1L160.1,14.1z M164.1,18.4h2.2V5.9H164v4.9h0c-0.7-0.8-1.4-1.2-2.6-1.2c-2.6,0-3.6,2.1-3.6,4.5
		c0,2.4,1,4.6,3.6,4.6c1.1,0,2-0.4,2.6-1.2h0V18.4L164.1,18.4L164.1,18.4z"/>
	<path class="svg-cbc-radiocan-white-st0" d="M169,12.2c0.8-0.6,1.7-0.9,2.7-0.9c1.3,0,1.9,0.5,1.9,1.9h-1.2c-0.9,0-2,0.1-2.9,0.5c-0.8,0.4-1.5,1.2-1.5,2.4
		c0,1.6,1.5,2.6,3,2.6c1,0,2.1-0.6,2.7-1.5h0c0,0.3,0,0.8,0.1,1.3h2c-0.1-0.7-0.1-1.3-0.1-1.9c0-0.6,0-1.3,0-2.1v-1.1
		c0-2.5-1.1-3.6-3.7-3.6c-1,0-2.1,0.3-3,0.7L169,12.2L169,12.2L169,12.2L169,12.2z M170.1,15.9c0-1.3,1.5-1.5,2.5-1.5h1
		c0,0.7-0.1,1.3-0.5,1.8c-0.4,0.5-0.9,0.8-1.6,0.8C170.8,17,170.1,16.6,170.1,15.9L170.1,15.9L170.1,15.9z"/>
	<path class="svg-cbc-radiocan-white-st0" d="M49.1,16.5c2.4,0,4.4-2,4.4-4.4c0-2.4-2-4.4-4.4-4.4c-2.4,0-4.4,2-4.4,4.4C44.7,14.5,46.7,16.5,49.1,16.5
		L49.1,16.5L49.1,16.5z"/>
	<path class="svg-cbc-radiocan-white-st0" d="M44.1,16.5c-2.4,0-4.3-2-4.3-4.4c0-2.4,2-4.4,4.3-4.4V16.5L44.1,16.5L44.1,16.5z"/>
	<path class="svg-cbc-radiocan-white-st0" d="M54.2,21.3v-4.1h4.1C58.3,19.5,56.5,21.3,54.2,21.3L54.2,21.3L54.2,21.3z"/>
	<path class="svg-cbc-radiocan-white-st0" d="M44.1,3v4.1H40C40,4.9,41.8,3,44.1,3L44.1,3L44.1,3z"/>
	<path class="svg-cbc-radiocan-white-st0" d="M44.1,21.3v-4.1H40C40,19.5,41.8,21.3,44.1,21.3L44.1,21.3L44.1,21.3z"/>
	<path class="svg-cbc-radiocan-white-st0" d="M59.2,15.9V8.4c1.3,0.7,2.1,2.1,2.1,3.7C61.3,13.7,60.4,15.1,59.2,15.9L59.2,15.9L59.2,15.9z"/>
	<path class="svg-cbc-radiocan-white-st0" d="M45.4,2.1h7.5C52.1,0.9,50.7,0,49.1,0C47.5,0,46.1,0.9,45.4,2.1L45.4,2.1L45.4,2.1z"/>
	<path class="svg-cbc-radiocan-white-st0" d="M52.8,22.2h-7.4c0.7,1.2,2.1,2.1,3.7,2.1C50.6,24.3,52.1,23.5,52.8,22.2L52.8,22.2L52.8,22.2z"/>
	<path class="svg-cbc-radiocan-white-st0" d="M53.5,17.2c0,2.4-2,4.3-4.4,4.3c-2.4,0-4.4-1.9-4.4-4.3H53.5L53.5,17.2L53.5,17.2z"/>
	<path class="svg-cbc-radiocan-white-st0" d="M54.2,16.5c2.4,0,4.3-2,4.3-4.4c0-2.4-1.9-4.4-4.3-4.4V16.5L54.2,16.5L54.2,16.5z"/>
	<path class="svg-cbc-radiocan-white-st0" d="M53.5,7.1c0-2.4-2-4.3-4.4-4.3c-2.4,0-4.4,2-4.4,4.3H53.5L53.5,7.1L53.5,7.1z"/>
	<path class="svg-cbc-radiocan-white-st0" d="M39.1,15.9l0.1-7.5c-1.3,0.7-2.2,2.1-2.2,3.7C37,13.7,37.9,15.1,39.1,15.9L39.1,15.9L39.1,15.9z"/>
	<path class="svg-cbc-radiocan-white-st0" d="M58.3,7.1h-4.1V3C56.5,3,58.3,4.9,58.3,7.1L58.3,7.1L58.3,7.1z"/>
	<path class="svg-cbc-radiocan-white-st0" d="M8.9,16.4c-0.6,0.3-1.6,0.5-2.6,0.5c-2.5,0-3.9-1.8-3.9-4.2c0-2.4,1.5-4.2,3.9-4.2c0.8,0,1.6,0.1,2.5,0.6
		l0.2-2C8.2,6.9,7.1,6.8,6.4,6.8C2.4,6.8,0,9,0,12.9c0,3.9,2.6,5.9,6.4,5.9c0.9,0,1.8-0.2,2.7-0.4L8.9,16.4L8.9,16.4L8.9,16.4z"/>
	<path class="svg-cbc-radiocan-white-st0" d="M13.1,13.4h1.1c1.2,0,2.4,0.2,2.4,1.7c0,1.4-1.3,1.6-2.4,1.6h-1.1V13.4L13.1,13.4L13.1,13.4L13.1,13.4z
		 M13.1,8.8H14c1.1,0,2.2,0.1,2.2,1.4c0,1.2-1.2,1.4-2.2,1.4h-0.9V8.8L13.1,8.8L13.1,8.8L13.1,8.8z M10.7,18.6h4.1
		c1.5,0,4.1-0.4,4.1-3.4c0-1.4-1.1-2.5-2.7-2.7v0c1.4-0.2,2.3-1.2,2.3-2.6c0-2.5-2.2-3-3.7-3h-4.1V18.6L10.7,18.6L10.7,18.6z"/>
	<path class="svg-cbc-radiocan-white-st0" d="M29.3,16.4c-0.6,0.3-1.6,0.5-2.6,0.5c-2.5,0-3.9-1.8-3.9-4.2c0-2.4,1.5-4.2,3.9-4.2c0.8,0,1.6,0.1,2.5,0.6
		l0.2-2c-0.8-0.3-1.9-0.5-2.6-0.5c-3.9,0-6.4,2.2-6.4,6.2c0,3.9,2.6,5.9,6.4,5.9c0.9,0,1.8-0.2,2.7-0.4L29.3,16.4L29.3,16.4
		L29.3,16.4z"/>
</g>
</svg>
