<?xml version="1.0" encoding="utf-8"?>
<!-- Generator: Adobe Illustrator 18.0.0, SVG Export Plug-In . SVG Version: 6.00 Build 0)  -->
<!DOCTYPE svg PUBLIC "-//W3C//DTD SVG 1.1//EN" "http://www.w3.org/Graphics/SVG/1.1/DTD/svg11.dtd">
<svg version="1.1" id="L" xmlns="http://www.w3.org/2000/svg" xmlns:xlink="http://www.w3.org/1999/xlink" x="0px" y="0px"
	 viewBox="0 0 200 82" enable-background="new 0 0 200 82" xml:space="preserve">
<g>
	<path d="M35.7,18.8c-12.3,0-17.4,4.1-17.4,4.1v18.5c0,10.2,13.6,20.8,17.4,21.9c3.8-1.1,17.4-11.7,17.4-21.9V22.9
		C53.2,22.9,48.1,18.8,35.7,18.8z"/>
	<g>
		<path fill="#FFCC00" d="M35.8,48"/>
		<g>
			<g>
				<path fill="#FFCC00" d="M33.6,41.6c0.1,0.1,0.1,0.2,0.1,0.4c0,0.3-0.3,0.6-0.6,0.6c-0.3,0-0.6-0.3-0.6-0.6
					c0-0.2,0.1-0.3,0.2-0.4c-0.5-0.1-1-0.3-1-0.3c0.1,0.3,0.4,1.7,1.3,1.8c1.1,0.1,1.4-0.9,1.4-0.9S34.2,41.8,33.6,41.6z"/>
				<path fill="#FFCC00" d="M38.8,41.5C39,41.6,39,41.8,39,42c0,0.3-0.3,0.6-0.6,0.6c-0.3,0-0.6-0.3-0.6-0.6c0-0.1,0.1-0.3,0.1-0.4
					c-0.6,0.2-0.7,0.5-0.7,0.5s0.3,1,1.4,0.9c0.9-0.1,1.1-1.4,1.3-1.8C39.8,41.2,39.3,41.4,38.8,41.5z"/>
			</g>
			<path fill="#FFCC00" d="M39.9,38.4c-0.4-0.3-0.8,0.1-0.5,0.5c0.3,0.3,0.5,0.5,0.4,0.8c-0.2,0.3-1.8,0.2-4,1c-2.1-0.8-3.8-0.7-4-1
				c-0.1-0.2,0.1-0.5,0.4-0.8c0.4-0.4-0.1-0.8-0.5-0.5c-0.3,0.2-0.9,1-0.7,1.5c0.3,0.8,2.2,0.6,4.7,1.6v0c0,0,0,0,0,0c0,0,0,0,0,0v0
				c2.5-1,4.4-0.8,4.7-1.6C40.7,39.4,40.2,38.7,39.9,38.4z"/>
		</g>
		<path fill="#FFCC00" d="M37.6,49c-0.3-0.1-0.9-0.5-1.1-1.1c-0.1-0.5,0.1-0.9,0.3-1c0.2-0.1,0.5,0.1,0.4,0.4
			c-0.1,0.2-0.3,0.3-0.4,0.4c-0.1,0.1,0,0.3,0.2,0.2c0.4-0.1,0.6-0.5,0.6-0.8c0-0.5-0.5-0.6-0.8-0.5c-0.4,0.1-0.8,0.5-0.6,1.3
			c0.2,0.7,0.8,1.1,1.2,1.3c-0.3,0.1-0.9,0.2-1.5,0.3c-0.6,0-1.3-0.1-1.5-0.3c0.3-0.2,1-0.5,1.2-1.3c0.2-0.8-0.1-1.2-0.6-1.3
			c-0.3-0.1-0.8,0.1-0.8,0.5c0,0.3,0.2,0.7,0.6,0.8c0.2,0,0.3-0.1,0.2-0.2c-0.1-0.1-0.3-0.2-0.4-0.4c-0.1-0.3,0.1-0.4,0.4-0.4
			c0.2,0.1,0.5,0.4,0.3,1c-0.2,0.6-0.7,0.9-1.1,1.1c-0.3,0.1-0.3,0.4-0.1,0.5c0.6,0.3,1.4,0.4,1.9,0.4v0c0,0,0,0,0,0c0,0,0,0,0,0v0
			c0.5,0,1.4-0.1,1.9-0.4C37.9,49.4,37.9,49.1,37.6,49z"/>
		<g>
			<g>
				<path fill="#FFCC00" d="M35.8,24.6c0.2,0,0.3-0.1,0.5-0.2l0,0c0,0,0,0,0.1-0.1c0.2-0.2,0.5-0.6,0.6-0.8c0,0,0-0.1,0-0.1
					c0-0.1-0.2-0.2-0.2-0.2c-0.1-0.1-1.8-0.1-1.9,0l0,0c0,0,0,0,0,0c-0.1,0.1-0.2,0.2-0.2,0.3c0.1,0.2,0.5,0.7,0.6,0.8
					C35.4,24.5,35.6,24.6,35.8,24.6z"/>
			</g>
			<g>
				<path fill="#FFCC00" d="M34.5,25.4c0-0.1,0-0.3,0-0.5l0,0c0,0,0-0.1,0-0.1c-0.1-0.2-0.5-0.6-0.6-0.8c0,0-0.1,0-0.1,0
					c-0.1,0-0.2,0.1-0.3,0.1c-0.1,0.1-0.6,1.6-0.6,1.8l0,0c0,0,0,0,0,0c0,0.1,0.1,0.3,0.3,0.2c0.2,0,0.8-0.2,1-0.3
					C34.3,25.7,34.5,25.5,34.5,25.4z"/>
			</g>
			<g>
				<path fill="#FFCC00" d="M34.9,26.8c-0.1-0.1-0.3-0.1-0.5-0.1l0,0c0,0-0.1,0-0.1,0c-0.2,0-0.8,0.2-1,0.3c0,0-0.1,0.1-0.1,0.1
					c0,0.1,0,0.2,0,0.3c0.1,0.1,1.4,1,1.6,1.1l0,0c0,0,0,0,0,0c0.1,0,0.3,0,0.3-0.2c0-0.2,0-0.8,0-1C35.2,27.1,35.1,26.9,34.9,26.8z
					"/>
			</g>
			<g>
				<path fill="#FFCC00" d="M36.4,26.8c-0.1,0.1-0.2,0.2-0.3,0.4l0,0c0,0,0,0.1,0,0.1c0,0.2,0,0.8,0,1c0,0,0,0.1,0.1,0.1
					c0.1,0.1,0.2,0.1,0.3,0.1c0.2,0,1.5-1,1.6-1.1l0,0c0,0,0,0,0,0c0-0.1,0.1-0.3-0.1-0.3c-0.2-0.1-0.8-0.3-1-0.3
					C36.8,26.7,36.6,26.8,36.4,26.8z"/>
			</g>
			<g>
				<path fill="#FFCC00" d="M36.9,25.5c0.1,0.1,0.2,0.3,0.3,0.4l0,0c0,0,0,0,0.1,0c0.2,0.1,0.8,0.3,1,0.3c0,0,0.1,0,0.1,0
					c0.1-0.1,0.1-0.2,0.1-0.2c0-0.2-0.5-1.6-0.6-1.8l0,0c0,0,0,0,0,0c-0.1-0.1-0.3-0.1-0.4-0.1c-0.2,0.1-0.5,0.6-0.6,0.8
					C36.9,25.1,36.9,25.3,36.9,25.5z"/>
			</g>
		</g>
		<path fill="#FFCC00" d="M36.7,25.6c0-0.1-0.1-0.1-0.2-0.2c0-0.1,0-0.1,0-0.2c0-0.1-0.1-0.3-0.2-0.3c-0.2-0.1-0.5-0.1-0.6,0
			c-0.2-0.1-0.4-0.1-0.6,0c-0.1,0.1-0.2,0.2-0.2,0.3c0,0.1,0,0.2,0,0.3c0,0-0.1,0.1-0.1,0.1c-0.1,0.1-0.1,0.3,0,0.4
			c0.1,0.2,0.3,0.4,0.5,0.4c0,0,0,0,0,0c0.1,0.2,0.3,0.3,0.5,0.3c0.2,0,0.4-0.2,0.5-0.4c0.2,0,0.4-0.2,0.4-0.3
			C36.8,25.9,36.8,25.8,36.7,25.6z M35.3,26.2c-0.1,0-0.2,0-0.2-0.1c0-0.1,0-0.2,0.1-0.2c0.1,0,0.2,0,0.2,0.1
			C35.5,26.1,35.4,26.2,35.3,26.2z M35.4,25.6c-0.1,0.1-0.2,0-0.3,0c-0.1-0.1,0-0.2,0-0.2c0.1-0.1,0.2,0,0.3,0
			C35.5,25.4,35.5,25.5,35.4,25.6z M35.8,26.5c-0.1,0-0.2-0.1-0.2-0.2c0-0.1,0.1-0.2,0.2-0.2c0.1,0,0.2,0.1,0.2,0.2
			C36,26.4,35.9,26.5,35.8,26.5z M35.8,25.5c-0.1-0.1-0.1-0.2,0-0.2c0.1-0.1,0.2-0.1,0.3,0c0.1,0.1,0.1,0.2,0,0.2
			C36,25.5,35.9,25.5,35.8,25.5z M36.2,26c-0.1,0-0.1-0.1-0.1-0.2c0-0.1,0.1-0.1,0.2-0.1c0.1,0,0.1,0.1,0.1,0.2
			C36.4,26,36.3,26,36.2,26z"/>
		<g>
			<path fill="#FFCC00" d="M26.1,23.8c-0.5-0.5-0.8-0.6-0.9-0.6c-0.1,0-0.2,0-0.4,0.2c0,0-0.1,0.1-0.1,0.1c-0.2,0.3-0.5,0.6-1.1,0.6
				c-0.2,0-0.4-0.1-0.6-0.2V28c0.2,0.3,0.4,0.5,0.6,0.5c0.1,0,0.3-0.1,0.5-0.3c0.6-0.6,1.3-0.7,2-0.3V23.8z"/>
			<path fill="#FFCC00" d="M29.3,24.2c-0.5,0-0.8-0.3-1.1-0.6c0,0-0.1-0.1-0.1-0.1c-0.2-0.2-0.3-0.2-0.4-0.2c-0.1,0-0.4,0.1-0.9,0.6
				v4.1c0.3-0.2,0.6-0.2,0.8-0.2c0.4,0,0.8,0.2,1.2,0.6c0.2,0.3,0.4,0.3,0.5,0.3c0.2,0,0.4-0.2,0.6-0.5V24
				C29.7,24.1,29.5,24.2,29.3,24.2"/>
		</g>
		<g>
			<path fill="#FFCC00" d="M45.4,27.9c0.7-0.4,1.4-0.3,2,0.3c0.2,0.3,0.4,0.3,0.5,0.3c0.2,0,0.4-0.2,0.6-0.5V24
				c-0.2,0.1-0.4,0.2-0.6,0.2c-0.5,0-0.8-0.3-1.1-0.6c0,0-0.1-0.1-0.1-0.1c-0.2-0.2-0.3-0.2-0.4-0.2c-0.1,0-0.4,0.1-0.9,0.6V27.9z"
				/>
			<path fill="#FFCC00" d="M42.2,24.2c-0.2,0-0.4-0.1-0.6-0.2V28c0.2,0.3,0.4,0.5,0.6,0.5c0.1,0,0.3-0.1,0.5-0.3
				c0.4-0.4,0.7-0.6,1.2-0.6c0.3,0,0.6,0.1,0.8,0.2v-4.1c-0.5-0.5-0.8-0.6-0.9-0.6c-0.1,0-0.2,0-0.4,0.2c0,0-0.1,0.1-0.1,0.1
				C43,23.8,42.7,24.2,42.2,24.2"/>
		</g>
		<g>
			<g>
				<path fill="#FFCC00" d="M31.7,36.2c-1.3-0.4-3.9-1.7-5-4.8c-0.3-0.8-0.7-0.7-0.6,0.2c0.2,2.2,1.6,4.9,4.5,6.1
					C31.9,38.2,32.6,36.5,31.7,36.2z"/>
			</g>
			<g>
				<path fill="#FFCC00" d="M39.9,36.2c1.3-0.4,3.9-1.7,5-4.8c0.3-0.8,0.7-0.7,0.6,0.2c-0.2,2.2-1.6,4.9-4.5,6.1
					C39.7,38.2,39,36.5,39.9,36.2z"/>
			</g>
		</g>
		<path fill="#FFCC00" d="M39.1,35.6c0.2,0,0.4-0.1,0.7-0.2c0.8-0.3,2.2-1,3.3-2.4c-2.5-0.5-5-0.7-7.2-0.7c-2.3,0-4.8,0.3-7.3,0.8
			c1.1,1.5,2.6,2.2,3.4,2.4c0.2,0.1,0.5,0.1,0.6,0.2c0.4,0.1,0.7,0.1,1.2-0.2c0.4-0.4,0.5-0.6,2.2-0.6c1.6,0,1.7,0.2,2.1,0.6
			C38.4,35.7,38.7,35.6,39.1,35.6z"/>
		<g>
			<path fill="#FFCC00" d="M47.5,39.5l-3.6,6C45.3,44.9,47.3,43.3,47.5,39.5z"/>
			<path fill="#FFCC00" d="M27.6,45.5l-3.6-6C24.2,43.3,26.2,44.9,27.6,45.5z"/>
			<path fill="#FFCC00" d="M45.8,33.6c-0.5,1.4-1.4,2.8-2.8,3.8c1.1,0.4,2.6,0.4,3.6-0.3c-0.3,0.8-1.4,2-2.1,2.7
				c-0.1-0.1-0.3-0.2-0.4-0.3c-0.3-0.3-0.6,0-0.4,0.2c0.1,0.1,0.3,0.4,0.4,0.4c-0.2,0.2-0.4,0.4-0.4,0.4c-0.2-0.1-0.3-0.2-0.4-0.3
				c-0.3-0.3-0.6,0-0.4,0.2c0.1,0.1,0.3,0.4,0.4,0.5c-0.2,0.1-0.4,0.3-0.6,0.4c-0.4-0.5-0.8-1-1.4-0.7c-0.6,0.3,0,0.8,0,1.4
				c0,2.6-1.6,3.6-2,4.7c-0.4,1.1-0.8,3.1-1.1,3.6c-0.3,0.5-1.7,1.1-2.3,0.6c-0.6,0.5-2-0.1-2.3-0.6c-0.3-0.5-0.7-2.5-1.1-3.6
				c-0.4-1.1-2-2.1-2-4.7c0-0.6,0.6-1.1,0-1.4c-0.6-0.3-1,0.2-1.4,0.7c-0.2-0.1-0.4-0.3-0.6-0.4c0.1-0.1,0.3-0.4,0.4-0.5
				c0.2-0.3-0.1-0.6-0.4-0.2c-0.1,0.1-0.3,0.3-0.4,0.3c0,0-0.2-0.2-0.4-0.4c0.1-0.1,0.3-0.4,0.4-0.4c0.2-0.3-0.1-0.6-0.4-0.2
				c-0.1,0.1-0.2,0.2-0.4,0.3c-0.8-0.7-1.8-1.8-2.1-2.7c1,0.7,2.3,0.6,3.5,0.2c-1.4-1.1-2.3-2.4-2.8-3.8c-2.2,0.6-4.3,1.4-6,2.3v5.5
				c0,8.9,12.8,19.2,16,20.1c3.3-0.9,16-11.2,16-20.1v-5.6C50.1,35,48,34.2,45.8,33.6z M46.6,50.1c-0.7,0.6-1.2,0.9-1.7,1.3
				c-1,0.7-1.3,1-1.3,1.5l0.2,2.1l-1.3-0.6c-1-0.4-1.5-1-1.5-2c-0.1-1.5,0.8-3,2.5-4.2c0.4-0.3,0.8-0.4,1-0.6
				c0.3-0.1,0.5-0.3,0.6-0.4c0.1-0.2-0.3-0.4-1.2-0.8c-0.1,0-0.3-0.1-0.4-0.2l-7.7,12.7l-7.7-12.7c-0.2,0.1-0.3,0.1-0.4,0.2
				c-0.9,0.4-1.2,0.7-1.2,0.8c0,0.1,0.3,0.2,0.6,0.4c0.3,0.1,0.6,0.3,1,0.6c1.7,1.1,2.6,2.7,2.5,4.2c-0.1,1-0.6,1.6-1.5,2L27.7,55
				l0.2-2.1c0-0.5-0.3-0.8-1.3-1.5c-0.4-0.3-1-0.7-1.7-1.3c-4.3-3.5-4.5-7.8-3.2-9.7c0.4-0.6,1.6-1.9,1.6-1.9l-0.2-0.3
				c-0.4,0-0.8-0.4-0.8-0.8c0-0.5,0.4-0.9,0.9-0.9c0.5,0,0.9,0.4,0.9,0.9c0,0.1,0,0.2,0,0.3c0,0,0,0,0,0l11.7,19.5l11.7-19.5
				c0,0,0,0,0,0c0-0.1,0-0.2,0-0.3c0-0.5,0.4-0.9,0.9-0.9c0.5,0,0.9,0.4,0.9,0.9c0,0.4-0.3,0.8-0.8,0.8l-0.2,0.3
				c0,0,1.2,1.3,1.6,1.9C51,42.3,50.9,46.6,46.6,50.1z"/>
		</g>
	</g>
	<g>
		<path fill="#E30C00" d="M35.7,20.1c-11.8,0-16,3.6-16,3.6v10.6c1.6-0.8,3.5-1.5,5.6-2c0-0.2-0.1-0.4-0.1-0.6
			c-0.1-0.6,0.1-1,0.3-1.3c0.2-0.2,0.5-0.3,0.7-0.3c0.3,0,0.9,0.1,1.2,1.1c0.1,0.2,0.2,0.4,0.3,0.6c2.7-0.5,5.5-0.8,8-0.8
			c2.5,0,5.3,0.3,8,0.8c0.1-0.2,0.2-0.4,0.2-0.6c0.3-0.9,0.9-1.1,1.2-1.1c0.3,0,0.5,0.1,0.7,0.3c0.3,0.3,0.4,0.7,0.3,1.3
			c0,0.2-0.1,0.4-0.1,0.6c2,0.5,4,1.2,5.6,2V23.7C51.8,23.7,47.6,20.1,35.7,20.1z M30.9,29.4l-1.6-0.2c0,0-0.1,0-0.1,0l-2.1-0.3v0.4
			h-0.6h-0.6v-0.4l-3.8,0.8v-5.9l0.3-0.1v-0.9l0.6,0.4c0.4,0.3,0.6,0.4,0.7,0.4c0.2,0,0.3-0.1,0.5-0.4c0-0.1,0.1-0.1,0.1-0.2
			c0.3-0.3,0.5-0.4,0.9-0.4c0.4,0,0.8,0.2,1.3,0.6c0.5-0.4,0.9-0.6,1.3-0.6c0.3,0,0.6,0.1,0.9,0.4c0,0.1,0.1,0.1,0.1,0.2
			c0.2,0.2,0.3,0.4,0.5,0.4c0.1,0,0.4-0.1,0.7-0.4l0.5-0.4v0.9l0.3,0.1V29.4z M39.4,26.9c-0.1,0.2-0.3,0.3-0.6,0.3
			c0,0.2,0,0.3-0.1,0.4c-0.2,0.2-1.9,1.5-2.2,1.5c0,0-0.1,0-0.1,0c-0.1,0-0.2,0-0.3,0c-0.1,0.3-0.2,0.5-0.4,0.5
			c-0.2,0-0.3-0.2-0.4-0.4c-0.1,0-0.2,0.1-0.3,0.1c0,0-0.1,0-0.1,0c-0.3-0.1-2-1.3-2.2-1.5c0-0.1-0.1-0.2-0.1-0.3
			c-0.3,0-0.5-0.1-0.6-0.3c-0.1-0.2,0.1-0.4,0.3-0.5c-0.1-0.1-0.2-0.3-0.2-0.4c0-0.3,0.7-2.3,0.8-2.5c0-0.1,0.2-0.1,0.3-0.2
			c-0.1-0.2-0.1-0.5,0.1-0.6c0.1-0.1,0.4-0.1,0.6,0.1c0.1-0.1,0.2-0.3,0.3-0.3c0.2-0.1,0.9-0.1,1.2-0.1c0.5,0,1.3,0,1.5,0.1
			c0.1,0,0.2,0.1,0.3,0.3c0.2-0.2,0.5-0.2,0.6-0.1c0.1,0.1,0.2,0.3,0.1,0.6c0.2,0,0.3,0.1,0.4,0.2c0.2,0.2,0.8,2.2,0.8,2.5
			c0,0.1-0.1,0.2-0.2,0.4C39.3,26.5,39.5,26.7,39.4,26.9z M49.4,29.6l-3.8-0.8v0.4H45h-0.6v-0.4l-2.1,0.3c0,0-0.1,0-0.1,0l-1.6,0.2
			v-5.6l0.3-0.1v-0.9l0.5,0.4c0.4,0.3,0.6,0.4,0.7,0.4c0.2,0,0.3-0.1,0.5-0.4c0-0.1,0.1-0.1,0.1-0.2c0.3-0.3,0.5-0.4,0.9-0.4
			c0.4,0,0.8,0.2,1.3,0.6c0.5-0.4,0.9-0.6,1.3-0.6c0.3,0,0.6,0.1,0.9,0.4c0,0.1,0.1,0.1,0.1,0.2c0.2,0.2,0.3,0.4,0.5,0.4
			c0.1,0,0.4-0.1,0.7-0.4l0.6-0.4v0.9l0.3,0.1V29.6z"/>
		<g>
			<path fill="#E30C00" d="M44.9,46c0.5,0.3,1.1,0.7,1.1,1.3c0,0.6-0.5,0.9-1.1,1.2c-0.3,0.1-0.6,0.3-0.9,0.5
				c-0.5,0.3-2.2,1.6-2.1,3.3c0.1,0.6,0.3,0.9,0.9,1.2l-0.1-0.8c0-0.8,0.7-1.4,1.7-2.1c0.4-0.3,1-0.7,1.6-1.2c3.7-3,4.1-6.8,3-8.5
				c-0.1-0.2-0.4-0.5-0.6-0.8C48.1,43.4,46.4,45.1,44.9,46z"/>
		</g>
		<g>
			<path fill="#E30C00" d="M23.1,40.1c-0.2,0.3-0.4,0.6-0.6,0.8c-1.1,1.7-0.7,5.5,3,8.5c0.7,0.5,1.2,0.9,1.6,1.2
				c1,0.7,1.7,1.3,1.7,2.1l-0.1,0.8c0.6-0.3,0.8-0.6,0.9-1.2c0.2-1.7-1.5-3-2.1-3.3c-0.4-0.2-0.7-0.4-0.9-0.5
				c-0.5-0.3-1.1-0.5-1.1-1.2c0-0.6,0.5-1,1.1-1.3C25.2,45.1,23.4,43.4,23.1,40.1z"/>
		</g>
	</g>
	<g>
		<path fill="#000000" d="M61.3,28.5v-5.5h2.1v5.5c0,1.6,0.8,2.4,2,2.4c1.3,0,2-0.8,2-2.3v-5.6h2.1v5.5c0,2.9-1.6,4.4-4.1,4.4
			C62.9,32.8,61.3,31.3,61.3,28.5z"/>
		<path fill="#000000" d="M72.5,22.9h1.9l4.4,6v-6h2.1v9.7h-1.8l-4.6-6.2v6.2h-2.1V22.9z"/>
		<path fill="#000000" d="M84,22.9h2.1v9.7H84V22.9z"/>
		<path fill="#000000" d="M88.5,22.9h2.3l2.5,6.8l2.5-6.8H98l-3.8,9.8h-1.8L88.5,22.9z"/>
		<path fill="#000000" d="M100.2,22.9h7.1v1.9h-5.1v2h4.5v1.9h-4.5v2h5.1v1.9h-7.2V22.9z"/>
		<path fill="#000000" d="M110.6,22.9h4.3c1.2,0,2.1,0.3,2.8,1c0.5,0.5,0.8,1.3,0.8,2.2v0c0,1.6-0.8,2.6-2,3l2.3,3.5h-2.4l-2-3.1h0
			h-1.6v3.1h-2.1V22.9z M114.8,27.7c1,0,1.6-0.6,1.6-1.4v0c0-0.9-0.6-1.4-1.6-1.4h-2.1v2.8H114.8z"/>
		<path fill="#000000" d="M121.1,31.2l1.2-1.5c0.9,0.7,1.7,1.2,2.8,1.2c0.9,0,1.4-0.3,1.4-0.9v0c0-0.5-0.3-0.8-1.9-1.2
			c-1.9-0.5-3.1-1-3.1-3v0c0-1.8,1.4-2.9,3.3-2.9c1.4,0,2.6,0.4,3.5,1.2l-1.1,1.6c-0.8-0.6-1.7-1-2.5-1c-0.8,0-1.2,0.4-1.2,0.8v0
			c0,0.6,0.4,0.8,2,1.3c1.9,0.5,3,1.2,3,2.9v0c0,1.9-1.4,3-3.5,3C123.6,32.8,122.2,32.3,121.1,31.2z"/>
		<path fill="#000000" d="M131.5,22.9h2.1v9.7h-2.1V22.9z"/>
		<path fill="#000000" d="M139,24.9h-2.9v-2h7.8v2H141v7.7H139V24.9z"/>
		<path fill="#000000" d="M149.3,28.8l-3.6-5.9h2.4l2.3,3.9l2.3-3.9h2.4l-3.6,5.8v3.9h-2.1V28.8z"/>
		<path fill="#000000" d="M161.6,27.8L161.6,27.8c0-2.8,2.1-5,5-5c2.9,0,5,2.2,5,5v0c0,2.8-2.1,5-5,5
			C163.7,32.8,161.6,30.6,161.6,27.8z M169.5,27.8L169.5,27.8c0-1.7-1.2-3.1-2.9-3.1c-1.7,0-2.8,1.4-2.8,3v0c0,1.7,1.2,3.1,2.9,3.1
			C168.3,30.8,169.5,29.5,169.5,27.8z"/>
		<path fill="#000000" d="M173.9,22.9h7.2v1.9H176v2.1h4.5v1.9H176v3.8h-2.1V22.9z"/>
		<g>
			<g>
				<path fill="#000000" d="M69.2,36.5c-5.2,0-9.1,4-9.1,9.4v0.1c0,2.5,0.9,4.9,2.5,6.6c1.7,1.7,3.9,2.7,6.4,2.7
					c2.9,0,5-0.9,7.1-3.2l-1.9-2c-1.5,1.4-2.9,2.3-5.1,2.3c-3.3,0-5.9-2.9-5.9-6.6v-0.1c0-3.7,2.5-6.5,5.9-6.5c1.8,0,3.3,0.7,5,2.2
					l1.9-2.3C74.6,37.9,72.7,36.5,69.2,36.5z"/>
			</g>
			<g>
				<path fill="#000000" d="M92.3,54.9h3.3l-7.7-18.2h-3.1l-7.7,18.2h3.2l1.8-4.4h8.5L92.3,54.9z M89.5,47.9h-6.3l3.2-7.6L89.5,47.9
					z"/>
			</g>
			<g>
				<path fill="#000000" d="M144.1,54.9h3.3l-7.7-18.2h-3.1l-7.7,18.2h3.2l1.8-4.4h8.5L144.1,54.9z M141.2,47.9h-6.3l3.2-7.6
					L141.2,47.9z"/>
			</g>
			<g>
				<path fill="#000000" d="M97.5,54.9H110v-2.8h-9.3V36.8h-3.2V54.9z"/>
			</g>
			<g>
				<path fill="#000000" d="M119.6,36.5c-5.1,0-9.2,4.1-9.2,9.4v0.1c0,5.5,3.9,9.3,9.3,9.3c3.4,0,5.8-1.5,7.6-2.8v-7.6h-7.3v2.6h4.1
					v3.5l0,0c-1.2,0.9-2.7,1.4-4.3,1.4c-3.6,0-6.1-2.7-6.1-6.6v-0.1c0-3.6,2.6-6.5,5.8-6.5c2.3,0,3.6,0.8,5,1.9l1.9-2.3
					C124.3,37.2,122.3,36.5,119.6,36.5z"/>
			</g>
			<g>
				<path fill="#000000" d="M160.9,54.9h3.5l-4.8-6.9l0.1,0c2.7-0.8,4.5-2.7,4.5-5.5v-0.1c0-1.5-0.8-2.9-1.8-3.9
					c-1.2-1.2-2.9-1.8-5.1-1.8h-8v18.1h3.2v-6.4h4L160.9,54.9z M157.2,45.9h-4.6v-6.3h4.6c2.4,0,3.7,1.1,3.7,3.1v0.1
					C160.9,44.7,159.5,45.9,157.2,45.9z"/>
			</g>
			<g>
				<path fill="#000000" d="M171.3,54.9h3.4v-7l7-11.1h-3.5l-5.1,8.2l-5-8.2h-3.6l6.8,11.1V54.9z"/>
			</g>
		</g>
	</g>
</g>
</svg>
